M48
;GenerationSoftware,Autodesk,EAGLE,9.5.2*%
;CreationDate,2020-04-20T08:10:22Z*%
FMAT,2
ICI,OFF
METRIC,TZ,000.000
T9C0.350
T8C0.610
T7C0.800
T6C1.000
T5C1.016
T4C1.200
T3C1.700
T2C1.778
T1C2.300
%
G90
M71
T1
X105370Y166990
X114820Y176540
X31340Y176830
X40920Y167290
T2
X80470Y134260
X80470Y93620
X65230Y93620
X65230Y134260
T3
X74830Y31390
X70870Y31390
T4
X62309Y23897
X52911Y23897
X52911Y8403
X62309Y8403
X92789Y23897
X83391Y23897
X83391Y8403
X92789Y8403
X77549Y23897
X68151Y23897
X68151Y8403
X77549Y8403
T5
X107140Y2180
X70310Y45360
X72850Y45360
X67770Y89810
X77930Y45360
X75390Y45360
X65230Y89810
X37290Y2180
X34750Y2180
X109680Y2180
T6
X76660Y82190
X74120Y82190
X71580Y82190
X71580Y84730
X74120Y84730
X76660Y84730
X69040Y84730
X69040Y82190
T7
X65230Y98700
X65230Y96160
X80470Y96160
X80470Y98700
X80470Y101240
X80470Y103780
X80470Y106320
X80470Y108860
X80470Y111400
X80470Y113940
X80470Y116480
X80470Y119020
X80470Y121560
X80470Y124100
X80470Y126640
X80470Y129180
X80470Y131720
X65230Y131720
X65230Y129180
X65230Y126640
X65230Y124100
X65230Y121560
X65230Y119020
X65230Y116480
X65230Y113940
X65230Y111400
X65230Y108860
X65230Y106320
X65230Y103780
X65230Y101240
T8
X28900Y165380
X47450Y172360
X119140Y162290
X116600Y162290
X116600Y164830
X119140Y164830
X95710Y172360
X95710Y174900
X98250Y174900
X74120Y174900
X71580Y174900
X71580Y177440
X74120Y177440
X47450Y174900
X49990Y174900
X28900Y162840
X26360Y162840
X26360Y165380
X98250Y172360
X49990Y172360
T9
X53800Y159660
X47450Y166010
X69040Y167280
X98250Y166010
X99520Y166010
X96980Y11070
X43640Y12340
X104600Y21230
X104600Y19960
X104600Y18690
X108410Y16150
X36020Y16150
X65230Y79330
X67450Y77430
X85550Y42820
X108410Y17420
X60150Y41550
X36020Y17420
X71580Y117750
M30