G04 EAGLE Gerber RS-274X export*
G75*
%MOMM*%
%FSLAX34Y34*%
%LPD*%
%INBottom Copper*%
%IPPOS*%
%AMOC8*
5,1,8,0,0,1.08239X$1,22.5*%
G01*
%ADD10R,1.308000X1.308000*%
%ADD11C,1.308000*%
%ADD12C,1.524000*%
%ADD13R,1.300000X1.500000*%
%ADD14R,1.500000X1.300000*%
%ADD15C,1.270000*%
%ADD16R,2.000000X2.000000*%
%ADD17R,1.508000X1.508000*%
%ADD18C,1.508000*%
%ADD19R,3.000000X3.000000*%
%ADD20P,3.247170X8X202.500000*%
%ADD21C,0.756400*%
%ADD22C,0.254000*%
%ADD23C,2.540000*%
%ADD24C,0.812800*%
%ADD25C,1.016000*%
%ADD26C,0.304800*%

G36*
X1160320Y-18074D02*
X1160320Y-18074D01*
X1160339Y-18076D01*
X1160441Y-18054D01*
X1160543Y-18038D01*
X1160560Y-18028D01*
X1160580Y-18024D01*
X1160669Y-17971D01*
X1160760Y-17922D01*
X1160774Y-17908D01*
X1160791Y-17898D01*
X1160858Y-17819D01*
X1160930Y-17744D01*
X1160938Y-17726D01*
X1160951Y-17711D01*
X1160990Y-17615D01*
X1161033Y-17521D01*
X1161035Y-17501D01*
X1161043Y-17483D01*
X1161061Y-17316D01*
X1161061Y226016D01*
X1161058Y226036D01*
X1161060Y226055D01*
X1161038Y226157D01*
X1161022Y226259D01*
X1161012Y226276D01*
X1161008Y226296D01*
X1160955Y226385D01*
X1160906Y226476D01*
X1160892Y226490D01*
X1160882Y226507D01*
X1160803Y226574D01*
X1160728Y226646D01*
X1160710Y226654D01*
X1160695Y226667D01*
X1160599Y226706D01*
X1160505Y226749D01*
X1160485Y226751D01*
X1160467Y226759D01*
X1160300Y226777D01*
X1158127Y226777D01*
X1154113Y228440D01*
X884340Y498213D01*
X882677Y502227D01*
X882677Y1573373D01*
X884340Y1577387D01*
X887413Y1580460D01*
X891427Y1582123D01*
X1287988Y1582123D01*
X1288018Y1582128D01*
X1288049Y1582125D01*
X1288139Y1582147D01*
X1288231Y1582162D01*
X1288258Y1582177D01*
X1288288Y1582184D01*
X1288366Y1582234D01*
X1288448Y1582278D01*
X1288469Y1582300D01*
X1288495Y1582316D01*
X1288554Y1582388D01*
X1288618Y1582456D01*
X1288631Y1582484D01*
X1288650Y1582508D01*
X1288682Y1582595D01*
X1288721Y1582679D01*
X1288725Y1582709D01*
X1288735Y1582738D01*
X1288749Y1582905D01*
X1288676Y1585520D01*
X1288671Y1585543D01*
X1288671Y1585584D01*
X1285469Y1614002D01*
X1285461Y1614030D01*
X1285455Y1614086D01*
X1279091Y1641967D01*
X1279081Y1641994D01*
X1279068Y1642049D01*
X1269623Y1669042D01*
X1269609Y1669067D01*
X1269590Y1669121D01*
X1257182Y1694886D01*
X1257165Y1694910D01*
X1257141Y1694961D01*
X1241926Y1719175D01*
X1241906Y1719197D01*
X1241876Y1719245D01*
X1224046Y1741604D01*
X1224038Y1741611D01*
X1224033Y1741620D01*
X1224015Y1741635D01*
X1223989Y1741667D01*
X1203767Y1761889D01*
X1203744Y1761906D01*
X1203704Y1761946D01*
X1181345Y1779776D01*
X1181320Y1779790D01*
X1181275Y1779826D01*
X1157061Y1795041D01*
X1157034Y1795052D01*
X1156986Y1795082D01*
X1131221Y1807490D01*
X1131193Y1807498D01*
X1131142Y1807523D01*
X1104149Y1816968D01*
X1104120Y1816973D01*
X1104067Y1816991D01*
X1102811Y1817278D01*
X1099476Y1818039D01*
X1096141Y1818801D01*
X1092806Y1819562D01*
X1092805Y1819562D01*
X1089470Y1820323D01*
X1086135Y1821084D01*
X1082800Y1821846D01*
X1079465Y1822607D01*
X1079464Y1822607D01*
X1076186Y1823355D01*
X1076157Y1823357D01*
X1076102Y1823369D01*
X1047684Y1826571D01*
X1047661Y1826570D01*
X1047620Y1826576D01*
X1033322Y1826977D01*
X1033313Y1826976D01*
X1033300Y1826977D01*
X423700Y1826977D01*
X423691Y1826976D01*
X423678Y1826977D01*
X409380Y1826576D01*
X409357Y1826571D01*
X409316Y1826571D01*
X380898Y1823369D01*
X380870Y1823361D01*
X380814Y1823355D01*
X352933Y1816991D01*
X352906Y1816981D01*
X352851Y1816968D01*
X325858Y1807523D01*
X325833Y1807509D01*
X325779Y1807490D01*
X300014Y1795082D01*
X299990Y1795065D01*
X299939Y1795041D01*
X275725Y1779826D01*
X275703Y1779806D01*
X275655Y1779776D01*
X253296Y1761946D01*
X253277Y1761924D01*
X253233Y1761889D01*
X233011Y1741667D01*
X232994Y1741644D01*
X232954Y1741604D01*
X215124Y1719245D01*
X215110Y1719220D01*
X215074Y1719175D01*
X199859Y1694961D01*
X199848Y1694934D01*
X199818Y1694886D01*
X187410Y1669121D01*
X187402Y1669093D01*
X187377Y1669042D01*
X177932Y1642049D01*
X177927Y1642020D01*
X177909Y1641967D01*
X171545Y1614086D01*
X171543Y1614057D01*
X171531Y1614002D01*
X168329Y1585584D01*
X168330Y1585561D01*
X168324Y1585520D01*
X168251Y1582905D01*
X168255Y1582875D01*
X168252Y1582845D01*
X168271Y1582754D01*
X168284Y1582662D01*
X168297Y1582634D01*
X168304Y1582604D01*
X168352Y1582524D01*
X168393Y1582441D01*
X168414Y1582419D01*
X168430Y1582393D01*
X168501Y1582333D01*
X168566Y1582267D01*
X168594Y1582253D01*
X168617Y1582233D01*
X168703Y1582198D01*
X168786Y1582157D01*
X168817Y1582153D01*
X168845Y1582141D01*
X169012Y1582123D01*
X565573Y1582123D01*
X569587Y1580460D01*
X572660Y1577387D01*
X574323Y1573373D01*
X574323Y502227D01*
X572660Y498213D01*
X569480Y495033D01*
X302887Y228440D01*
X298873Y226777D01*
X296700Y226777D01*
X296680Y226774D01*
X296661Y226776D01*
X296559Y226754D01*
X296457Y226738D01*
X296440Y226728D01*
X296420Y226724D01*
X296331Y226671D01*
X296240Y226622D01*
X296226Y226608D01*
X296209Y226598D01*
X296142Y226519D01*
X296071Y226444D01*
X296062Y226426D01*
X296049Y226411D01*
X296010Y226315D01*
X295967Y226221D01*
X295965Y226201D01*
X295957Y226183D01*
X295939Y226016D01*
X295939Y-17316D01*
X295942Y-17336D01*
X295940Y-17355D01*
X295962Y-17457D01*
X295979Y-17559D01*
X295988Y-17576D01*
X295992Y-17596D01*
X296045Y-17685D01*
X296094Y-17776D01*
X296108Y-17790D01*
X296118Y-17807D01*
X296197Y-17874D01*
X296272Y-17946D01*
X296290Y-17954D01*
X296305Y-17967D01*
X296401Y-18006D01*
X296495Y-18049D01*
X296515Y-18051D01*
X296533Y-18059D01*
X296700Y-18077D01*
X1160300Y-18077D01*
X1160320Y-18074D01*
G37*
%LPC*%
G36*
X1082842Y167877D02*
X1082842Y167877D01*
X1080518Y168840D01*
X1079192Y170166D01*
X1079118Y170219D01*
X1079049Y170279D01*
X1079018Y170291D01*
X1078992Y170310D01*
X1078905Y170337D01*
X1078820Y170371D01*
X1078779Y170375D01*
X1078757Y170382D01*
X1078725Y170381D01*
X1078654Y170389D01*
X1044422Y170389D01*
X1004089Y210722D01*
X1004089Y324706D01*
X1004075Y324796D01*
X1004067Y324887D01*
X1004055Y324917D01*
X1004050Y324949D01*
X1004007Y325030D01*
X1003971Y325114D01*
X1003945Y325146D01*
X1003934Y325166D01*
X1003911Y325189D01*
X1003866Y325244D01*
X904944Y424166D01*
X904871Y424219D01*
X904801Y424279D01*
X904771Y424291D01*
X904745Y424310D01*
X904658Y424337D01*
X904573Y424371D01*
X904532Y424375D01*
X904510Y424382D01*
X904477Y424381D01*
X904406Y424389D01*
X860946Y424389D01*
X860856Y424375D01*
X860765Y424367D01*
X860736Y424355D01*
X860704Y424350D01*
X860623Y424307D01*
X860539Y424271D01*
X860507Y424245D01*
X860486Y424234D01*
X860464Y424211D01*
X860408Y424166D01*
X859082Y422840D01*
X856758Y421877D01*
X854242Y421877D01*
X851918Y422840D01*
X850140Y424618D01*
X849177Y426942D01*
X849177Y429458D01*
X850140Y431782D01*
X851918Y433560D01*
X854242Y434523D01*
X856758Y434523D01*
X859082Y433560D01*
X860408Y432234D01*
X860482Y432181D01*
X860551Y432121D01*
X860582Y432109D01*
X860608Y432090D01*
X860695Y432063D01*
X860780Y432029D01*
X860821Y432025D01*
X860843Y432018D01*
X860875Y432019D01*
X860946Y432011D01*
X907603Y432011D01*
X907674Y432022D01*
X907746Y432024D01*
X907795Y432042D01*
X907846Y432050D01*
X907909Y432084D01*
X907977Y432109D01*
X908017Y432141D01*
X908063Y432166D01*
X908113Y432217D01*
X908169Y432262D01*
X908197Y432306D01*
X908233Y432344D01*
X908263Y432409D01*
X908302Y432469D01*
X908314Y432520D01*
X908336Y432567D01*
X908344Y432638D01*
X908362Y432708D01*
X908358Y432760D01*
X908363Y432811D01*
X908348Y432882D01*
X908342Y432953D01*
X908322Y433001D01*
X908311Y433052D01*
X908274Y433113D01*
X908246Y433179D01*
X908201Y433235D01*
X908185Y433263D01*
X908167Y433278D01*
X908141Y433310D01*
X841339Y500112D01*
X838735Y502716D01*
X838735Y1150101D01*
X838721Y1150191D01*
X838713Y1150282D01*
X838701Y1150312D01*
X838696Y1150344D01*
X838653Y1150424D01*
X838617Y1150508D01*
X838591Y1150540D01*
X838580Y1150561D01*
X838557Y1150583D01*
X838512Y1150639D01*
X828639Y1160512D01*
X828565Y1160565D01*
X828496Y1160625D01*
X828466Y1160637D01*
X828440Y1160656D01*
X828353Y1160683D01*
X828268Y1160717D01*
X828227Y1160721D01*
X828204Y1160728D01*
X828172Y1160727D01*
X828101Y1160735D01*
X813354Y1160735D01*
X813239Y1160717D01*
X813123Y1160699D01*
X813117Y1160697D01*
X813111Y1160696D01*
X813008Y1160641D01*
X812904Y1160588D01*
X812899Y1160583D01*
X812894Y1160580D01*
X812813Y1160495D01*
X812731Y1160412D01*
X812728Y1160406D01*
X812724Y1160402D01*
X812717Y1160385D01*
X812651Y1160265D01*
X812398Y1159656D01*
X809844Y1157102D01*
X806506Y1155719D01*
X802894Y1155719D01*
X799556Y1157102D01*
X797002Y1159656D01*
X795619Y1162994D01*
X795619Y1166606D01*
X797002Y1169944D01*
X799556Y1172498D01*
X802894Y1173881D01*
X806506Y1173881D01*
X809844Y1172498D01*
X812398Y1169944D01*
X812651Y1169335D01*
X812712Y1169235D01*
X812772Y1169135D01*
X812777Y1169131D01*
X812780Y1169126D01*
X812870Y1169051D01*
X812959Y1168975D01*
X812965Y1168973D01*
X812970Y1168969D01*
X813078Y1168927D01*
X813187Y1168883D01*
X813195Y1168882D01*
X813199Y1168881D01*
X813218Y1168880D01*
X813354Y1168865D01*
X831784Y1168865D01*
X846865Y1153784D01*
X846865Y506399D01*
X846866Y506389D01*
X846866Y506385D01*
X846871Y506360D01*
X846879Y506309D01*
X846887Y506218D01*
X846899Y506188D01*
X846904Y506156D01*
X846947Y506076D01*
X846983Y505992D01*
X847009Y505960D01*
X847020Y505939D01*
X847043Y505917D01*
X847088Y505861D01*
X850136Y502813D01*
X850194Y502771D01*
X850246Y502721D01*
X850293Y502699D01*
X850335Y502669D01*
X850404Y502648D01*
X850469Y502618D01*
X850521Y502612D01*
X850571Y502597D01*
X850642Y502599D01*
X850713Y502591D01*
X850764Y502602D01*
X850816Y502603D01*
X850884Y502628D01*
X850954Y502643D01*
X850998Y502670D01*
X851047Y502688D01*
X851103Y502732D01*
X851165Y502769D01*
X851199Y502809D01*
X851239Y502841D01*
X851278Y502902D01*
X851325Y502956D01*
X851344Y503004D01*
X851372Y503048D01*
X851390Y503118D01*
X851417Y503184D01*
X851425Y503256D01*
X851433Y503287D01*
X851431Y503310D01*
X851435Y503351D01*
X851435Y1213601D01*
X851421Y1213691D01*
X851413Y1213782D01*
X851401Y1213812D01*
X851396Y1213844D01*
X851353Y1213924D01*
X851317Y1214008D01*
X851291Y1214040D01*
X851280Y1214061D01*
X851257Y1214083D01*
X851234Y1214113D01*
X851232Y1214116D01*
X851229Y1214118D01*
X851212Y1214139D01*
X841339Y1224012D01*
X841265Y1224065D01*
X841196Y1224125D01*
X841166Y1224137D01*
X841140Y1224156D01*
X841053Y1224183D01*
X840968Y1224217D01*
X840927Y1224221D01*
X840904Y1224228D01*
X840872Y1224227D01*
X840801Y1224235D01*
X810745Y1224235D01*
X810674Y1224224D01*
X810602Y1224222D01*
X810553Y1224204D01*
X810502Y1224196D01*
X810439Y1224162D01*
X810371Y1224137D01*
X810331Y1224105D01*
X810285Y1224080D01*
X810235Y1224028D01*
X810179Y1223984D01*
X810151Y1223940D01*
X810115Y1223902D01*
X810085Y1223837D01*
X810046Y1223777D01*
X810033Y1223726D01*
X810012Y1223679D01*
X810004Y1223608D01*
X809986Y1223538D01*
X809990Y1223486D01*
X809984Y1223435D01*
X810000Y1223364D01*
X810005Y1223293D01*
X810026Y1223245D01*
X810037Y1223194D01*
X810073Y1223133D01*
X810102Y1223067D01*
X810146Y1223011D01*
X810163Y1222983D01*
X810181Y1222968D01*
X810206Y1222936D01*
X812398Y1220744D01*
X813781Y1217406D01*
X813781Y1213794D01*
X812398Y1210456D01*
X809844Y1207902D01*
X806506Y1206519D01*
X802894Y1206519D01*
X799556Y1207902D01*
X797002Y1210456D01*
X795619Y1213794D01*
X795619Y1217406D01*
X797002Y1220744D01*
X799194Y1222936D01*
X799235Y1222994D01*
X799285Y1223046D01*
X799307Y1223093D01*
X799337Y1223135D01*
X799358Y1223204D01*
X799388Y1223269D01*
X799394Y1223321D01*
X799410Y1223371D01*
X799408Y1223442D01*
X799416Y1223513D01*
X799405Y1223564D01*
X799403Y1223616D01*
X799379Y1223684D01*
X799363Y1223754D01*
X799337Y1223799D01*
X799319Y1223847D01*
X799274Y1223903D01*
X799237Y1223965D01*
X799198Y1223999D01*
X799165Y1224039D01*
X799105Y1224078D01*
X799050Y1224125D01*
X799002Y1224144D01*
X798958Y1224172D01*
X798889Y1224190D01*
X798822Y1224217D01*
X798751Y1224225D01*
X798720Y1224233D01*
X798696Y1224231D01*
X798655Y1224235D01*
X790316Y1224235D01*
X775235Y1239316D01*
X775235Y1255384D01*
X790316Y1270465D01*
X796046Y1270465D01*
X796161Y1270483D01*
X796277Y1270501D01*
X796283Y1270503D01*
X796289Y1270504D01*
X796392Y1270559D01*
X796496Y1270612D01*
X796501Y1270617D01*
X796506Y1270620D01*
X796587Y1270705D01*
X796669Y1270788D01*
X796672Y1270794D01*
X796676Y1270798D01*
X796683Y1270815D01*
X796749Y1270935D01*
X797002Y1271544D01*
X799556Y1274098D01*
X802894Y1275481D01*
X806506Y1275481D01*
X809844Y1274098D01*
X812398Y1271544D01*
X813781Y1268206D01*
X813781Y1264594D01*
X812398Y1261256D01*
X809844Y1258702D01*
X806506Y1257319D01*
X802894Y1257319D01*
X799556Y1258702D01*
X797002Y1261256D01*
X796749Y1261865D01*
X796688Y1261965D01*
X796628Y1262065D01*
X796623Y1262069D01*
X796620Y1262074D01*
X796530Y1262149D01*
X796441Y1262225D01*
X796435Y1262227D01*
X796430Y1262231D01*
X796322Y1262273D01*
X796213Y1262317D01*
X796205Y1262318D01*
X796201Y1262319D01*
X796182Y1262320D01*
X796046Y1262335D01*
X793999Y1262335D01*
X793909Y1262321D01*
X793818Y1262313D01*
X793788Y1262301D01*
X793756Y1262296D01*
X793676Y1262253D01*
X793592Y1262217D01*
X793560Y1262191D01*
X793539Y1262180D01*
X793517Y1262157D01*
X793461Y1262112D01*
X783588Y1252239D01*
X783535Y1252165D01*
X783475Y1252096D01*
X783463Y1252066D01*
X783444Y1252040D01*
X783417Y1251953D01*
X783396Y1251900D01*
X783393Y1251893D01*
X783393Y1251891D01*
X783383Y1251868D01*
X783379Y1251827D01*
X783372Y1251804D01*
X783373Y1251772D01*
X783365Y1251701D01*
X783365Y1242999D01*
X783379Y1242909D01*
X783387Y1242818D01*
X783399Y1242788D01*
X783404Y1242756D01*
X783447Y1242676D01*
X783483Y1242592D01*
X783509Y1242560D01*
X783520Y1242539D01*
X783543Y1242517D01*
X783588Y1242461D01*
X793461Y1232588D01*
X793535Y1232535D01*
X793604Y1232475D01*
X793634Y1232463D01*
X793660Y1232444D01*
X793747Y1232417D01*
X793832Y1232383D01*
X793873Y1232379D01*
X793896Y1232372D01*
X793928Y1232373D01*
X793999Y1232365D01*
X798655Y1232365D01*
X798726Y1232376D01*
X798798Y1232378D01*
X798847Y1232396D01*
X798898Y1232404D01*
X798961Y1232438D01*
X799029Y1232463D01*
X799069Y1232495D01*
X799115Y1232520D01*
X799165Y1232572D01*
X799221Y1232616D01*
X799249Y1232660D01*
X799285Y1232698D01*
X799315Y1232763D01*
X799354Y1232823D01*
X799367Y1232874D01*
X799388Y1232921D01*
X799396Y1232992D01*
X799414Y1233062D01*
X799410Y1233114D01*
X799416Y1233165D01*
X799400Y1233236D01*
X799395Y1233307D01*
X799374Y1233355D01*
X799363Y1233406D01*
X799327Y1233467D01*
X799298Y1233533D01*
X799254Y1233589D01*
X799237Y1233617D01*
X799219Y1233632D01*
X799194Y1233664D01*
X797002Y1235856D01*
X795619Y1239194D01*
X795619Y1242806D01*
X797002Y1246144D01*
X799556Y1248698D01*
X802894Y1250081D01*
X806506Y1250081D01*
X809844Y1248698D01*
X812398Y1246144D01*
X812651Y1245535D01*
X812712Y1245435D01*
X812772Y1245335D01*
X812777Y1245331D01*
X812780Y1245326D01*
X812870Y1245251D01*
X812959Y1245175D01*
X812965Y1245173D01*
X812970Y1245169D01*
X813078Y1245127D01*
X813187Y1245083D01*
X813195Y1245082D01*
X813199Y1245081D01*
X813218Y1245080D01*
X813354Y1245065D01*
X857184Y1245065D01*
X872265Y1229984D01*
X872265Y506399D01*
X872266Y506389D01*
X872266Y506385D01*
X872271Y506360D01*
X872279Y506309D01*
X872287Y506218D01*
X872299Y506188D01*
X872304Y506156D01*
X872347Y506076D01*
X872383Y505992D01*
X872409Y505960D01*
X872420Y505939D01*
X872443Y505917D01*
X872488Y505861D01*
X1050065Y328284D01*
X1050065Y217492D01*
X1050079Y217402D01*
X1050087Y217311D01*
X1050099Y217282D01*
X1050104Y217250D01*
X1050147Y217169D01*
X1050183Y217085D01*
X1050209Y217053D01*
X1050220Y217032D01*
X1050243Y217010D01*
X1050288Y216954D01*
X1051360Y215882D01*
X1052323Y213558D01*
X1052323Y211042D01*
X1051360Y208718D01*
X1049582Y206940D01*
X1048890Y206653D01*
X1048829Y206616D01*
X1048763Y206586D01*
X1048725Y206551D01*
X1048681Y206524D01*
X1048635Y206468D01*
X1048582Y206420D01*
X1048557Y206374D01*
X1048524Y206334D01*
X1048498Y206267D01*
X1048464Y206204D01*
X1048454Y206153D01*
X1048436Y206105D01*
X1048433Y206033D01*
X1048420Y205962D01*
X1048427Y205911D01*
X1048425Y205859D01*
X1048445Y205790D01*
X1048456Y205719D01*
X1048479Y205673D01*
X1048494Y205623D01*
X1048535Y205564D01*
X1048567Y205500D01*
X1048604Y205463D01*
X1048634Y205421D01*
X1048692Y205378D01*
X1048743Y205328D01*
X1048806Y205293D01*
X1048831Y205274D01*
X1048854Y205267D01*
X1048890Y205247D01*
X1049582Y204960D01*
X1051360Y203182D01*
X1052323Y200858D01*
X1052323Y198342D01*
X1051360Y196018D01*
X1049582Y194240D01*
X1048890Y193953D01*
X1048829Y193916D01*
X1048763Y193886D01*
X1048725Y193851D01*
X1048681Y193824D01*
X1048635Y193769D01*
X1048582Y193720D01*
X1048557Y193674D01*
X1048524Y193634D01*
X1048498Y193567D01*
X1048464Y193504D01*
X1048454Y193453D01*
X1048436Y193405D01*
X1048433Y193333D01*
X1048420Y193262D01*
X1048427Y193211D01*
X1048425Y193159D01*
X1048445Y193090D01*
X1048456Y193019D01*
X1048479Y192973D01*
X1048494Y192923D01*
X1048535Y192864D01*
X1048567Y192800D01*
X1048604Y192763D01*
X1048634Y192721D01*
X1048692Y192678D01*
X1048743Y192628D01*
X1048806Y192593D01*
X1048831Y192574D01*
X1048854Y192567D01*
X1048890Y192547D01*
X1049582Y192260D01*
X1051360Y190482D01*
X1052323Y188158D01*
X1052323Y185642D01*
X1051360Y183318D01*
X1049582Y181540D01*
X1047258Y180577D01*
X1046850Y180577D01*
X1046779Y180566D01*
X1046707Y180564D01*
X1046658Y180546D01*
X1046607Y180538D01*
X1046544Y180504D01*
X1046476Y180479D01*
X1046436Y180447D01*
X1046390Y180422D01*
X1046340Y180370D01*
X1046284Y180326D01*
X1046256Y180282D01*
X1046220Y180244D01*
X1046190Y180179D01*
X1046151Y180119D01*
X1046139Y180068D01*
X1046117Y180021D01*
X1046109Y179950D01*
X1046091Y179880D01*
X1046095Y179828D01*
X1046090Y179777D01*
X1046105Y179706D01*
X1046110Y179635D01*
X1046131Y179587D01*
X1046142Y179536D01*
X1046179Y179475D01*
X1046207Y179409D01*
X1046251Y179353D01*
X1046268Y179325D01*
X1046286Y179310D01*
X1046311Y179278D01*
X1047356Y178234D01*
X1047430Y178181D01*
X1047499Y178121D01*
X1047529Y178109D01*
X1047555Y178090D01*
X1047642Y178063D01*
X1047727Y178029D01*
X1047768Y178025D01*
X1047790Y178018D01*
X1047823Y178019D01*
X1047894Y178011D01*
X1078654Y178011D01*
X1078744Y178025D01*
X1078835Y178033D01*
X1078864Y178045D01*
X1078896Y178050D01*
X1078977Y178093D01*
X1079061Y178129D01*
X1079093Y178155D01*
X1079114Y178166D01*
X1079136Y178189D01*
X1079192Y178234D01*
X1080518Y179560D01*
X1082842Y180523D01*
X1085358Y180523D01*
X1087682Y179560D01*
X1089460Y177782D01*
X1090423Y175458D01*
X1090423Y172942D01*
X1089460Y170618D01*
X1087682Y168840D01*
X1085358Y167877D01*
X1082842Y167877D01*
G37*
%LPD*%
%LPC*%
G36*
X678478Y68789D02*
X678478Y68789D01*
X672877Y71110D01*
X672720Y71266D01*
X672646Y71319D01*
X672577Y71379D01*
X672546Y71391D01*
X672520Y71410D01*
X672433Y71437D01*
X672348Y71471D01*
X672308Y71475D01*
X672285Y71482D01*
X672253Y71481D01*
X672182Y71489D01*
X670458Y71489D01*
X668969Y72978D01*
X668969Y74702D01*
X668955Y74792D01*
X668947Y74883D01*
X668935Y74913D01*
X668930Y74945D01*
X668887Y75025D01*
X668851Y75109D01*
X668825Y75141D01*
X668814Y75162D01*
X668791Y75184D01*
X668746Y75240D01*
X668590Y75397D01*
X666269Y80998D01*
X666269Y87062D01*
X668590Y92663D01*
X668746Y92820D01*
X668799Y92894D01*
X668859Y92963D01*
X668871Y92994D01*
X668890Y93020D01*
X668917Y93107D01*
X668951Y93192D01*
X668955Y93232D01*
X668962Y93255D01*
X668961Y93287D01*
X668969Y93358D01*
X668969Y95082D01*
X670458Y96571D01*
X672182Y96571D01*
X672272Y96585D01*
X672363Y96593D01*
X672393Y96605D01*
X672425Y96610D01*
X672505Y96653D01*
X672589Y96689D01*
X672621Y96715D01*
X672642Y96726D01*
X672664Y96749D01*
X672720Y96794D01*
X699042Y123116D01*
X699084Y123174D01*
X699133Y123226D01*
X699155Y123273D01*
X699186Y123315D01*
X699207Y123384D01*
X699237Y123449D01*
X699243Y123501D01*
X699258Y123551D01*
X699256Y123622D01*
X699264Y123693D01*
X699253Y123744D01*
X699252Y123796D01*
X699227Y123864D01*
X699212Y123934D01*
X699185Y123979D01*
X699167Y124027D01*
X699122Y124083D01*
X699086Y124145D01*
X699046Y124179D01*
X699013Y124219D01*
X698953Y124258D01*
X698899Y124305D01*
X698850Y124324D01*
X698807Y124352D01*
X698737Y124370D01*
X698671Y124397D01*
X698599Y124405D01*
X698568Y124413D01*
X698545Y124411D01*
X698504Y124415D01*
X579151Y124415D01*
X579061Y124401D01*
X578970Y124393D01*
X578940Y124381D01*
X578908Y124376D01*
X578828Y124333D01*
X578744Y124297D01*
X578712Y124271D01*
X578691Y124260D01*
X578669Y124237D01*
X578613Y124192D01*
X541874Y87453D01*
X541821Y87379D01*
X541761Y87310D01*
X541749Y87280D01*
X541730Y87253D01*
X541703Y87166D01*
X541669Y87082D01*
X541665Y87041D01*
X541658Y87018D01*
X541659Y86986D01*
X541651Y86915D01*
X541651Y72978D01*
X540162Y71489D01*
X518058Y71489D01*
X516569Y72978D01*
X516569Y95082D01*
X518058Y96571D01*
X531995Y96571D01*
X532085Y96585D01*
X532176Y96593D01*
X532206Y96605D01*
X532238Y96610D01*
X532318Y96653D01*
X532402Y96689D01*
X532434Y96715D01*
X532455Y96726D01*
X532477Y96749D01*
X532533Y96794D01*
X572359Y136619D01*
X574786Y137625D01*
X712498Y137625D01*
X712518Y137628D01*
X712537Y137626D01*
X712639Y137648D01*
X712741Y137664D01*
X712758Y137674D01*
X712778Y137678D01*
X712867Y137731D01*
X712958Y137780D01*
X712972Y137794D01*
X712989Y137804D01*
X713056Y137883D01*
X713128Y137958D01*
X713136Y137976D01*
X713149Y137991D01*
X713188Y138087D01*
X713231Y138181D01*
X713233Y138201D01*
X713241Y138219D01*
X713259Y138386D01*
X713259Y256472D01*
X713245Y256562D01*
X713237Y256653D01*
X713225Y256683D01*
X713220Y256715D01*
X713177Y256795D01*
X713141Y256879D01*
X713115Y256911D01*
X713104Y256932D01*
X713081Y256954D01*
X713036Y257010D01*
X695780Y274267D01*
X693459Y279868D01*
X693459Y304019D01*
X693445Y304109D01*
X693437Y304200D01*
X693425Y304230D01*
X693420Y304262D01*
X693377Y304342D01*
X693341Y304426D01*
X693315Y304459D01*
X693304Y304479D01*
X693281Y304501D01*
X693236Y304557D01*
X691159Y306634D01*
X691159Y320136D01*
X691145Y320226D01*
X691137Y320317D01*
X691125Y320347D01*
X691120Y320379D01*
X691077Y320460D01*
X691041Y320544D01*
X691015Y320576D01*
X691004Y320596D01*
X690981Y320619D01*
X690936Y320674D01*
X676344Y335266D01*
X676271Y335319D01*
X676201Y335379D01*
X676171Y335391D01*
X676145Y335410D01*
X676058Y335437D01*
X675973Y335471D01*
X675932Y335475D01*
X675910Y335482D01*
X675877Y335481D01*
X675806Y335489D01*
X658902Y335489D01*
X658882Y335486D01*
X658863Y335488D01*
X658761Y335466D01*
X658659Y335450D01*
X658642Y335440D01*
X658622Y335436D01*
X658533Y335383D01*
X658442Y335334D01*
X658428Y335320D01*
X658411Y335310D01*
X658344Y335231D01*
X658272Y335156D01*
X658264Y335138D01*
X658251Y335123D01*
X658212Y335027D01*
X658169Y334933D01*
X658167Y334913D01*
X658159Y334895D01*
X658141Y334728D01*
X658141Y330748D01*
X656652Y329259D01*
X641548Y329259D01*
X640138Y330669D01*
X640122Y330680D01*
X640110Y330696D01*
X640022Y330752D01*
X639939Y330812D01*
X639920Y330818D01*
X639903Y330829D01*
X639802Y330854D01*
X639703Y330884D01*
X639684Y330884D01*
X639664Y330889D01*
X639561Y330881D01*
X639458Y330878D01*
X639439Y330871D01*
X639419Y330870D01*
X639324Y330829D01*
X639227Y330794D01*
X639211Y330781D01*
X639193Y330773D01*
X639062Y330669D01*
X637652Y329259D01*
X634672Y329259D01*
X634652Y329256D01*
X634633Y329258D01*
X634531Y329236D01*
X634429Y329220D01*
X634412Y329210D01*
X634392Y329206D01*
X634303Y329153D01*
X634212Y329104D01*
X634198Y329090D01*
X634181Y329080D01*
X634114Y329001D01*
X634042Y328926D01*
X634034Y328908D01*
X634021Y328893D01*
X633982Y328797D01*
X633939Y328703D01*
X633937Y328683D01*
X633929Y328665D01*
X633911Y328498D01*
X633911Y324702D01*
X633914Y324682D01*
X633912Y324663D01*
X633934Y324561D01*
X633950Y324459D01*
X633960Y324442D01*
X633964Y324422D01*
X634017Y324333D01*
X634066Y324242D01*
X634080Y324228D01*
X634090Y324211D01*
X634169Y324144D01*
X634244Y324072D01*
X634262Y324064D01*
X634277Y324051D01*
X634373Y324012D01*
X634467Y323969D01*
X634487Y323967D01*
X634505Y323959D01*
X634672Y323941D01*
X637652Y323941D01*
X639158Y322436D01*
X639253Y322367D01*
X639350Y322296D01*
X639354Y322294D01*
X639357Y322292D01*
X639470Y322257D01*
X639584Y322221D01*
X639588Y322221D01*
X639592Y322220D01*
X639711Y322223D01*
X639830Y322225D01*
X639834Y322226D01*
X639838Y322226D01*
X639950Y322267D01*
X640062Y322306D01*
X640065Y322309D01*
X640069Y322310D01*
X640163Y322385D01*
X640256Y322458D01*
X640259Y322462D01*
X640261Y322464D01*
X640269Y322476D01*
X640355Y322593D01*
X640567Y322960D01*
X641040Y323433D01*
X641619Y323768D01*
X642266Y323941D01*
X647577Y323941D01*
X647577Y314662D01*
X647580Y314642D01*
X647578Y314623D01*
X647600Y314521D01*
X647617Y314419D01*
X647626Y314402D01*
X647630Y314382D01*
X647683Y314293D01*
X647732Y314202D01*
X647746Y314188D01*
X647756Y314171D01*
X647835Y314104D01*
X647910Y314033D01*
X647928Y314024D01*
X647943Y314011D01*
X648039Y313972D01*
X648133Y313929D01*
X648153Y313927D01*
X648171Y313919D01*
X648338Y313901D01*
X649101Y313901D01*
X649101Y313899D01*
X648338Y313899D01*
X648318Y313896D01*
X648299Y313898D01*
X648197Y313876D01*
X648095Y313859D01*
X648078Y313850D01*
X648058Y313846D01*
X647969Y313793D01*
X647878Y313744D01*
X647864Y313730D01*
X647847Y313720D01*
X647780Y313641D01*
X647709Y313566D01*
X647700Y313548D01*
X647687Y313533D01*
X647648Y313437D01*
X647605Y313343D01*
X647603Y313323D01*
X647595Y313305D01*
X647577Y313138D01*
X647577Y303859D01*
X642266Y303859D01*
X641619Y304032D01*
X641040Y304367D01*
X640567Y304840D01*
X640355Y305207D01*
X640279Y305299D01*
X640206Y305392D01*
X640202Y305394D01*
X640199Y305397D01*
X640098Y305461D01*
X639999Y305525D01*
X639995Y305526D01*
X639991Y305528D01*
X639875Y305556D01*
X639760Y305585D01*
X639756Y305584D01*
X639752Y305585D01*
X639633Y305575D01*
X639515Y305566D01*
X639511Y305564D01*
X639507Y305564D01*
X639397Y305516D01*
X639289Y305469D01*
X639285Y305466D01*
X639282Y305465D01*
X639271Y305455D01*
X639158Y305364D01*
X637652Y303859D01*
X622548Y303859D01*
X621059Y305348D01*
X621059Y322452D01*
X622548Y323941D01*
X625528Y323941D01*
X625548Y323944D01*
X625567Y323942D01*
X625669Y323964D01*
X625771Y323980D01*
X625788Y323990D01*
X625808Y323994D01*
X625897Y324047D01*
X625988Y324096D01*
X626002Y324110D01*
X626019Y324120D01*
X626086Y324199D01*
X626158Y324274D01*
X626166Y324292D01*
X626179Y324307D01*
X626218Y324403D01*
X626261Y324497D01*
X626263Y324517D01*
X626271Y324535D01*
X626289Y324702D01*
X626289Y328498D01*
X626286Y328518D01*
X626288Y328537D01*
X626266Y328639D01*
X626250Y328741D01*
X626240Y328758D01*
X626236Y328778D01*
X626183Y328867D01*
X626134Y328958D01*
X626120Y328972D01*
X626110Y328989D01*
X626031Y329056D01*
X625956Y329128D01*
X625938Y329136D01*
X625923Y329149D01*
X625827Y329188D01*
X625733Y329231D01*
X625713Y329233D01*
X625695Y329241D01*
X625528Y329259D01*
X622548Y329259D01*
X621059Y330748D01*
X621059Y342636D01*
X621045Y342726D01*
X621037Y342817D01*
X621025Y342847D01*
X621020Y342879D01*
X620977Y342960D01*
X620941Y343044D01*
X620915Y343076D01*
X620904Y343096D01*
X620881Y343119D01*
X620836Y343174D01*
X610389Y353622D01*
X610389Y1026678D01*
X643412Y1059701D01*
X643479Y1059795D01*
X643550Y1059890D01*
X643552Y1059896D01*
X643555Y1059901D01*
X643589Y1060012D01*
X643626Y1060124D01*
X643626Y1060130D01*
X643628Y1060136D01*
X643625Y1060253D01*
X643624Y1060369D01*
X643621Y1060377D01*
X643621Y1060382D01*
X643615Y1060399D01*
X643577Y1060531D01*
X643219Y1061394D01*
X643219Y1065006D01*
X644602Y1068344D01*
X647156Y1070898D01*
X650494Y1072281D01*
X654106Y1072281D01*
X657444Y1070898D01*
X659998Y1068344D01*
X661381Y1065006D01*
X661381Y1061394D01*
X659998Y1058056D01*
X657444Y1055502D01*
X654106Y1054119D01*
X650494Y1054119D01*
X649631Y1054477D01*
X649565Y1054492D01*
X649532Y1054506D01*
X649490Y1054510D01*
X649403Y1054532D01*
X649397Y1054532D01*
X649391Y1054533D01*
X649275Y1054522D01*
X649158Y1054513D01*
X649153Y1054510D01*
X649146Y1054510D01*
X649090Y1054485D01*
X649086Y1054484D01*
X649070Y1054476D01*
X649039Y1054462D01*
X648932Y1054417D01*
X648926Y1054412D01*
X648922Y1054410D01*
X648908Y1054397D01*
X648881Y1054376D01*
X648868Y1054369D01*
X648855Y1054355D01*
X648801Y1054312D01*
X618234Y1023744D01*
X618181Y1023671D01*
X618121Y1023601D01*
X618109Y1023571D01*
X618090Y1023545D01*
X618063Y1023458D01*
X618029Y1023373D01*
X618025Y1023332D01*
X618018Y1023310D01*
X618019Y1023277D01*
X618011Y1023206D01*
X618011Y357094D01*
X618025Y357004D01*
X618033Y356913D01*
X618045Y356883D01*
X618050Y356851D01*
X618093Y356770D01*
X618129Y356686D01*
X618155Y356654D01*
X618166Y356634D01*
X618189Y356611D01*
X618234Y356556D01*
X625226Y349564D01*
X625299Y349511D01*
X625369Y349451D01*
X625399Y349439D01*
X625425Y349420D01*
X625512Y349393D01*
X625597Y349359D01*
X625638Y349355D01*
X625660Y349348D01*
X625693Y349349D01*
X625764Y349341D01*
X637652Y349341D01*
X639062Y347931D01*
X639078Y347920D01*
X639090Y347904D01*
X639178Y347848D01*
X639261Y347788D01*
X639280Y347782D01*
X639297Y347771D01*
X639398Y347746D01*
X639497Y347716D01*
X639516Y347716D01*
X639536Y347711D01*
X639639Y347719D01*
X639742Y347722D01*
X639761Y347729D01*
X639781Y347730D01*
X639876Y347771D01*
X639973Y347806D01*
X639989Y347819D01*
X640007Y347827D01*
X640138Y347931D01*
X641548Y349341D01*
X656652Y349341D01*
X658141Y347852D01*
X658141Y343872D01*
X658144Y343852D01*
X658142Y343833D01*
X658164Y343731D01*
X658180Y343629D01*
X658190Y343612D01*
X658194Y343592D01*
X658247Y343503D01*
X658296Y343412D01*
X658310Y343398D01*
X658320Y343381D01*
X658399Y343314D01*
X658474Y343242D01*
X658492Y343234D01*
X658507Y343221D01*
X658603Y343182D01*
X658697Y343139D01*
X658717Y343137D01*
X658735Y343129D01*
X658902Y343111D01*
X679278Y343111D01*
X695653Y326736D01*
X695669Y326724D01*
X695682Y326709D01*
X695769Y326653D01*
X695853Y326593D01*
X695872Y326587D01*
X695889Y326576D01*
X695989Y326551D01*
X696088Y326520D01*
X696108Y326521D01*
X696127Y326516D01*
X696230Y326524D01*
X696334Y326527D01*
X696353Y326533D01*
X696372Y326535D01*
X696467Y326575D01*
X696565Y326611D01*
X696581Y326623D01*
X696599Y326631D01*
X696730Y326736D01*
X700988Y330995D01*
X701000Y331011D01*
X701015Y331023D01*
X701072Y331111D01*
X701132Y331194D01*
X701138Y331213D01*
X701148Y331230D01*
X701174Y331331D01*
X701204Y331429D01*
X701204Y331449D01*
X701209Y331469D01*
X701201Y331572D01*
X701198Y331675D01*
X701191Y331694D01*
X701189Y331714D01*
X701149Y331809D01*
X701113Y331906D01*
X701101Y331922D01*
X701093Y331940D01*
X700988Y332071D01*
X621301Y411759D01*
X620295Y414186D01*
X620295Y950214D01*
X621301Y952641D01*
X635859Y967199D01*
X638286Y968205D01*
X645747Y968205D01*
X645837Y968219D01*
X645928Y968227D01*
X645958Y968239D01*
X645990Y968244D01*
X646071Y968287D01*
X646155Y968323D01*
X646187Y968349D01*
X646207Y968360D01*
X646230Y968383D01*
X646286Y968428D01*
X647156Y969298D01*
X650494Y970681D01*
X654106Y970681D01*
X657444Y969298D01*
X659998Y966744D01*
X661381Y963406D01*
X661381Y959794D01*
X659998Y956456D01*
X658807Y955265D01*
X658780Y955227D01*
X658746Y955196D01*
X658708Y955128D01*
X658663Y955065D01*
X658650Y955021D01*
X658627Y954981D01*
X658614Y954904D01*
X658591Y954830D01*
X658592Y954784D01*
X658584Y954739D01*
X658595Y954662D01*
X658597Y954584D01*
X658613Y954541D01*
X658620Y954495D01*
X658655Y954426D01*
X658682Y954353D01*
X658710Y954317D01*
X658731Y954276D01*
X658787Y954222D01*
X658835Y954161D01*
X658874Y954136D01*
X658907Y954104D01*
X659026Y954038D01*
X659042Y954028D01*
X659047Y954027D01*
X659054Y954023D01*
X663091Y952350D01*
X668450Y946991D01*
X671351Y939989D01*
X671351Y932411D01*
X668450Y925409D01*
X663091Y920050D01*
X656089Y917149D01*
X654763Y917149D01*
X654700Y917139D01*
X654636Y917139D01*
X654579Y917119D01*
X654520Y917110D01*
X654464Y917080D01*
X654403Y917059D01*
X654356Y917022D01*
X654303Y916994D01*
X654259Y916948D01*
X654208Y916909D01*
X654175Y916860D01*
X654133Y916816D01*
X654107Y916758D01*
X654071Y916705D01*
X654055Y916647D01*
X654030Y916593D01*
X654023Y916530D01*
X654006Y916468D01*
X654009Y916408D01*
X654003Y916349D01*
X654016Y916286D01*
X654020Y916222D01*
X654042Y916167D01*
X654055Y916108D01*
X654088Y916053D01*
X654112Y915994D01*
X654151Y915948D01*
X654181Y915897D01*
X654230Y915856D01*
X654271Y915807D01*
X654323Y915776D01*
X654368Y915737D01*
X654427Y915713D01*
X654482Y915680D01*
X654566Y915658D01*
X654596Y915645D01*
X654621Y915643D01*
X654644Y915636D01*
X654679Y915631D01*
X656200Y915136D01*
X657625Y914410D01*
X658919Y913470D01*
X660050Y912339D01*
X660990Y911045D01*
X661716Y909620D01*
X662211Y908099D01*
X662461Y906520D01*
X662461Y899623D01*
X653062Y899623D01*
X653042Y899620D01*
X653023Y899622D01*
X652921Y899600D01*
X652819Y899583D01*
X652802Y899574D01*
X652782Y899570D01*
X652693Y899517D01*
X652602Y899468D01*
X652588Y899454D01*
X652571Y899444D01*
X652504Y899365D01*
X652433Y899290D01*
X652424Y899272D01*
X652411Y899257D01*
X652373Y899161D01*
X652329Y899067D01*
X652327Y899047D01*
X652319Y899029D01*
X652301Y898862D01*
X652301Y898099D01*
X652299Y898099D01*
X652299Y898862D01*
X652296Y898882D01*
X652298Y898901D01*
X652276Y899003D01*
X652259Y899105D01*
X652250Y899122D01*
X652246Y899142D01*
X652193Y899231D01*
X652144Y899322D01*
X652130Y899336D01*
X652120Y899353D01*
X652041Y899420D01*
X651966Y899491D01*
X651948Y899500D01*
X651933Y899513D01*
X651837Y899552D01*
X651743Y899595D01*
X651723Y899597D01*
X651705Y899605D01*
X651538Y899623D01*
X642139Y899623D01*
X642139Y906520D01*
X642389Y908099D01*
X642884Y909620D01*
X643610Y911045D01*
X644550Y912339D01*
X645681Y913470D01*
X646975Y914410D01*
X648400Y915136D01*
X649921Y915631D01*
X649956Y915636D01*
X650017Y915656D01*
X650080Y915667D01*
X650133Y915694D01*
X650190Y915713D01*
X650241Y915752D01*
X650297Y915782D01*
X650338Y915825D01*
X650386Y915861D01*
X650423Y915914D01*
X650467Y915960D01*
X650492Y916014D01*
X650526Y916064D01*
X650543Y916125D01*
X650570Y916183D01*
X650577Y916242D01*
X650593Y916300D01*
X650590Y916364D01*
X650597Y916427D01*
X650585Y916486D01*
X650582Y916546D01*
X650559Y916605D01*
X650545Y916668D01*
X650514Y916719D01*
X650493Y916775D01*
X650452Y916824D01*
X650419Y916879D01*
X650373Y916918D01*
X650335Y916964D01*
X650281Y916997D01*
X650232Y917039D01*
X650176Y917061D01*
X650125Y917093D01*
X650063Y917107D01*
X650004Y917131D01*
X649918Y917140D01*
X649886Y917148D01*
X649861Y917147D01*
X649837Y917149D01*
X648511Y917149D01*
X641509Y920050D01*
X636150Y925409D01*
X634969Y928258D01*
X634918Y928341D01*
X634872Y928427D01*
X634853Y928445D01*
X634840Y928467D01*
X634765Y928529D01*
X634694Y928596D01*
X634670Y928607D01*
X634650Y928624D01*
X634559Y928659D01*
X634471Y928700D01*
X634445Y928703D01*
X634421Y928712D01*
X634323Y928716D01*
X634227Y928727D01*
X634201Y928721D01*
X634175Y928723D01*
X634081Y928695D01*
X633986Y928675D01*
X633964Y928661D01*
X633939Y928654D01*
X633859Y928599D01*
X633775Y928549D01*
X633758Y928529D01*
X633737Y928514D01*
X633678Y928436D01*
X633615Y928362D01*
X633605Y928337D01*
X633590Y928316D01*
X633560Y928224D01*
X633523Y928133D01*
X633520Y928101D01*
X633514Y928083D01*
X633514Y928049D01*
X633505Y927967D01*
X633505Y418551D01*
X633519Y418461D01*
X633527Y418370D01*
X633539Y418340D01*
X633544Y418308D01*
X633587Y418228D01*
X633623Y418144D01*
X633649Y418112D01*
X633660Y418091D01*
X633683Y418069D01*
X633728Y418013D01*
X714299Y337441D01*
X715305Y335014D01*
X715305Y332202D01*
X715308Y332182D01*
X715306Y332163D01*
X715328Y332061D01*
X715344Y331959D01*
X715354Y331942D01*
X715358Y331922D01*
X715411Y331833D01*
X715460Y331742D01*
X715474Y331728D01*
X715484Y331711D01*
X715563Y331644D01*
X715638Y331572D01*
X715656Y331564D01*
X715671Y331551D01*
X715767Y331512D01*
X715861Y331469D01*
X715881Y331467D01*
X715899Y331459D01*
X715953Y331453D01*
X726241Y321166D01*
X726241Y306634D01*
X724164Y304557D01*
X724111Y304483D01*
X724051Y304414D01*
X724039Y304384D01*
X724020Y304358D01*
X723993Y304271D01*
X723959Y304186D01*
X723955Y304145D01*
X723948Y304123D01*
X723949Y304090D01*
X723941Y304019D01*
X723941Y289528D01*
X723955Y289438D01*
X723963Y289347D01*
X723975Y289317D01*
X723980Y289285D01*
X724023Y289205D01*
X724059Y289121D01*
X724085Y289089D01*
X724096Y289068D01*
X724119Y289046D01*
X724164Y288990D01*
X741420Y271733D01*
X743741Y266132D01*
X743741Y139402D01*
X743744Y139382D01*
X743742Y139363D01*
X743764Y139261D01*
X743780Y139159D01*
X743790Y139142D01*
X743794Y139122D01*
X743847Y139033D01*
X743896Y138942D01*
X743910Y138928D01*
X743920Y138911D01*
X743999Y138844D01*
X744074Y138772D01*
X744092Y138764D01*
X744107Y138751D01*
X744203Y138712D01*
X744297Y138669D01*
X744317Y138667D01*
X744335Y138659D01*
X744502Y138641D01*
X788436Y138641D01*
X791237Y137481D01*
X831924Y96794D01*
X831998Y96741D01*
X832067Y96681D01*
X832097Y96669D01*
X832123Y96650D01*
X832210Y96623D01*
X832295Y96589D01*
X832336Y96585D01*
X832358Y96578D01*
X832391Y96579D01*
X832462Y96571D01*
X844962Y96571D01*
X846451Y95082D01*
X846451Y72978D01*
X844962Y71489D01*
X822858Y71489D01*
X821369Y72978D01*
X821369Y85478D01*
X821368Y85488D01*
X821368Y85492D01*
X821363Y85516D01*
X821355Y85568D01*
X821347Y85659D01*
X821335Y85689D01*
X821330Y85721D01*
X821287Y85802D01*
X821251Y85885D01*
X821225Y85918D01*
X821214Y85938D01*
X821191Y85960D01*
X821146Y86016D01*
X783986Y123176D01*
X783912Y123229D01*
X783843Y123289D01*
X783813Y123301D01*
X783787Y123320D01*
X783700Y123347D01*
X783615Y123381D01*
X783574Y123385D01*
X783552Y123392D01*
X783519Y123391D01*
X783448Y123399D01*
X742348Y123399D01*
X742234Y123380D01*
X742118Y123363D01*
X742112Y123361D01*
X742106Y123360D01*
X742003Y123305D01*
X741898Y123252D01*
X741894Y123247D01*
X741888Y123244D01*
X741809Y123160D01*
X741726Y123076D01*
X741722Y123070D01*
X741719Y123066D01*
X741711Y123049D01*
X741645Y122929D01*
X741420Y122387D01*
X694274Y75240D01*
X694221Y75166D01*
X694161Y75097D01*
X694149Y75066D01*
X694130Y75040D01*
X694103Y74953D01*
X694069Y74868D01*
X694065Y74828D01*
X694058Y74805D01*
X694059Y74773D01*
X694051Y74702D01*
X694051Y72978D01*
X692562Y71489D01*
X690838Y71489D01*
X690748Y71475D01*
X690657Y71467D01*
X690627Y71455D01*
X690595Y71450D01*
X690515Y71407D01*
X690431Y71371D01*
X690399Y71345D01*
X690378Y71334D01*
X690356Y71311D01*
X690300Y71266D01*
X690143Y71110D01*
X684542Y68789D01*
X678478Y68789D01*
G37*
%LPD*%
%LPC*%
G36*
X466779Y-8061D02*
X466779Y-8061D01*
X463044Y-6514D01*
X460079Y-3549D01*
X427786Y28744D01*
X426239Y32479D01*
X426239Y125421D01*
X427786Y129156D01*
X430644Y132014D01*
X434379Y133561D01*
X438421Y133561D01*
X442156Y132014D01*
X445014Y129156D01*
X446561Y125421D01*
X446561Y39024D01*
X446575Y38934D01*
X446583Y38843D01*
X446595Y38813D01*
X446600Y38781D01*
X446620Y38745D01*
X446622Y38737D01*
X446643Y38700D01*
X446679Y38617D01*
X446705Y38585D01*
X446716Y38564D01*
X446737Y38544D01*
X446748Y38526D01*
X446761Y38514D01*
X446784Y38486D01*
X472786Y12484D01*
X472860Y12431D01*
X472929Y12371D01*
X472959Y12359D01*
X472986Y12340D01*
X473072Y12313D01*
X473157Y12279D01*
X473198Y12275D01*
X473221Y12268D01*
X473253Y12269D01*
X473324Y12261D01*
X945576Y12261D01*
X945666Y12275D01*
X945757Y12283D01*
X945787Y12295D01*
X945819Y12300D01*
X945899Y12343D01*
X945983Y12379D01*
X946015Y12405D01*
X946036Y12416D01*
X946058Y12439D01*
X946114Y12484D01*
X959416Y25786D01*
X959469Y25860D01*
X959529Y25929D01*
X959541Y25959D01*
X959560Y25986D01*
X959587Y26072D01*
X959621Y26157D01*
X959625Y26198D01*
X959632Y26221D01*
X959631Y26253D01*
X959639Y26324D01*
X959639Y112721D01*
X961186Y116456D01*
X964044Y119314D01*
X967779Y120861D01*
X971821Y120861D01*
X975556Y119314D01*
X978414Y116456D01*
X979961Y112721D01*
X979961Y19779D01*
X978414Y16044D01*
X975449Y13079D01*
X955856Y-6514D01*
X952121Y-8061D01*
X466779Y-8061D01*
G37*
%LPD*%
%LPC*%
G36*
X650494Y1206519D02*
X650494Y1206519D01*
X647156Y1207902D01*
X644602Y1210456D01*
X644244Y1211319D01*
X644182Y1211419D01*
X644123Y1211519D01*
X644118Y1211523D01*
X644115Y1211528D01*
X644024Y1211603D01*
X643936Y1211679D01*
X643930Y1211681D01*
X643925Y1211685D01*
X643817Y1211727D01*
X643708Y1211771D01*
X643700Y1211772D01*
X643695Y1211773D01*
X643677Y1211774D01*
X643541Y1211789D01*
X638022Y1211789D01*
X623089Y1226722D01*
X623089Y1572778D01*
X663422Y1613111D01*
X929806Y1613111D01*
X929896Y1613125D01*
X929987Y1613133D01*
X930017Y1613145D01*
X930049Y1613150D01*
X930130Y1613193D01*
X930214Y1613229D01*
X930246Y1613255D01*
X930266Y1613266D01*
X930288Y1613289D01*
X930345Y1613334D01*
X975954Y1658944D01*
X976007Y1659017D01*
X976067Y1659087D01*
X976079Y1659117D01*
X976098Y1659143D01*
X976125Y1659230D01*
X976159Y1659315D01*
X976163Y1659356D01*
X976170Y1659378D01*
X976169Y1659411D01*
X976177Y1659482D01*
X976177Y1661358D01*
X977140Y1663682D01*
X978918Y1665460D01*
X981242Y1666423D01*
X983758Y1666423D01*
X986082Y1665460D01*
X987860Y1663682D01*
X988147Y1662990D01*
X988184Y1662929D01*
X988214Y1662863D01*
X988249Y1662825D01*
X988276Y1662781D01*
X988331Y1662735D01*
X988380Y1662682D01*
X988426Y1662657D01*
X988466Y1662624D01*
X988533Y1662598D01*
X988596Y1662564D01*
X988647Y1662554D01*
X988695Y1662536D01*
X988767Y1662533D01*
X988838Y1662520D01*
X988889Y1662527D01*
X988941Y1662525D01*
X989010Y1662545D01*
X989081Y1662556D01*
X989127Y1662579D01*
X989177Y1662594D01*
X989236Y1662635D01*
X989300Y1662667D01*
X989337Y1662704D01*
X989379Y1662734D01*
X989422Y1662792D01*
X989472Y1662843D01*
X989507Y1662906D01*
X989526Y1662931D01*
X989533Y1662954D01*
X989553Y1662990D01*
X989840Y1663682D01*
X991618Y1665460D01*
X993942Y1666423D01*
X996458Y1666423D01*
X998782Y1665460D01*
X1000560Y1663682D01*
X1001523Y1661358D01*
X1001523Y1658842D01*
X1000560Y1656518D01*
X998782Y1654740D01*
X996458Y1653777D01*
X994582Y1653777D01*
X994492Y1653763D01*
X994401Y1653755D01*
X994371Y1653743D01*
X994339Y1653738D01*
X994258Y1653695D01*
X994174Y1653659D01*
X994142Y1653633D01*
X994122Y1653622D01*
X994099Y1653599D01*
X994044Y1653554D01*
X933278Y1592789D01*
X666894Y1592789D01*
X666804Y1592775D01*
X666713Y1592767D01*
X666683Y1592755D01*
X666651Y1592750D01*
X666570Y1592707D01*
X666486Y1592671D01*
X666454Y1592645D01*
X666434Y1592634D01*
X666411Y1592611D01*
X666355Y1592566D01*
X643634Y1569845D01*
X643581Y1569771D01*
X643521Y1569701D01*
X643509Y1569671D01*
X643490Y1569645D01*
X643463Y1569558D01*
X643429Y1569473D01*
X643425Y1569432D01*
X643418Y1569410D01*
X643419Y1569378D01*
X643411Y1569306D01*
X643411Y1395294D01*
X643425Y1395204D01*
X643433Y1395113D01*
X643445Y1395083D01*
X643450Y1395051D01*
X643493Y1394970D01*
X643529Y1394886D01*
X643555Y1394854D01*
X643566Y1394834D01*
X643589Y1394811D01*
X643634Y1394756D01*
X681511Y1356878D01*
X681511Y1252122D01*
X679056Y1249666D01*
X679055Y1249666D01*
X669034Y1239644D01*
X666578Y1237189D01*
X661059Y1237189D01*
X660944Y1237170D01*
X660828Y1237153D01*
X660823Y1237151D01*
X660816Y1237150D01*
X660714Y1237095D01*
X660609Y1237042D01*
X660604Y1237037D01*
X660599Y1237034D01*
X660519Y1236950D01*
X660437Y1236866D01*
X660433Y1236860D01*
X660430Y1236856D01*
X660422Y1236839D01*
X660356Y1236719D01*
X659998Y1235856D01*
X657444Y1233302D01*
X654106Y1231919D01*
X650494Y1231919D01*
X647156Y1233302D01*
X644602Y1235856D01*
X643219Y1239194D01*
X643219Y1242806D01*
X644602Y1246144D01*
X647156Y1248698D01*
X650494Y1250081D01*
X654106Y1250081D01*
X657444Y1248698D01*
X659998Y1246144D01*
X660356Y1245281D01*
X660418Y1245181D01*
X660477Y1245081D01*
X660482Y1245077D01*
X660485Y1245072D01*
X660576Y1244997D01*
X660664Y1244921D01*
X660670Y1244919D01*
X660675Y1244915D01*
X660783Y1244873D01*
X660892Y1244829D01*
X660900Y1244828D01*
X660905Y1244827D01*
X660923Y1244826D01*
X661059Y1244811D01*
X663106Y1244811D01*
X663196Y1244825D01*
X663287Y1244833D01*
X663317Y1244845D01*
X663349Y1244850D01*
X663430Y1244893D01*
X663514Y1244929D01*
X663546Y1244955D01*
X663566Y1244966D01*
X663589Y1244989D01*
X663590Y1244990D01*
X663592Y1244991D01*
X663594Y1244993D01*
X663644Y1245034D01*
X673666Y1255055D01*
X673719Y1255129D01*
X673779Y1255199D01*
X673791Y1255229D01*
X673810Y1255255D01*
X673837Y1255342D01*
X673871Y1255427D01*
X673875Y1255468D01*
X673882Y1255490D01*
X673881Y1255522D01*
X673889Y1255594D01*
X673889Y1353406D01*
X673875Y1353496D01*
X673867Y1353587D01*
X673855Y1353617D01*
X673850Y1353649D01*
X673807Y1353730D01*
X673771Y1353814D01*
X673745Y1353846D01*
X673734Y1353866D01*
X673711Y1353889D01*
X673666Y1353944D01*
X635789Y1391822D01*
X635789Y1572862D01*
X635778Y1572933D01*
X635776Y1573005D01*
X635758Y1573054D01*
X635750Y1573105D01*
X635716Y1573168D01*
X635691Y1573236D01*
X635659Y1573276D01*
X635634Y1573322D01*
X635582Y1573372D01*
X635538Y1573428D01*
X635494Y1573456D01*
X635456Y1573492D01*
X635391Y1573522D01*
X635331Y1573561D01*
X635280Y1573573D01*
X635233Y1573595D01*
X635162Y1573603D01*
X635092Y1573621D01*
X635040Y1573617D01*
X634989Y1573622D01*
X634918Y1573607D01*
X634847Y1573602D01*
X634799Y1573581D01*
X634748Y1573570D01*
X634687Y1573533D01*
X634621Y1573505D01*
X634565Y1573461D01*
X634537Y1573444D01*
X634522Y1573426D01*
X634490Y1573401D01*
X630934Y1569844D01*
X630881Y1569770D01*
X630821Y1569701D01*
X630809Y1569671D01*
X630790Y1569645D01*
X630763Y1569558D01*
X630729Y1569473D01*
X630725Y1569432D01*
X630718Y1569410D01*
X630719Y1569377D01*
X630711Y1569306D01*
X630711Y1230194D01*
X630725Y1230104D01*
X630733Y1230013D01*
X630745Y1229983D01*
X630750Y1229951D01*
X630793Y1229870D01*
X630829Y1229786D01*
X630855Y1229754D01*
X630866Y1229734D01*
X630889Y1229711D01*
X630934Y1229656D01*
X640956Y1219634D01*
X641029Y1219581D01*
X641099Y1219521D01*
X641129Y1219509D01*
X641155Y1219490D01*
X641242Y1219463D01*
X641327Y1219429D01*
X641368Y1219425D01*
X641390Y1219418D01*
X641423Y1219419D01*
X641494Y1219411D01*
X643541Y1219411D01*
X643656Y1219430D01*
X643772Y1219447D01*
X643777Y1219449D01*
X643784Y1219450D01*
X643886Y1219505D01*
X643991Y1219558D01*
X643996Y1219563D01*
X644001Y1219566D01*
X644081Y1219650D01*
X644163Y1219734D01*
X644167Y1219740D01*
X644170Y1219744D01*
X644178Y1219761D01*
X644244Y1219881D01*
X644602Y1220744D01*
X647156Y1223298D01*
X650494Y1224681D01*
X654106Y1224681D01*
X657444Y1223298D01*
X659998Y1220744D01*
X661381Y1217406D01*
X661381Y1213794D01*
X659998Y1210456D01*
X657444Y1207902D01*
X654106Y1206519D01*
X650494Y1206519D01*
G37*
%LPD*%
%LPC*%
G36*
X650494Y1079519D02*
X650494Y1079519D01*
X647156Y1080902D01*
X644602Y1083456D01*
X644244Y1084319D01*
X644182Y1084419D01*
X644123Y1084519D01*
X644118Y1084523D01*
X644115Y1084528D01*
X644024Y1084603D01*
X643936Y1084679D01*
X643930Y1084681D01*
X643925Y1084685D01*
X643817Y1084727D01*
X643708Y1084771D01*
X643700Y1084772D01*
X643695Y1084773D01*
X643677Y1084774D01*
X643541Y1084789D01*
X599922Y1084789D01*
X584989Y1099722D01*
X584989Y1569306D01*
X584975Y1569396D01*
X584967Y1569487D01*
X584955Y1569517D01*
X584950Y1569549D01*
X584907Y1569630D01*
X584871Y1569714D01*
X584845Y1569746D01*
X584834Y1569766D01*
X584811Y1569789D01*
X584766Y1569844D01*
X562044Y1592566D01*
X561971Y1592619D01*
X561901Y1592679D01*
X561871Y1592691D01*
X561845Y1592710D01*
X561758Y1592737D01*
X561673Y1592771D01*
X561632Y1592775D01*
X561610Y1592782D01*
X561577Y1592781D01*
X561506Y1592789D01*
X543446Y1592789D01*
X543356Y1592775D01*
X543265Y1592767D01*
X543236Y1592755D01*
X543204Y1592750D01*
X543123Y1592707D01*
X543039Y1592671D01*
X543007Y1592645D01*
X542986Y1592634D01*
X542964Y1592611D01*
X542908Y1592566D01*
X541582Y1591240D01*
X539258Y1590277D01*
X536742Y1590277D01*
X534418Y1591240D01*
X532640Y1593018D01*
X531677Y1595342D01*
X531677Y1597858D01*
X532640Y1600182D01*
X534418Y1601960D01*
X536742Y1602923D01*
X539258Y1602923D01*
X541582Y1601960D01*
X542908Y1600634D01*
X542982Y1600581D01*
X543051Y1600521D01*
X543082Y1600509D01*
X543108Y1600490D01*
X543195Y1600463D01*
X543280Y1600429D01*
X543321Y1600425D01*
X543343Y1600418D01*
X543375Y1600419D01*
X543446Y1600411D01*
X565062Y1600411D01*
X565133Y1600422D01*
X565205Y1600424D01*
X565254Y1600442D01*
X565305Y1600450D01*
X565368Y1600484D01*
X565436Y1600509D01*
X565476Y1600541D01*
X565522Y1600566D01*
X565572Y1600618D01*
X565628Y1600662D01*
X565656Y1600706D01*
X565692Y1600744D01*
X565722Y1600809D01*
X565761Y1600869D01*
X565773Y1600920D01*
X565795Y1600967D01*
X565803Y1601038D01*
X565821Y1601108D01*
X565817Y1601160D01*
X565822Y1601211D01*
X565807Y1601282D01*
X565802Y1601353D01*
X565781Y1601401D01*
X565770Y1601452D01*
X565733Y1601513D01*
X565705Y1601579D01*
X565661Y1601635D01*
X565644Y1601663D01*
X565626Y1601678D01*
X565601Y1601710D01*
X555044Y1612266D01*
X554971Y1612319D01*
X554901Y1612379D01*
X554871Y1612391D01*
X554845Y1612410D01*
X554758Y1612437D01*
X554673Y1612471D01*
X554632Y1612475D01*
X554610Y1612482D01*
X554577Y1612481D01*
X554506Y1612489D01*
X516722Y1612489D01*
X475656Y1653554D01*
X475583Y1653607D01*
X475513Y1653667D01*
X475483Y1653679D01*
X475457Y1653698D01*
X475370Y1653725D01*
X475285Y1653759D01*
X475244Y1653763D01*
X475222Y1653770D01*
X475189Y1653769D01*
X475118Y1653777D01*
X473242Y1653777D01*
X470918Y1654740D01*
X469140Y1656518D01*
X468177Y1658842D01*
X468177Y1661358D01*
X469140Y1663682D01*
X470918Y1665460D01*
X473242Y1666423D01*
X475758Y1666423D01*
X478082Y1665460D01*
X479860Y1663682D01*
X480823Y1661358D01*
X480823Y1659482D01*
X480837Y1659392D01*
X480845Y1659301D01*
X480857Y1659271D01*
X480862Y1659239D01*
X480905Y1659158D01*
X480941Y1659074D01*
X480967Y1659042D01*
X480978Y1659022D01*
X481001Y1658999D01*
X481046Y1658944D01*
X519656Y1620334D01*
X519729Y1620281D01*
X519799Y1620221D01*
X519829Y1620209D01*
X519855Y1620190D01*
X519942Y1620163D01*
X520027Y1620129D01*
X520068Y1620125D01*
X520090Y1620118D01*
X520123Y1620119D01*
X520194Y1620111D01*
X557978Y1620111D01*
X605311Y1572778D01*
X605311Y1179394D01*
X605325Y1179304D01*
X605333Y1179213D01*
X605345Y1179183D01*
X605350Y1179151D01*
X605393Y1179070D01*
X605429Y1178986D01*
X605455Y1178954D01*
X605466Y1178934D01*
X605489Y1178911D01*
X605513Y1178881D01*
X605515Y1178878D01*
X605517Y1178876D01*
X605534Y1178856D01*
X615556Y1168834D01*
X615629Y1168781D01*
X615699Y1168721D01*
X615729Y1168709D01*
X615755Y1168690D01*
X615842Y1168663D01*
X615927Y1168629D01*
X615968Y1168625D01*
X615990Y1168618D01*
X616023Y1168619D01*
X616094Y1168611D01*
X643541Y1168611D01*
X643656Y1168630D01*
X643772Y1168647D01*
X643777Y1168649D01*
X643784Y1168650D01*
X643886Y1168705D01*
X643991Y1168758D01*
X643996Y1168763D01*
X644001Y1168766D01*
X644081Y1168850D01*
X644163Y1168934D01*
X644167Y1168940D01*
X644170Y1168944D01*
X644178Y1168961D01*
X644244Y1169081D01*
X644602Y1169944D01*
X647156Y1172498D01*
X650494Y1173881D01*
X654106Y1173881D01*
X657444Y1172498D01*
X659998Y1169944D01*
X661381Y1166606D01*
X661381Y1162994D01*
X659998Y1159656D01*
X657444Y1157102D01*
X654106Y1155719D01*
X650494Y1155719D01*
X647156Y1157102D01*
X644602Y1159656D01*
X644244Y1160519D01*
X644182Y1160619D01*
X644123Y1160719D01*
X644118Y1160723D01*
X644115Y1160728D01*
X644024Y1160803D01*
X643936Y1160879D01*
X643930Y1160881D01*
X643925Y1160885D01*
X643817Y1160927D01*
X643708Y1160971D01*
X643700Y1160972D01*
X643695Y1160973D01*
X643677Y1160974D01*
X643541Y1160989D01*
X612622Y1160989D01*
X597689Y1175922D01*
X597689Y1569306D01*
X597675Y1569396D01*
X597667Y1569487D01*
X597655Y1569517D01*
X597650Y1569549D01*
X597607Y1569629D01*
X597571Y1569714D01*
X597545Y1569746D01*
X597534Y1569766D01*
X597511Y1569788D01*
X597466Y1569844D01*
X593910Y1573401D01*
X593852Y1573442D01*
X593800Y1573492D01*
X593753Y1573514D01*
X593711Y1573544D01*
X593642Y1573565D01*
X593577Y1573595D01*
X593525Y1573601D01*
X593475Y1573616D01*
X593404Y1573615D01*
X593333Y1573622D01*
X593282Y1573611D01*
X593230Y1573610D01*
X593162Y1573585D01*
X593092Y1573570D01*
X593047Y1573544D01*
X592999Y1573526D01*
X592943Y1573481D01*
X592881Y1573444D01*
X592847Y1573404D01*
X592807Y1573372D01*
X592768Y1573312D01*
X592721Y1573257D01*
X592702Y1573209D01*
X592674Y1573165D01*
X592656Y1573096D01*
X592629Y1573029D01*
X592621Y1572958D01*
X592613Y1572926D01*
X592615Y1572903D01*
X592611Y1572862D01*
X592611Y1103194D01*
X592625Y1103104D01*
X592633Y1103013D01*
X592645Y1102983D01*
X592650Y1102951D01*
X592693Y1102870D01*
X592729Y1102786D01*
X592755Y1102754D01*
X592766Y1102734D01*
X592789Y1102711D01*
X592834Y1102656D01*
X602856Y1092634D01*
X602929Y1092581D01*
X602999Y1092521D01*
X603029Y1092509D01*
X603055Y1092490D01*
X603142Y1092463D01*
X603227Y1092429D01*
X603268Y1092425D01*
X603290Y1092418D01*
X603323Y1092419D01*
X603394Y1092411D01*
X643541Y1092411D01*
X643656Y1092430D01*
X643772Y1092447D01*
X643777Y1092449D01*
X643784Y1092450D01*
X643886Y1092505D01*
X643991Y1092558D01*
X643996Y1092563D01*
X644001Y1092566D01*
X644081Y1092650D01*
X644163Y1092734D01*
X644167Y1092740D01*
X644170Y1092744D01*
X644178Y1092761D01*
X644244Y1092881D01*
X644602Y1093744D01*
X647156Y1096298D01*
X650494Y1097681D01*
X654106Y1097681D01*
X657444Y1096298D01*
X659998Y1093744D01*
X661381Y1090406D01*
X661381Y1086794D01*
X659998Y1083456D01*
X657444Y1080902D01*
X654106Y1079519D01*
X650494Y1079519D01*
G37*
%LPD*%
%LPC*%
G36*
X694548Y765259D02*
X694548Y765259D01*
X693059Y766748D01*
X693059Y769728D01*
X693056Y769748D01*
X693058Y769767D01*
X693036Y769869D01*
X693020Y769971D01*
X693010Y769988D01*
X693006Y770008D01*
X692953Y770097D01*
X692904Y770188D01*
X692890Y770202D01*
X692880Y770219D01*
X692801Y770286D01*
X692726Y770358D01*
X692708Y770366D01*
X692693Y770379D01*
X692597Y770418D01*
X692503Y770461D01*
X692483Y770463D01*
X692465Y770471D01*
X692298Y770489D01*
X680345Y770489D01*
X680255Y770475D01*
X680164Y770467D01*
X680134Y770455D01*
X680102Y770450D01*
X680022Y770407D01*
X679938Y770371D01*
X679906Y770345D01*
X679885Y770334D01*
X679863Y770311D01*
X679807Y770266D01*
X678241Y768701D01*
X675814Y767695D01*
X673186Y767695D01*
X670759Y768701D01*
X659401Y780059D01*
X658395Y782486D01*
X658395Y788616D01*
X658384Y788686D01*
X658382Y788758D01*
X658364Y788807D01*
X658356Y788859D01*
X658322Y788922D01*
X658297Y788989D01*
X658265Y789030D01*
X658240Y789076D01*
X658188Y789125D01*
X658144Y789181D01*
X658100Y789209D01*
X658062Y789245D01*
X657997Y789275D01*
X657937Y789314D01*
X657886Y789327D01*
X657839Y789349D01*
X657768Y789357D01*
X657698Y789374D01*
X657646Y789370D01*
X657595Y789376D01*
X657524Y789361D01*
X657453Y789355D01*
X657405Y789335D01*
X657354Y789324D01*
X657293Y789287D01*
X657227Y789259D01*
X657171Y789214D01*
X657143Y789198D01*
X657128Y789180D01*
X657096Y789154D01*
X655882Y787940D01*
X653558Y786977D01*
X651042Y786977D01*
X648718Y787940D01*
X646940Y789718D01*
X645977Y792042D01*
X645977Y794558D01*
X646940Y796882D01*
X648266Y798208D01*
X648308Y798267D01*
X648355Y798316D01*
X648363Y798333D01*
X648379Y798351D01*
X648391Y798381D01*
X648410Y798408D01*
X648433Y798484D01*
X648459Y798539D01*
X648461Y798554D01*
X648471Y798580D01*
X648475Y798620D01*
X648482Y798643D01*
X648481Y798675D01*
X648489Y798746D01*
X648489Y836178D01*
X673666Y861356D01*
X673719Y861429D01*
X673779Y861499D01*
X673791Y861529D01*
X673810Y861555D01*
X673837Y861642D01*
X673871Y861727D01*
X673875Y861768D01*
X673882Y861790D01*
X673881Y861823D01*
X673889Y861894D01*
X673889Y880552D01*
X673870Y880667D01*
X673853Y880783D01*
X673851Y880788D01*
X673850Y880795D01*
X673795Y880897D01*
X673742Y881002D01*
X673737Y881007D01*
X673734Y881012D01*
X673650Y881092D01*
X673566Y881174D01*
X673560Y881178D01*
X673556Y881181D01*
X673539Y881189D01*
X673419Y881255D01*
X671944Y881866D01*
X669086Y884724D01*
X667539Y888459D01*
X667539Y907741D01*
X669086Y911476D01*
X671944Y914334D01*
X675679Y915881D01*
X679721Y915881D01*
X683456Y914334D01*
X686314Y911476D01*
X687861Y907741D01*
X687861Y888459D01*
X686314Y884724D01*
X683456Y881866D01*
X681981Y881255D01*
X681881Y881193D01*
X681781Y881134D01*
X681777Y881129D01*
X681772Y881126D01*
X681697Y881035D01*
X681621Y880947D01*
X681619Y880941D01*
X681615Y880936D01*
X681573Y880828D01*
X681529Y880719D01*
X681528Y880711D01*
X681527Y880707D01*
X681526Y880688D01*
X681511Y880552D01*
X681511Y858422D01*
X656334Y833244D01*
X656281Y833171D01*
X656221Y833101D01*
X656209Y833071D01*
X656190Y833045D01*
X656163Y832958D01*
X656129Y832873D01*
X656125Y832832D01*
X656118Y832810D01*
X656119Y832777D01*
X656111Y832706D01*
X656111Y798746D01*
X656115Y798717D01*
X656114Y798705D01*
X656126Y798649D01*
X656133Y798565D01*
X656145Y798535D01*
X656150Y798504D01*
X656163Y798480D01*
X656166Y798464D01*
X656199Y798410D01*
X656229Y798339D01*
X656255Y798307D01*
X656266Y798286D01*
X656282Y798270D01*
X656292Y798253D01*
X656309Y798239D01*
X656334Y798208D01*
X657096Y797446D01*
X657154Y797404D01*
X657206Y797355D01*
X657253Y797333D01*
X657295Y797302D01*
X657364Y797281D01*
X657429Y797251D01*
X657481Y797245D01*
X657531Y797230D01*
X657602Y797232D01*
X657673Y797224D01*
X657724Y797235D01*
X657776Y797236D01*
X657844Y797261D01*
X657914Y797276D01*
X657958Y797303D01*
X658007Y797321D01*
X658063Y797366D01*
X658125Y797402D01*
X658159Y797442D01*
X658199Y797475D01*
X658238Y797535D01*
X658285Y797589D01*
X658304Y797638D01*
X658332Y797681D01*
X658350Y797751D01*
X658377Y797818D01*
X658385Y797889D01*
X658393Y797920D01*
X658391Y797943D01*
X658395Y797984D01*
X658395Y823214D01*
X659401Y825641D01*
X680096Y846337D01*
X680149Y846411D01*
X680209Y846480D01*
X680221Y846510D01*
X680240Y846537D01*
X680267Y846624D01*
X680301Y846708D01*
X680305Y846749D01*
X680312Y846772D01*
X680311Y846804D01*
X680319Y846875D01*
X680319Y849305D01*
X681854Y853010D01*
X684690Y855846D01*
X688395Y857381D01*
X692405Y857381D01*
X696110Y855846D01*
X698946Y853010D01*
X700481Y849305D01*
X700481Y845295D01*
X698946Y841590D01*
X696110Y838754D01*
X692405Y837219D01*
X689975Y837219D01*
X689885Y837205D01*
X689794Y837197D01*
X689764Y837185D01*
X689732Y837180D01*
X689652Y837137D01*
X689568Y837101D01*
X689536Y837075D01*
X689515Y837064D01*
X689493Y837041D01*
X689437Y836996D01*
X685721Y833280D01*
X685679Y833222D01*
X685630Y833170D01*
X685608Y833123D01*
X685577Y833081D01*
X685556Y833012D01*
X685526Y832947D01*
X685520Y832895D01*
X685505Y832845D01*
X685507Y832774D01*
X685499Y832703D01*
X685510Y832652D01*
X685511Y832600D01*
X685536Y832532D01*
X685551Y832462D01*
X685578Y832417D01*
X685596Y832369D01*
X685641Y832313D01*
X685677Y832251D01*
X685717Y832217D01*
X685749Y832177D01*
X685810Y832138D01*
X685864Y832091D01*
X685913Y832072D01*
X685956Y832044D01*
X686026Y832026D01*
X686092Y831999D01*
X686164Y831991D01*
X686195Y831983D01*
X686218Y831985D01*
X686259Y831981D01*
X698528Y831981D01*
X698548Y831984D01*
X698567Y831982D01*
X698669Y832004D01*
X698771Y832020D01*
X698788Y832030D01*
X698808Y832034D01*
X698897Y832087D01*
X698988Y832136D01*
X699002Y832150D01*
X699019Y832160D01*
X699086Y832239D01*
X699158Y832314D01*
X699166Y832332D01*
X699179Y832347D01*
X699218Y832443D01*
X699261Y832537D01*
X699263Y832557D01*
X699271Y832575D01*
X699289Y832742D01*
X699289Y836178D01*
X706146Y843036D01*
X706215Y843131D01*
X706284Y843224D01*
X706286Y843230D01*
X706290Y843235D01*
X706324Y843347D01*
X706361Y843458D01*
X706360Y843464D01*
X706362Y843470D01*
X706359Y843587D01*
X706358Y843704D01*
X706356Y843711D01*
X706356Y843716D01*
X706350Y843734D01*
X706311Y843865D01*
X705719Y845295D01*
X705719Y849305D01*
X707254Y853010D01*
X710090Y855846D01*
X713795Y857381D01*
X717805Y857381D01*
X721510Y855846D01*
X724346Y853010D01*
X725881Y849305D01*
X725881Y845295D01*
X724346Y841590D01*
X721510Y838754D01*
X717805Y837219D01*
X713795Y837219D01*
X712365Y837811D01*
X712251Y837838D01*
X712138Y837867D01*
X712132Y837866D01*
X712126Y837868D01*
X712009Y837857D01*
X711893Y837848D01*
X711887Y837845D01*
X711881Y837845D01*
X711774Y837797D01*
X711667Y837751D01*
X711661Y837747D01*
X711656Y837745D01*
X711642Y837732D01*
X711536Y837646D01*
X707134Y833244D01*
X707081Y833171D01*
X707021Y833101D01*
X707009Y833071D01*
X706990Y833045D01*
X706963Y832958D01*
X706929Y832873D01*
X706925Y832832D01*
X706918Y832810D01*
X706919Y832777D01*
X706911Y832706D01*
X706911Y829105D01*
X706922Y829034D01*
X706924Y828962D01*
X706942Y828913D01*
X706950Y828862D01*
X706984Y828799D01*
X707009Y828731D01*
X707041Y828691D01*
X707066Y828645D01*
X707118Y828595D01*
X707162Y828539D01*
X707206Y828511D01*
X707244Y828475D01*
X707309Y828445D01*
X707369Y828406D01*
X707420Y828394D01*
X707467Y828372D01*
X707538Y828364D01*
X707608Y828346D01*
X707660Y828350D01*
X707711Y828345D01*
X707782Y828360D01*
X707853Y828365D01*
X707901Y828386D01*
X707952Y828397D01*
X708013Y828434D01*
X708079Y828462D01*
X708135Y828507D01*
X708163Y828523D01*
X708178Y828541D01*
X708210Y828567D01*
X710090Y830446D01*
X713795Y831981D01*
X717805Y831981D01*
X721510Y830446D01*
X724346Y827610D01*
X725881Y823905D01*
X725881Y819895D01*
X724346Y816190D01*
X721510Y813354D01*
X717805Y811819D01*
X713795Y811819D01*
X710090Y813354D01*
X708210Y815233D01*
X708152Y815275D01*
X708100Y815325D01*
X708053Y815347D01*
X708011Y815377D01*
X707942Y815398D01*
X707877Y815428D01*
X707825Y815434D01*
X707775Y815449D01*
X707704Y815447D01*
X707633Y815455D01*
X707582Y815444D01*
X707530Y815443D01*
X707462Y815418D01*
X707392Y815403D01*
X707347Y815376D01*
X707299Y815359D01*
X707243Y815314D01*
X707181Y815277D01*
X707147Y815237D01*
X707107Y815205D01*
X707068Y815145D01*
X707021Y815090D01*
X707002Y815042D01*
X706974Y814998D01*
X706956Y814928D01*
X706929Y814862D01*
X706921Y814791D01*
X706913Y814759D01*
X706915Y814736D01*
X706911Y814695D01*
X706911Y803102D01*
X706914Y803082D01*
X706912Y803063D01*
X706934Y802961D01*
X706950Y802859D01*
X706960Y802842D01*
X706964Y802822D01*
X707017Y802733D01*
X707066Y802642D01*
X707080Y802628D01*
X707090Y802611D01*
X707169Y802544D01*
X707244Y802472D01*
X707262Y802464D01*
X707277Y802451D01*
X707373Y802412D01*
X707467Y802369D01*
X707487Y802367D01*
X707505Y802359D01*
X707672Y802341D01*
X711652Y802341D01*
X713141Y800852D01*
X713141Y785748D01*
X711731Y784338D01*
X711720Y784322D01*
X711704Y784310D01*
X711648Y784222D01*
X711588Y784139D01*
X711582Y784120D01*
X711571Y784103D01*
X711546Y784002D01*
X711516Y783903D01*
X711516Y783884D01*
X711511Y783864D01*
X711519Y783761D01*
X711522Y783658D01*
X711529Y783639D01*
X711530Y783619D01*
X711571Y783524D01*
X711606Y783427D01*
X711619Y783411D01*
X711627Y783393D01*
X711731Y783262D01*
X713141Y781852D01*
X713141Y778872D01*
X713144Y778852D01*
X713142Y778833D01*
X713164Y778731D01*
X713180Y778629D01*
X713190Y778612D01*
X713194Y778592D01*
X713247Y778503D01*
X713296Y778412D01*
X713310Y778398D01*
X713320Y778381D01*
X713399Y778314D01*
X713474Y778242D01*
X713492Y778234D01*
X713507Y778221D01*
X713603Y778182D01*
X713697Y778139D01*
X713717Y778137D01*
X713735Y778129D01*
X713902Y778111D01*
X743098Y778111D01*
X743118Y778114D01*
X743137Y778112D01*
X743239Y778134D01*
X743341Y778150D01*
X743358Y778160D01*
X743378Y778164D01*
X743467Y778217D01*
X743558Y778266D01*
X743572Y778280D01*
X743589Y778290D01*
X743656Y778369D01*
X743728Y778444D01*
X743736Y778462D01*
X743749Y778477D01*
X743788Y778573D01*
X743831Y778667D01*
X743833Y778687D01*
X743841Y778705D01*
X743859Y778872D01*
X743859Y781852D01*
X745269Y783262D01*
X745280Y783278D01*
X745296Y783290D01*
X745352Y783378D01*
X745412Y783461D01*
X745418Y783480D01*
X745429Y783497D01*
X745454Y783598D01*
X745484Y783697D01*
X745484Y783716D01*
X745489Y783736D01*
X745481Y783839D01*
X745478Y783942D01*
X745471Y783961D01*
X745470Y783981D01*
X745429Y784076D01*
X745394Y784173D01*
X745381Y784189D01*
X745373Y784207D01*
X745269Y784338D01*
X743859Y785748D01*
X743859Y800852D01*
X745348Y802341D01*
X749328Y802341D01*
X749348Y802344D01*
X749367Y802342D01*
X749469Y802364D01*
X749571Y802380D01*
X749588Y802390D01*
X749608Y802394D01*
X749697Y802447D01*
X749788Y802496D01*
X749802Y802510D01*
X749819Y802520D01*
X749886Y802599D01*
X749958Y802674D01*
X749966Y802692D01*
X749979Y802707D01*
X750018Y802803D01*
X750061Y802897D01*
X750063Y802917D01*
X750071Y802935D01*
X750089Y803102D01*
X750089Y814695D01*
X750078Y814766D01*
X750076Y814838D01*
X750058Y814887D01*
X750050Y814938D01*
X750016Y815001D01*
X749991Y815069D01*
X749959Y815109D01*
X749934Y815155D01*
X749882Y815205D01*
X749838Y815261D01*
X749794Y815289D01*
X749756Y815325D01*
X749691Y815355D01*
X749631Y815394D01*
X749580Y815406D01*
X749533Y815428D01*
X749462Y815436D01*
X749392Y815454D01*
X749340Y815450D01*
X749289Y815455D01*
X749218Y815440D01*
X749147Y815435D01*
X749099Y815414D01*
X749048Y815403D01*
X748987Y815366D01*
X748921Y815338D01*
X748865Y815293D01*
X748837Y815277D01*
X748822Y815259D01*
X748790Y815233D01*
X746910Y813354D01*
X743205Y811819D01*
X739195Y811819D01*
X735490Y813354D01*
X732654Y816190D01*
X731119Y819895D01*
X731119Y823905D01*
X732654Y827610D01*
X735490Y830446D01*
X739195Y831981D01*
X743205Y831981D01*
X746910Y830446D01*
X748790Y828567D01*
X748848Y828525D01*
X748900Y828475D01*
X748947Y828453D01*
X748989Y828423D01*
X749058Y828402D01*
X749123Y828372D01*
X749175Y828366D01*
X749225Y828351D01*
X749296Y828353D01*
X749367Y828345D01*
X749418Y828356D01*
X749470Y828357D01*
X749538Y828382D01*
X749608Y828397D01*
X749653Y828424D01*
X749701Y828441D01*
X749757Y828486D01*
X749819Y828523D01*
X749853Y828563D01*
X749893Y828595D01*
X749932Y828655D01*
X749979Y828710D01*
X749998Y828758D01*
X750026Y828802D01*
X750044Y828872D01*
X750071Y828938D01*
X750079Y829009D01*
X750087Y829041D01*
X750085Y829064D01*
X750089Y829105D01*
X750089Y832706D01*
X750075Y832796D01*
X750067Y832887D01*
X750055Y832917D01*
X750050Y832949D01*
X750007Y833030D01*
X749971Y833114D01*
X749945Y833146D01*
X749934Y833166D01*
X749911Y833189D01*
X749866Y833244D01*
X745464Y837646D01*
X745369Y837715D01*
X745276Y837784D01*
X745270Y837786D01*
X745265Y837790D01*
X745153Y837824D01*
X745042Y837861D01*
X745036Y837860D01*
X745030Y837862D01*
X744913Y837859D01*
X744796Y837858D01*
X744789Y837856D01*
X744784Y837856D01*
X744766Y837850D01*
X744635Y837811D01*
X743205Y837219D01*
X739195Y837219D01*
X735490Y838754D01*
X732654Y841590D01*
X731119Y845295D01*
X731119Y849305D01*
X732654Y853010D01*
X735490Y855846D01*
X739195Y857381D01*
X743205Y857381D01*
X746910Y855846D01*
X749746Y853010D01*
X751281Y849305D01*
X751281Y845295D01*
X750689Y843865D01*
X750662Y843752D01*
X750633Y843638D01*
X750634Y843632D01*
X750632Y843626D01*
X750643Y843509D01*
X750652Y843393D01*
X750655Y843387D01*
X750655Y843381D01*
X750703Y843273D01*
X750749Y843167D01*
X750753Y843161D01*
X750755Y843156D01*
X750768Y843142D01*
X750854Y843036D01*
X757711Y836178D01*
X757711Y832701D01*
X757730Y832584D01*
X757748Y832466D01*
X757750Y832462D01*
X757750Y832458D01*
X757806Y832353D01*
X757861Y832247D01*
X757864Y832244D01*
X757866Y832241D01*
X757952Y832159D01*
X758037Y832076D01*
X758041Y832074D01*
X758044Y832071D01*
X758152Y832021D01*
X758259Y831970D01*
X758263Y831970D01*
X758267Y831968D01*
X758386Y831955D01*
X758503Y831940D01*
X758508Y831941D01*
X758511Y831941D01*
X758525Y831944D01*
X758669Y831966D01*
X758726Y831981D01*
X765077Y831981D01*
X765077Y822662D01*
X765080Y822642D01*
X765078Y822623D01*
X765100Y822521D01*
X765117Y822419D01*
X765126Y822402D01*
X765130Y822382D01*
X765183Y822293D01*
X765232Y822202D01*
X765246Y822188D01*
X765256Y822171D01*
X765335Y822104D01*
X765410Y822033D01*
X765428Y822024D01*
X765443Y822011D01*
X765539Y821973D01*
X765633Y821929D01*
X765653Y821927D01*
X765671Y821919D01*
X765838Y821901D01*
X766601Y821901D01*
X766601Y821899D01*
X765838Y821899D01*
X765818Y821896D01*
X765799Y821898D01*
X765697Y821876D01*
X765595Y821859D01*
X765578Y821850D01*
X765558Y821846D01*
X765469Y821793D01*
X765378Y821744D01*
X765364Y821730D01*
X765347Y821720D01*
X765280Y821641D01*
X765209Y821566D01*
X765200Y821548D01*
X765187Y821533D01*
X765148Y821437D01*
X765105Y821343D01*
X765103Y821323D01*
X765095Y821305D01*
X765077Y821138D01*
X765077Y811819D01*
X758726Y811819D01*
X758669Y811834D01*
X758551Y811846D01*
X758433Y811859D01*
X758428Y811858D01*
X758424Y811859D01*
X758309Y811833D01*
X758192Y811807D01*
X758189Y811805D01*
X758185Y811804D01*
X758084Y811742D01*
X757981Y811681D01*
X757978Y811678D01*
X757975Y811676D01*
X757899Y811585D01*
X757821Y811494D01*
X757820Y811490D01*
X757817Y811487D01*
X757774Y811378D01*
X757729Y811266D01*
X757729Y811261D01*
X757727Y811258D01*
X757727Y811245D01*
X757711Y811099D01*
X757711Y803102D01*
X757714Y803082D01*
X757712Y803063D01*
X757734Y802961D01*
X757750Y802859D01*
X757760Y802842D01*
X757764Y802822D01*
X757817Y802733D01*
X757866Y802642D01*
X757880Y802628D01*
X757890Y802611D01*
X757969Y802544D01*
X758044Y802472D01*
X758062Y802464D01*
X758077Y802451D01*
X758173Y802412D01*
X758267Y802369D01*
X758287Y802367D01*
X758305Y802359D01*
X758472Y802341D01*
X762452Y802341D01*
X763941Y800852D01*
X763941Y785748D01*
X762531Y784338D01*
X762520Y784322D01*
X762504Y784310D01*
X762448Y784222D01*
X762388Y784139D01*
X762382Y784120D01*
X762371Y784103D01*
X762346Y784002D01*
X762316Y783903D01*
X762316Y783884D01*
X762311Y783864D01*
X762319Y783761D01*
X762322Y783658D01*
X762329Y783639D01*
X762330Y783619D01*
X762371Y783524D01*
X762406Y783427D01*
X762419Y783411D01*
X762427Y783393D01*
X762531Y783262D01*
X763941Y781852D01*
X763941Y766748D01*
X762452Y765259D01*
X745348Y765259D01*
X743859Y766748D01*
X743859Y769728D01*
X743856Y769748D01*
X743858Y769767D01*
X743836Y769869D01*
X743820Y769971D01*
X743810Y769988D01*
X743806Y770008D01*
X743753Y770097D01*
X743704Y770188D01*
X743690Y770202D01*
X743680Y770219D01*
X743601Y770286D01*
X743526Y770358D01*
X743508Y770366D01*
X743493Y770379D01*
X743397Y770418D01*
X743303Y770461D01*
X743283Y770463D01*
X743265Y770471D01*
X743098Y770489D01*
X713902Y770489D01*
X713882Y770486D01*
X713863Y770488D01*
X713761Y770466D01*
X713659Y770450D01*
X713642Y770440D01*
X713622Y770436D01*
X713533Y770383D01*
X713442Y770334D01*
X713428Y770320D01*
X713411Y770310D01*
X713344Y770231D01*
X713272Y770156D01*
X713264Y770138D01*
X713251Y770123D01*
X713212Y770027D01*
X713169Y769933D01*
X713167Y769913D01*
X713159Y769895D01*
X713141Y769728D01*
X713141Y766748D01*
X711652Y765259D01*
X694548Y765259D01*
G37*
%LPD*%
%LPC*%
G36*
X650494Y1181119D02*
X650494Y1181119D01*
X647156Y1182502D01*
X644602Y1185056D01*
X644244Y1185919D01*
X644182Y1186019D01*
X644123Y1186119D01*
X644118Y1186123D01*
X644115Y1186128D01*
X644024Y1186203D01*
X643936Y1186279D01*
X643930Y1186281D01*
X643925Y1186285D01*
X643817Y1186327D01*
X643708Y1186371D01*
X643700Y1186372D01*
X643695Y1186373D01*
X643677Y1186374D01*
X643541Y1186389D01*
X625322Y1186389D01*
X610389Y1201322D01*
X610389Y1598178D01*
X683854Y1671644D01*
X683907Y1671717D01*
X683967Y1671787D01*
X683979Y1671817D01*
X683998Y1671843D01*
X684025Y1671930D01*
X684059Y1672015D01*
X684063Y1672056D01*
X684070Y1672078D01*
X684069Y1672111D01*
X684077Y1672182D01*
X684077Y1674058D01*
X685040Y1676382D01*
X686818Y1678160D01*
X689142Y1679123D01*
X691658Y1679123D01*
X693982Y1678160D01*
X695760Y1676382D01*
X696723Y1674058D01*
X696723Y1671542D01*
X695760Y1669218D01*
X693982Y1667440D01*
X691658Y1666477D01*
X689782Y1666477D01*
X689692Y1666463D01*
X689601Y1666455D01*
X689571Y1666443D01*
X689539Y1666438D01*
X689458Y1666395D01*
X689374Y1666359D01*
X689342Y1666333D01*
X689322Y1666322D01*
X689299Y1666299D01*
X689244Y1666254D01*
X618234Y1595244D01*
X618181Y1595171D01*
X618121Y1595101D01*
X618109Y1595071D01*
X618090Y1595045D01*
X618063Y1594958D01*
X618029Y1594873D01*
X618025Y1594832D01*
X618018Y1594810D01*
X618019Y1594777D01*
X618011Y1594706D01*
X618011Y1204794D01*
X618025Y1204704D01*
X618033Y1204613D01*
X618045Y1204583D01*
X618050Y1204551D01*
X618093Y1204470D01*
X618129Y1204386D01*
X618155Y1204354D01*
X618166Y1204334D01*
X618189Y1204311D01*
X618234Y1204256D01*
X628256Y1194234D01*
X628329Y1194181D01*
X628399Y1194121D01*
X628429Y1194109D01*
X628455Y1194090D01*
X628542Y1194063D01*
X628627Y1194029D01*
X628668Y1194025D01*
X628690Y1194018D01*
X628723Y1194019D01*
X628794Y1194011D01*
X643541Y1194011D01*
X643656Y1194030D01*
X643772Y1194047D01*
X643777Y1194049D01*
X643784Y1194050D01*
X643886Y1194105D01*
X643991Y1194158D01*
X643996Y1194163D01*
X644001Y1194166D01*
X644081Y1194250D01*
X644163Y1194334D01*
X644167Y1194340D01*
X644170Y1194344D01*
X644178Y1194361D01*
X644244Y1194481D01*
X644602Y1195344D01*
X647156Y1197898D01*
X650494Y1199281D01*
X654106Y1199281D01*
X657444Y1197898D01*
X659998Y1195344D01*
X661381Y1192006D01*
X661381Y1188394D01*
X659998Y1185056D01*
X657444Y1182502D01*
X654106Y1181119D01*
X650494Y1181119D01*
G37*
%LPD*%
%LPC*%
G36*
X358942Y167877D02*
X358942Y167877D01*
X356618Y168840D01*
X354840Y170618D01*
X353877Y172942D01*
X353877Y175458D01*
X354840Y177782D01*
X356618Y179560D01*
X358942Y180523D01*
X360818Y180523D01*
X360908Y180537D01*
X360999Y180545D01*
X361029Y180557D01*
X361061Y180562D01*
X361142Y180605D01*
X361226Y180641D01*
X361258Y180667D01*
X361278Y180678D01*
X361301Y180701D01*
X361356Y180746D01*
X594954Y414344D01*
X595007Y414417D01*
X595067Y414487D01*
X595079Y414517D01*
X595098Y414543D01*
X595125Y414630D01*
X595159Y414715D01*
X595163Y414756D01*
X595170Y414778D01*
X595169Y414811D01*
X595177Y414882D01*
X595177Y416758D01*
X596140Y419082D01*
X597918Y420860D01*
X600242Y421823D01*
X602758Y421823D01*
X605082Y420860D01*
X606860Y419082D01*
X607823Y416758D01*
X607823Y414242D01*
X606860Y411918D01*
X605082Y410140D01*
X602758Y409177D01*
X600882Y409177D01*
X600792Y409163D01*
X600701Y409155D01*
X600671Y409143D01*
X600639Y409138D01*
X600558Y409095D01*
X600474Y409059D01*
X600442Y409033D01*
X600422Y409022D01*
X600399Y408999D01*
X600344Y408954D01*
X366746Y175356D01*
X366693Y175283D01*
X366633Y175213D01*
X366621Y175183D01*
X366602Y175157D01*
X366575Y175070D01*
X366541Y174985D01*
X366537Y174944D01*
X366530Y174922D01*
X366531Y174889D01*
X366523Y174818D01*
X366523Y172942D01*
X365560Y170618D01*
X363782Y168840D01*
X361458Y167877D01*
X358942Y167877D01*
G37*
%LPD*%
%LPC*%
G36*
X1143891Y1743739D02*
X1143891Y1743739D01*
X1135930Y1747037D01*
X1129837Y1753130D01*
X1126539Y1761091D01*
X1126539Y1769709D01*
X1129837Y1777670D01*
X1135930Y1783763D01*
X1143891Y1787061D01*
X1152509Y1787061D01*
X1160470Y1783763D01*
X1166563Y1777670D01*
X1169861Y1769709D01*
X1169861Y1761091D01*
X1166563Y1753130D01*
X1160470Y1747037D01*
X1152509Y1743739D01*
X1143891Y1743739D01*
G37*
%LPD*%
%LPC*%
G36*
X1049391Y1648239D02*
X1049391Y1648239D01*
X1041430Y1651537D01*
X1035337Y1657630D01*
X1032039Y1665591D01*
X1032039Y1674209D01*
X1035337Y1682170D01*
X1041430Y1688263D01*
X1049391Y1691561D01*
X1058009Y1691561D01*
X1065970Y1688263D01*
X1072063Y1682170D01*
X1075361Y1674209D01*
X1075361Y1665591D01*
X1072063Y1657630D01*
X1065970Y1651537D01*
X1058009Y1648239D01*
X1049391Y1648239D01*
G37*
%LPD*%
%LPC*%
G36*
X404891Y1651239D02*
X404891Y1651239D01*
X396930Y1654537D01*
X390837Y1660630D01*
X387539Y1668591D01*
X387539Y1677209D01*
X390837Y1685170D01*
X396930Y1691263D01*
X404891Y1694561D01*
X413509Y1694561D01*
X421470Y1691263D01*
X427563Y1685170D01*
X430861Y1677209D01*
X430861Y1668591D01*
X427563Y1660630D01*
X421470Y1654537D01*
X413509Y1651239D01*
X404891Y1651239D01*
G37*
%LPD*%
%LPC*%
G36*
X309091Y1746639D02*
X309091Y1746639D01*
X301130Y1749937D01*
X295037Y1756030D01*
X291739Y1763991D01*
X291739Y1772609D01*
X295037Y1780570D01*
X301130Y1786663D01*
X309091Y1789961D01*
X317709Y1789961D01*
X325670Y1786663D01*
X331763Y1780570D01*
X335061Y1772609D01*
X335061Y1763991D01*
X331763Y1756030D01*
X325670Y1749937D01*
X317709Y1746639D01*
X309091Y1746639D01*
G37*
%LPD*%
%LPC*%
G36*
X644708Y1308119D02*
X644708Y1308119D01*
X643219Y1309608D01*
X643219Y1324845D01*
X643228Y1324857D01*
X643241Y1324901D01*
X643264Y1324941D01*
X643277Y1325018D01*
X643300Y1325092D01*
X643299Y1325138D01*
X643307Y1325183D01*
X643296Y1325260D01*
X643294Y1325338D01*
X643278Y1325381D01*
X643272Y1325427D01*
X643236Y1325496D01*
X643210Y1325569D01*
X643181Y1325605D01*
X643160Y1325646D01*
X643104Y1325701D01*
X643056Y1325761D01*
X643017Y1325786D01*
X642984Y1325818D01*
X642865Y1325884D01*
X642849Y1325894D01*
X642844Y1325895D01*
X642837Y1325899D01*
X641509Y1326450D01*
X636150Y1331809D01*
X633249Y1338811D01*
X633249Y1346389D01*
X636150Y1353391D01*
X641509Y1358750D01*
X648511Y1361651D01*
X656089Y1361651D01*
X663091Y1358750D01*
X668450Y1353391D01*
X671351Y1346389D01*
X671351Y1338811D01*
X668450Y1331809D01*
X663091Y1326450D01*
X661763Y1325899D01*
X661723Y1325875D01*
X661680Y1325859D01*
X661620Y1325810D01*
X661553Y1325770D01*
X661524Y1325734D01*
X661488Y1325705D01*
X661446Y1325640D01*
X661397Y1325580D01*
X661380Y1325537D01*
X661355Y1325498D01*
X661336Y1325423D01*
X661308Y1325350D01*
X661307Y1325305D01*
X661295Y1325260D01*
X661301Y1325182D01*
X661298Y1325105D01*
X661311Y1325060D01*
X661314Y1325015D01*
X661345Y1324943D01*
X661367Y1324868D01*
X661381Y1324848D01*
X661381Y1309608D01*
X659892Y1308119D01*
X644708Y1308119D01*
G37*
%LPD*%
%LPC*%
G36*
X800911Y917149D02*
X800911Y917149D01*
X793909Y920050D01*
X788550Y925409D01*
X785649Y932411D01*
X785649Y939989D01*
X788550Y946991D01*
X793909Y952350D01*
X797946Y954023D01*
X797985Y954047D01*
X798029Y954063D01*
X798089Y954112D01*
X798155Y954153D01*
X798185Y954188D01*
X798221Y954217D01*
X798263Y954282D01*
X798312Y954342D01*
X798329Y954385D01*
X798354Y954423D01*
X798373Y954499D01*
X798400Y954572D01*
X798402Y954617D01*
X798414Y954662D01*
X798408Y954740D01*
X798411Y954817D01*
X798398Y954862D01*
X798394Y954907D01*
X798364Y954979D01*
X798342Y955054D01*
X798316Y955091D01*
X798298Y955134D01*
X798213Y955240D01*
X798202Y955256D01*
X798198Y955259D01*
X798193Y955265D01*
X797002Y956456D01*
X795619Y959794D01*
X795619Y963406D01*
X797002Y966744D01*
X799556Y969298D01*
X802894Y970681D01*
X806506Y970681D01*
X809844Y969298D01*
X812398Y966744D01*
X813781Y963406D01*
X813781Y959794D01*
X812398Y956456D01*
X811207Y955265D01*
X811180Y955227D01*
X811146Y955196D01*
X811108Y955128D01*
X811063Y955065D01*
X811050Y955021D01*
X811027Y954981D01*
X811014Y954904D01*
X810991Y954830D01*
X810992Y954784D01*
X810984Y954739D01*
X810995Y954662D01*
X810997Y954584D01*
X811013Y954541D01*
X811020Y954495D01*
X811055Y954426D01*
X811082Y954353D01*
X811110Y954317D01*
X811131Y954276D01*
X811187Y954222D01*
X811235Y954161D01*
X811274Y954136D01*
X811307Y954104D01*
X811426Y954038D01*
X811442Y954028D01*
X811447Y954027D01*
X811454Y954023D01*
X815491Y952350D01*
X820850Y946991D01*
X823751Y939989D01*
X823751Y932411D01*
X820850Y925409D01*
X815491Y920050D01*
X808489Y917149D01*
X800911Y917149D01*
G37*
%LPD*%
%LPC*%
G36*
X802894Y1308119D02*
X802894Y1308119D01*
X799556Y1309502D01*
X797002Y1312056D01*
X795619Y1315394D01*
X795619Y1319006D01*
X797002Y1322344D01*
X798193Y1323535D01*
X798220Y1323573D01*
X798254Y1323604D01*
X798292Y1323672D01*
X798337Y1323735D01*
X798350Y1323779D01*
X798373Y1323819D01*
X798386Y1323896D01*
X798409Y1323970D01*
X798408Y1324016D01*
X798416Y1324061D01*
X798405Y1324138D01*
X798403Y1324216D01*
X798387Y1324259D01*
X798380Y1324305D01*
X798345Y1324374D01*
X798318Y1324447D01*
X798290Y1324483D01*
X798269Y1324524D01*
X798213Y1324578D01*
X798165Y1324639D01*
X798126Y1324664D01*
X798093Y1324696D01*
X797974Y1324762D01*
X797958Y1324772D01*
X797953Y1324773D01*
X797946Y1324777D01*
X793909Y1326450D01*
X788550Y1331809D01*
X785649Y1338811D01*
X785649Y1346389D01*
X788550Y1353391D01*
X793909Y1358750D01*
X800911Y1361651D01*
X808489Y1361651D01*
X815491Y1358750D01*
X820850Y1353391D01*
X823751Y1346389D01*
X823751Y1338811D01*
X820850Y1331809D01*
X815491Y1326450D01*
X811454Y1324777D01*
X811415Y1324753D01*
X811371Y1324737D01*
X811311Y1324688D01*
X811245Y1324647D01*
X811215Y1324612D01*
X811179Y1324583D01*
X811137Y1324518D01*
X811088Y1324458D01*
X811071Y1324415D01*
X811046Y1324377D01*
X811027Y1324301D01*
X811000Y1324228D01*
X810998Y1324183D01*
X810986Y1324138D01*
X810992Y1324060D01*
X810989Y1323983D01*
X811002Y1323938D01*
X811005Y1323893D01*
X811036Y1323821D01*
X811058Y1323746D01*
X811084Y1323709D01*
X811102Y1323666D01*
X811187Y1323560D01*
X811198Y1323544D01*
X811202Y1323541D01*
X811207Y1323535D01*
X812398Y1322344D01*
X813781Y1319006D01*
X813781Y1315394D01*
X812398Y1312056D01*
X809844Y1309502D01*
X806506Y1308119D01*
X802894Y1308119D01*
G37*
%LPD*%
%LPC*%
G36*
X714542Y1171177D02*
X714542Y1171177D01*
X712218Y1172140D01*
X710440Y1173918D01*
X709477Y1176242D01*
X709477Y1178758D01*
X710440Y1181082D01*
X712218Y1182860D01*
X714542Y1183823D01*
X716418Y1183823D01*
X716508Y1183837D01*
X716599Y1183845D01*
X716629Y1183857D01*
X716661Y1183862D01*
X716742Y1183905D01*
X716826Y1183941D01*
X716858Y1183967D01*
X716878Y1183978D01*
X716901Y1184001D01*
X716956Y1184046D01*
X726922Y1194011D01*
X795941Y1194011D01*
X796056Y1194030D01*
X796172Y1194047D01*
X796177Y1194049D01*
X796184Y1194050D01*
X796286Y1194105D01*
X796391Y1194158D01*
X796396Y1194163D01*
X796401Y1194166D01*
X796481Y1194250D01*
X796563Y1194334D01*
X796567Y1194340D01*
X796570Y1194344D01*
X796578Y1194361D01*
X796644Y1194481D01*
X797002Y1195344D01*
X799556Y1197898D01*
X802894Y1199281D01*
X806506Y1199281D01*
X809844Y1197898D01*
X812398Y1195344D01*
X813781Y1192006D01*
X813781Y1188394D01*
X812398Y1185056D01*
X809844Y1182502D01*
X806506Y1181119D01*
X802894Y1181119D01*
X799556Y1182502D01*
X797002Y1185056D01*
X796644Y1185919D01*
X796582Y1186019D01*
X796523Y1186119D01*
X796518Y1186123D01*
X796515Y1186128D01*
X796424Y1186203D01*
X796336Y1186279D01*
X796330Y1186281D01*
X796325Y1186285D01*
X796217Y1186327D01*
X796108Y1186371D01*
X796100Y1186372D01*
X796095Y1186373D01*
X796077Y1186374D01*
X795941Y1186389D01*
X730394Y1186389D01*
X730304Y1186375D01*
X730213Y1186367D01*
X730183Y1186355D01*
X730151Y1186350D01*
X730070Y1186307D01*
X729986Y1186271D01*
X729954Y1186245D01*
X729934Y1186234D01*
X729911Y1186211D01*
X729856Y1186166D01*
X722346Y1178656D01*
X722293Y1178583D01*
X722233Y1178513D01*
X722221Y1178483D01*
X722202Y1178457D01*
X722175Y1178370D01*
X722141Y1178285D01*
X722137Y1178244D01*
X722130Y1178222D01*
X722131Y1178189D01*
X722123Y1178118D01*
X722123Y1176242D01*
X721160Y1173918D01*
X719382Y1172140D01*
X717058Y1171177D01*
X714542Y1171177D01*
G37*
%LPD*%
%LPC*%
G36*
X370879Y4019D02*
X370879Y4019D01*
X367144Y5566D01*
X364286Y8424D01*
X362739Y12159D01*
X362739Y31441D01*
X364286Y35176D01*
X367144Y38034D01*
X370879Y39581D01*
X374921Y39581D01*
X378656Y38034D01*
X381514Y35176D01*
X383061Y31441D01*
X383061Y12159D01*
X381514Y8424D01*
X378656Y5566D01*
X374921Y4019D01*
X370879Y4019D01*
G37*
%LPD*%
%LPC*%
G36*
X726479Y435819D02*
X726479Y435819D01*
X722744Y437366D01*
X719886Y440224D01*
X718339Y443959D01*
X718339Y463241D01*
X719886Y466976D01*
X722744Y469834D01*
X726479Y471381D01*
X730521Y471381D01*
X734256Y469834D01*
X737114Y466976D01*
X738661Y463241D01*
X738661Y443959D01*
X737114Y440224D01*
X734256Y437366D01*
X730521Y435819D01*
X726479Y435819D01*
G37*
%LPD*%
%LPC*%
G36*
X345479Y4019D02*
X345479Y4019D01*
X341744Y5566D01*
X338886Y8424D01*
X337339Y12159D01*
X337339Y31441D01*
X338886Y35176D01*
X341744Y38034D01*
X345479Y39581D01*
X349521Y39581D01*
X353256Y38034D01*
X356114Y35176D01*
X357661Y31441D01*
X357661Y12159D01*
X356114Y8424D01*
X353256Y5566D01*
X349521Y4019D01*
X345479Y4019D01*
G37*
%LPD*%
%LPC*%
G36*
X751879Y435819D02*
X751879Y435819D01*
X748144Y437366D01*
X745286Y440224D01*
X743739Y443959D01*
X743739Y463241D01*
X745286Y466976D01*
X748144Y469834D01*
X751879Y471381D01*
X755921Y471381D01*
X759656Y469834D01*
X762514Y466976D01*
X764061Y463241D01*
X764061Y443959D01*
X762514Y440224D01*
X759656Y437366D01*
X755921Y435819D01*
X751879Y435819D01*
G37*
%LPD*%
%LPC*%
G36*
X777279Y435819D02*
X777279Y435819D01*
X773544Y437366D01*
X770686Y440224D01*
X769139Y443959D01*
X769139Y463241D01*
X770686Y466976D01*
X773544Y469834D01*
X777279Y471381D01*
X781321Y471381D01*
X785056Y469834D01*
X787914Y466976D01*
X789461Y463241D01*
X789461Y443959D01*
X787914Y440224D01*
X785056Y437366D01*
X781321Y435819D01*
X777279Y435819D01*
G37*
%LPD*%
%LPC*%
G36*
X1094779Y4019D02*
X1094779Y4019D01*
X1091044Y5566D01*
X1088186Y8424D01*
X1086639Y12159D01*
X1086639Y31441D01*
X1088186Y35176D01*
X1091044Y38034D01*
X1094779Y39581D01*
X1098821Y39581D01*
X1102556Y38034D01*
X1105414Y35176D01*
X1106961Y31441D01*
X1106961Y12159D01*
X1105414Y8424D01*
X1102556Y5566D01*
X1098821Y4019D01*
X1094779Y4019D01*
G37*
%LPD*%
%LPC*%
G36*
X1069379Y4019D02*
X1069379Y4019D01*
X1065644Y5566D01*
X1062786Y8424D01*
X1061239Y12159D01*
X1061239Y31441D01*
X1062786Y35176D01*
X1065644Y38034D01*
X1069379Y39581D01*
X1073421Y39581D01*
X1077156Y38034D01*
X1080014Y35176D01*
X1081561Y31441D01*
X1081561Y12159D01*
X1080014Y8424D01*
X1077156Y5566D01*
X1073421Y4019D01*
X1069379Y4019D01*
G37*
%LPD*%
%LPC*%
G36*
X822858Y226429D02*
X822858Y226429D01*
X821369Y227918D01*
X821369Y250022D01*
X822858Y251511D01*
X844962Y251511D01*
X846451Y250022D01*
X846451Y227918D01*
X844962Y226429D01*
X822858Y226429D01*
G37*
%LPD*%
%LPC*%
G36*
X518058Y226429D02*
X518058Y226429D01*
X516569Y227918D01*
X516569Y250022D01*
X518058Y251511D01*
X540162Y251511D01*
X541651Y250022D01*
X541651Y227918D01*
X540162Y226429D01*
X518058Y226429D01*
G37*
%LPD*%
%LPC*%
G36*
X670458Y226429D02*
X670458Y226429D01*
X668969Y227918D01*
X668969Y250022D01*
X670458Y251511D01*
X692562Y251511D01*
X694051Y250022D01*
X694051Y227918D01*
X692562Y226429D01*
X670458Y226429D01*
G37*
%LPD*%
%LPC*%
G36*
X764438Y226429D02*
X764438Y226429D01*
X762949Y227918D01*
X762949Y250022D01*
X764438Y251511D01*
X786542Y251511D01*
X788031Y250022D01*
X788031Y227918D01*
X786542Y226429D01*
X764438Y226429D01*
G37*
%LPD*%
%LPC*%
G36*
X764595Y837219D02*
X764595Y837219D01*
X760890Y838754D01*
X758054Y841590D01*
X756519Y845295D01*
X756519Y849305D01*
X758054Y853010D01*
X760890Y855846D01*
X764595Y857381D01*
X768605Y857381D01*
X772310Y855846D01*
X775146Y853010D01*
X776681Y849305D01*
X776681Y845295D01*
X775146Y841590D01*
X772310Y838754D01*
X768605Y837219D01*
X764595Y837219D01*
G37*
%LPD*%
%LPC*%
G36*
X650494Y1257319D02*
X650494Y1257319D01*
X647156Y1258702D01*
X644602Y1261256D01*
X643219Y1264594D01*
X643219Y1268206D01*
X644602Y1271544D01*
X647156Y1274098D01*
X650494Y1275481D01*
X654106Y1275481D01*
X657444Y1274098D01*
X659998Y1271544D01*
X661381Y1268206D01*
X661381Y1264594D01*
X659998Y1261256D01*
X657444Y1258702D01*
X654106Y1257319D01*
X650494Y1257319D01*
G37*
%LPD*%
%LPC*%
G36*
X650494Y1028719D02*
X650494Y1028719D01*
X647156Y1030102D01*
X644602Y1032656D01*
X643219Y1035994D01*
X643219Y1039606D01*
X644602Y1042944D01*
X647156Y1045498D01*
X650494Y1046881D01*
X654106Y1046881D01*
X657444Y1045498D01*
X659998Y1042944D01*
X661381Y1039606D01*
X661381Y1035994D01*
X659998Y1032656D01*
X657444Y1030102D01*
X654106Y1028719D01*
X650494Y1028719D01*
G37*
%LPD*%
%LPC*%
G36*
X802894Y1003319D02*
X802894Y1003319D01*
X799556Y1004702D01*
X797002Y1007256D01*
X795619Y1010594D01*
X795619Y1014206D01*
X797002Y1017544D01*
X799556Y1020098D01*
X802894Y1021481D01*
X806506Y1021481D01*
X809844Y1020098D01*
X812398Y1017544D01*
X813781Y1014206D01*
X813781Y1010594D01*
X812398Y1007256D01*
X809844Y1004702D01*
X806506Y1003319D01*
X802894Y1003319D01*
G37*
%LPD*%
%LPC*%
G36*
X650494Y1003319D02*
X650494Y1003319D01*
X647156Y1004702D01*
X644602Y1007256D01*
X643219Y1010594D01*
X643219Y1014206D01*
X644602Y1017544D01*
X647156Y1020098D01*
X650494Y1021481D01*
X654106Y1021481D01*
X657444Y1020098D01*
X659998Y1017544D01*
X661381Y1014206D01*
X661381Y1010594D01*
X659998Y1007256D01*
X657444Y1004702D01*
X654106Y1003319D01*
X650494Y1003319D01*
G37*
%LPD*%
%LPC*%
G36*
X802894Y977919D02*
X802894Y977919D01*
X799556Y979302D01*
X797002Y981856D01*
X795619Y985194D01*
X795619Y988806D01*
X797002Y992144D01*
X799556Y994698D01*
X802894Y996081D01*
X806506Y996081D01*
X809844Y994698D01*
X812398Y992144D01*
X813781Y988806D01*
X813781Y985194D01*
X812398Y981856D01*
X809844Y979302D01*
X806506Y977919D01*
X802894Y977919D01*
G37*
%LPD*%
%LPC*%
G36*
X802894Y1282719D02*
X802894Y1282719D01*
X799556Y1284102D01*
X797002Y1286656D01*
X795619Y1289994D01*
X795619Y1293606D01*
X797002Y1296944D01*
X799556Y1299498D01*
X802894Y1300881D01*
X806506Y1300881D01*
X809844Y1299498D01*
X812398Y1296944D01*
X813781Y1293606D01*
X813781Y1289994D01*
X812398Y1286656D01*
X809844Y1284102D01*
X806506Y1282719D01*
X802894Y1282719D01*
G37*
%LPD*%
%LPC*%
G36*
X650494Y1282719D02*
X650494Y1282719D01*
X647156Y1284102D01*
X644602Y1286656D01*
X643219Y1289994D01*
X643219Y1293606D01*
X644602Y1296944D01*
X647156Y1299498D01*
X650494Y1300881D01*
X654106Y1300881D01*
X657444Y1299498D01*
X659998Y1296944D01*
X661381Y1293606D01*
X661381Y1289994D01*
X659998Y1286656D01*
X657444Y1284102D01*
X654106Y1282719D01*
X650494Y1282719D01*
G37*
%LPD*%
%LPC*%
G36*
X650494Y1130319D02*
X650494Y1130319D01*
X647156Y1131702D01*
X644602Y1134256D01*
X643219Y1137594D01*
X643219Y1141206D01*
X644602Y1144544D01*
X647156Y1147098D01*
X650494Y1148481D01*
X654106Y1148481D01*
X657444Y1147098D01*
X659998Y1144544D01*
X661381Y1141206D01*
X661381Y1137594D01*
X659998Y1134256D01*
X657444Y1131702D01*
X654106Y1130319D01*
X650494Y1130319D01*
G37*
%LPD*%
%LPC*%
G36*
X650494Y1104919D02*
X650494Y1104919D01*
X647156Y1106302D01*
X644602Y1108856D01*
X643219Y1112194D01*
X643219Y1115806D01*
X644602Y1119144D01*
X647156Y1121698D01*
X650494Y1123081D01*
X654106Y1123081D01*
X657444Y1121698D01*
X659998Y1119144D01*
X661381Y1115806D01*
X661381Y1112194D01*
X659998Y1108856D01*
X657444Y1106302D01*
X654106Y1104919D01*
X650494Y1104919D01*
G37*
%LPD*%
%LPC*%
G36*
X802894Y1130319D02*
X802894Y1130319D01*
X799556Y1131702D01*
X797002Y1134256D01*
X795619Y1137594D01*
X795619Y1141206D01*
X797002Y1144544D01*
X799556Y1147098D01*
X802894Y1148481D01*
X806506Y1148481D01*
X809844Y1147098D01*
X812398Y1144544D01*
X813781Y1141206D01*
X813781Y1137594D01*
X812398Y1134256D01*
X809844Y1131702D01*
X806506Y1130319D01*
X802894Y1130319D01*
G37*
%LPD*%
%LPC*%
G36*
X802894Y1104919D02*
X802894Y1104919D01*
X799556Y1106302D01*
X797002Y1108856D01*
X795619Y1112194D01*
X795619Y1115806D01*
X797002Y1119144D01*
X799556Y1121698D01*
X802894Y1123081D01*
X806506Y1123081D01*
X809844Y1121698D01*
X812398Y1119144D01*
X813781Y1115806D01*
X813781Y1112194D01*
X812398Y1108856D01*
X809844Y1106302D01*
X806506Y1104919D01*
X802894Y1104919D01*
G37*
%LPD*%
%LPC*%
G36*
X802894Y1079519D02*
X802894Y1079519D01*
X799556Y1080902D01*
X797002Y1083456D01*
X795619Y1086794D01*
X795619Y1090406D01*
X797002Y1093744D01*
X799556Y1096298D01*
X802894Y1097681D01*
X806506Y1097681D01*
X809844Y1096298D01*
X812398Y1093744D01*
X813781Y1090406D01*
X813781Y1086794D01*
X812398Y1083456D01*
X809844Y1080902D01*
X806506Y1079519D01*
X802894Y1079519D01*
G37*
%LPD*%
%LPC*%
G36*
X802894Y1054119D02*
X802894Y1054119D01*
X799556Y1055502D01*
X797002Y1058056D01*
X795619Y1061394D01*
X795619Y1065006D01*
X797002Y1068344D01*
X799556Y1070898D01*
X802894Y1072281D01*
X806506Y1072281D01*
X809844Y1070898D01*
X812398Y1068344D01*
X813781Y1065006D01*
X813781Y1061394D01*
X812398Y1058056D01*
X809844Y1055502D01*
X806506Y1054119D01*
X802894Y1054119D01*
G37*
%LPD*%
%LPC*%
G36*
X749823Y315423D02*
X749823Y315423D01*
X749823Y331441D01*
X763634Y331441D01*
X764281Y331268D01*
X764860Y330933D01*
X765333Y330460D01*
X765668Y329881D01*
X765841Y329234D01*
X765841Y315423D01*
X749823Y315423D01*
G37*
%LPD*%
%LPC*%
G36*
X749823Y296359D02*
X749823Y296359D01*
X749823Y312377D01*
X765841Y312377D01*
X765841Y298566D01*
X765668Y297919D01*
X765333Y297340D01*
X764860Y296867D01*
X764281Y296532D01*
X763634Y296359D01*
X749823Y296359D01*
G37*
%LPD*%
%LPC*%
G36*
X730759Y315423D02*
X730759Y315423D01*
X730759Y329234D01*
X730932Y329881D01*
X731267Y330460D01*
X731740Y330933D01*
X732319Y331268D01*
X732966Y331441D01*
X746777Y331441D01*
X746777Y315423D01*
X730759Y315423D01*
G37*
%LPD*%
%LPC*%
G36*
X732966Y296359D02*
X732966Y296359D01*
X732319Y296532D01*
X731740Y296867D01*
X731267Y297340D01*
X730932Y297919D01*
X730759Y298566D01*
X730759Y312377D01*
X746777Y312377D01*
X746777Y296359D01*
X732966Y296359D01*
G37*
%LPD*%
%LPC*%
G36*
X498132Y1740109D02*
X498132Y1740109D01*
X494864Y1741463D01*
X492363Y1743964D01*
X491009Y1747232D01*
X491009Y1750768D01*
X492363Y1754036D01*
X494864Y1756537D01*
X498132Y1757891D01*
X501668Y1757891D01*
X504936Y1756537D01*
X507437Y1754036D01*
X508791Y1750768D01*
X508791Y1747232D01*
X507437Y1743964D01*
X504936Y1741463D01*
X501668Y1740109D01*
X498132Y1740109D01*
G37*
%LPD*%
%LPC*%
G36*
X1189632Y1639409D02*
X1189632Y1639409D01*
X1186364Y1640763D01*
X1183863Y1643264D01*
X1182509Y1646532D01*
X1182509Y1650068D01*
X1183863Y1653336D01*
X1186364Y1655837D01*
X1189632Y1657191D01*
X1193168Y1657191D01*
X1196436Y1655837D01*
X1198937Y1653336D01*
X1200291Y1650068D01*
X1200291Y1646532D01*
X1198937Y1643264D01*
X1196436Y1640763D01*
X1193168Y1639409D01*
X1189632Y1639409D01*
G37*
%LPD*%
%LPC*%
G36*
X261832Y1619509D02*
X261832Y1619509D01*
X258564Y1620863D01*
X256063Y1623364D01*
X254709Y1626632D01*
X254709Y1630168D01*
X256063Y1633436D01*
X258564Y1635937D01*
X261832Y1637291D01*
X265368Y1637291D01*
X268636Y1635937D01*
X271137Y1633436D01*
X272491Y1630168D01*
X272491Y1626632D01*
X271137Y1623364D01*
X268636Y1620863D01*
X265368Y1619509D01*
X261832Y1619509D01*
G37*
%LPD*%
%LPC*%
G36*
X1164232Y1614009D02*
X1164232Y1614009D01*
X1160964Y1615363D01*
X1158463Y1617864D01*
X1157109Y1621132D01*
X1157109Y1624668D01*
X1158463Y1627936D01*
X1160964Y1630437D01*
X1164232Y1631791D01*
X1167768Y1631791D01*
X1171036Y1630437D01*
X1173537Y1627936D01*
X1174891Y1624668D01*
X1174891Y1621132D01*
X1173537Y1617864D01*
X1171036Y1615363D01*
X1167768Y1614009D01*
X1164232Y1614009D01*
G37*
%LPD*%
%LPC*%
G36*
X739432Y1765509D02*
X739432Y1765509D01*
X736164Y1766863D01*
X733663Y1769364D01*
X732309Y1772632D01*
X732309Y1776168D01*
X733663Y1779436D01*
X736164Y1781937D01*
X739432Y1783291D01*
X742968Y1783291D01*
X746236Y1781937D01*
X748737Y1779436D01*
X750091Y1776168D01*
X750091Y1772632D01*
X748737Y1769364D01*
X746236Y1766863D01*
X742968Y1765509D01*
X739432Y1765509D01*
G37*
%LPD*%
%LPC*%
G36*
X980732Y1740109D02*
X980732Y1740109D01*
X977464Y1741463D01*
X974963Y1743964D01*
X973609Y1747232D01*
X973609Y1750768D01*
X974963Y1754036D01*
X977464Y1756537D01*
X980732Y1757891D01*
X984268Y1757891D01*
X987536Y1756537D01*
X990037Y1754036D01*
X991391Y1750768D01*
X991391Y1747232D01*
X990037Y1743964D01*
X987536Y1741463D01*
X984268Y1740109D01*
X980732Y1740109D01*
G37*
%LPD*%
%LPC*%
G36*
X714032Y1740109D02*
X714032Y1740109D01*
X710764Y1741463D01*
X708263Y1743964D01*
X706909Y1747232D01*
X706909Y1750768D01*
X708263Y1754036D01*
X710764Y1756537D01*
X714032Y1757891D01*
X717568Y1757891D01*
X720836Y1756537D01*
X723337Y1754036D01*
X724691Y1750768D01*
X724691Y1747232D01*
X723337Y1743964D01*
X720836Y1741463D01*
X717568Y1740109D01*
X714032Y1740109D01*
G37*
%LPD*%
%LPC*%
G36*
X955332Y1714709D02*
X955332Y1714709D01*
X952064Y1716063D01*
X949563Y1718564D01*
X948209Y1721832D01*
X948209Y1725368D01*
X949563Y1728636D01*
X952064Y1731137D01*
X955332Y1732491D01*
X958868Y1732491D01*
X962136Y1731137D01*
X964637Y1728636D01*
X965991Y1725368D01*
X965991Y1721832D01*
X964637Y1718564D01*
X962136Y1716063D01*
X958868Y1714709D01*
X955332Y1714709D01*
G37*
%LPD*%
%LPC*%
G36*
X472732Y1714709D02*
X472732Y1714709D01*
X469464Y1716063D01*
X466963Y1718564D01*
X465609Y1721832D01*
X465609Y1725368D01*
X466963Y1728636D01*
X469464Y1731137D01*
X472732Y1732491D01*
X476268Y1732491D01*
X479536Y1731137D01*
X482037Y1728636D01*
X483391Y1725368D01*
X483391Y1721832D01*
X482037Y1718564D01*
X479536Y1716063D01*
X476268Y1714709D01*
X472732Y1714709D01*
G37*
%LPD*%
%LPC*%
G36*
X287232Y1644909D02*
X287232Y1644909D01*
X283964Y1646263D01*
X281463Y1648764D01*
X280109Y1652032D01*
X280109Y1655568D01*
X281463Y1658836D01*
X283964Y1661337D01*
X287232Y1662691D01*
X290768Y1662691D01*
X294036Y1661337D01*
X296537Y1658836D01*
X297891Y1655568D01*
X297891Y1652032D01*
X296537Y1648764D01*
X294036Y1646263D01*
X290768Y1644909D01*
X287232Y1644909D01*
G37*
%LPD*%
%LPC*%
G36*
X929413Y85553D02*
X929413Y85553D01*
X929413Y96571D01*
X938224Y96571D01*
X938871Y96398D01*
X939450Y96063D01*
X939923Y95590D01*
X940258Y95011D01*
X940431Y94364D01*
X940431Y85553D01*
X929413Y85553D01*
G37*
%LPD*%
%LPC*%
G36*
X624613Y85553D02*
X624613Y85553D01*
X624613Y96571D01*
X633424Y96571D01*
X634071Y96398D01*
X634650Y96063D01*
X635123Y95590D01*
X635458Y95011D01*
X635631Y94364D01*
X635631Y85553D01*
X624613Y85553D01*
G37*
%LPD*%
%LPC*%
G36*
X929413Y240493D02*
X929413Y240493D01*
X929413Y251511D01*
X938224Y251511D01*
X938871Y251338D01*
X939450Y251003D01*
X939923Y250530D01*
X940258Y249951D01*
X940431Y249304D01*
X940431Y240493D01*
X929413Y240493D01*
G37*
%LPD*%
%LPC*%
G36*
X624613Y240493D02*
X624613Y240493D01*
X624613Y251511D01*
X633424Y251511D01*
X634071Y251338D01*
X634650Y251003D01*
X635123Y250530D01*
X635458Y249951D01*
X635631Y249304D01*
X635631Y240493D01*
X624613Y240493D01*
G37*
%LPD*%
%LPC*%
G36*
X777013Y85553D02*
X777013Y85553D01*
X777013Y96571D01*
X785824Y96571D01*
X786471Y96398D01*
X787050Y96063D01*
X787523Y95590D01*
X787858Y95011D01*
X788031Y94364D01*
X788031Y85553D01*
X777013Y85553D01*
G37*
%LPD*%
%LPC*%
G36*
X915349Y85553D02*
X915349Y85553D01*
X915349Y94364D01*
X915522Y95011D01*
X915857Y95590D01*
X916330Y96063D01*
X916909Y96398D01*
X917556Y96571D01*
X926367Y96571D01*
X926367Y85553D01*
X915349Y85553D01*
G37*
%LPD*%
%LPC*%
G36*
X610549Y85553D02*
X610549Y85553D01*
X610549Y94364D01*
X610722Y95011D01*
X611057Y95590D01*
X611530Y96063D01*
X612109Y96398D01*
X612756Y96571D01*
X621567Y96571D01*
X621567Y85553D01*
X610549Y85553D01*
G37*
%LPD*%
%LPC*%
G36*
X915349Y240493D02*
X915349Y240493D01*
X915349Y249304D01*
X915522Y249951D01*
X915857Y250530D01*
X916330Y251003D01*
X916909Y251338D01*
X917556Y251511D01*
X926367Y251511D01*
X926367Y240493D01*
X915349Y240493D01*
G37*
%LPD*%
%LPC*%
G36*
X610549Y240493D02*
X610549Y240493D01*
X610549Y249304D01*
X610722Y249951D01*
X611057Y250530D01*
X611530Y251003D01*
X612109Y251338D01*
X612756Y251511D01*
X621567Y251511D01*
X621567Y240493D01*
X610549Y240493D01*
G37*
%LPD*%
%LPC*%
G36*
X929413Y226429D02*
X929413Y226429D01*
X929413Y237447D01*
X940431Y237447D01*
X940431Y228636D01*
X940258Y227989D01*
X939923Y227410D01*
X939450Y226937D01*
X938871Y226602D01*
X938224Y226429D01*
X929413Y226429D01*
G37*
%LPD*%
%LPC*%
G36*
X624613Y226429D02*
X624613Y226429D01*
X624613Y237447D01*
X635631Y237447D01*
X635631Y228636D01*
X635458Y227989D01*
X635123Y227410D01*
X634650Y226937D01*
X634071Y226602D01*
X633424Y226429D01*
X624613Y226429D01*
G37*
%LPD*%
%LPC*%
G36*
X762949Y85553D02*
X762949Y85553D01*
X762949Y94364D01*
X763122Y95011D01*
X763457Y95590D01*
X763930Y96063D01*
X764509Y96398D01*
X765156Y96571D01*
X773967Y96571D01*
X773967Y85553D01*
X762949Y85553D01*
G37*
%LPD*%
%LPC*%
G36*
X929413Y71489D02*
X929413Y71489D01*
X929413Y82507D01*
X940431Y82507D01*
X940431Y73696D01*
X940258Y73049D01*
X939923Y72470D01*
X939450Y71997D01*
X938871Y71662D01*
X938224Y71489D01*
X929413Y71489D01*
G37*
%LPD*%
%LPC*%
G36*
X777013Y71489D02*
X777013Y71489D01*
X777013Y82507D01*
X788031Y82507D01*
X788031Y73696D01*
X787858Y73049D01*
X787523Y72470D01*
X787050Y71997D01*
X786471Y71662D01*
X785824Y71489D01*
X777013Y71489D01*
G37*
%LPD*%
%LPC*%
G36*
X624613Y71489D02*
X624613Y71489D01*
X624613Y82507D01*
X635631Y82507D01*
X635631Y73696D01*
X635458Y73049D01*
X635123Y72470D01*
X634650Y71997D01*
X634071Y71662D01*
X633424Y71489D01*
X624613Y71489D01*
G37*
%LPD*%
%LPC*%
G36*
X917556Y226429D02*
X917556Y226429D01*
X916909Y226602D01*
X916330Y226937D01*
X915857Y227410D01*
X915522Y227989D01*
X915349Y228636D01*
X915349Y237447D01*
X926367Y237447D01*
X926367Y226429D01*
X917556Y226429D01*
G37*
%LPD*%
%LPC*%
G36*
X612756Y226429D02*
X612756Y226429D01*
X612109Y226602D01*
X611530Y226937D01*
X611057Y227410D01*
X610722Y227989D01*
X610549Y228636D01*
X610549Y237447D01*
X621567Y237447D01*
X621567Y226429D01*
X612756Y226429D01*
G37*
%LPD*%
%LPC*%
G36*
X917556Y71489D02*
X917556Y71489D01*
X916909Y71662D01*
X916330Y71997D01*
X915857Y72470D01*
X915522Y73049D01*
X915349Y73696D01*
X915349Y82507D01*
X926367Y82507D01*
X926367Y71489D01*
X917556Y71489D01*
G37*
%LPD*%
%LPC*%
G36*
X765156Y71489D02*
X765156Y71489D01*
X764509Y71662D01*
X763930Y71997D01*
X763457Y72470D01*
X763122Y73049D01*
X762949Y73696D01*
X762949Y82507D01*
X773967Y82507D01*
X773967Y71489D01*
X765156Y71489D01*
G37*
%LPD*%
%LPC*%
G36*
X612756Y71489D02*
X612756Y71489D01*
X612109Y71662D01*
X611530Y71997D01*
X611057Y72470D01*
X610722Y73049D01*
X610549Y73696D01*
X610549Y82507D01*
X621567Y82507D01*
X621567Y71489D01*
X612756Y71489D01*
G37*
%LPD*%
%LPC*%
G36*
X704623Y455123D02*
X704623Y455123D01*
X704623Y471266D01*
X705479Y471131D01*
X707000Y470636D01*
X708425Y469910D01*
X709719Y468970D01*
X710850Y467839D01*
X711790Y466545D01*
X712516Y465120D01*
X713011Y463599D01*
X713261Y462020D01*
X713261Y455123D01*
X704623Y455123D01*
G37*
%LPD*%
%LPC*%
G36*
X653823Y896577D02*
X653823Y896577D01*
X662461Y896577D01*
X662461Y889680D01*
X662211Y888101D01*
X661716Y886580D01*
X660990Y885155D01*
X660050Y883861D01*
X658919Y882730D01*
X657625Y881790D01*
X656200Y881064D01*
X654679Y880569D01*
X653823Y880434D01*
X653823Y896577D01*
G37*
%LPD*%
%LPC*%
G36*
X704623Y452077D02*
X704623Y452077D01*
X713261Y452077D01*
X713261Y445180D01*
X713011Y443601D01*
X712516Y442080D01*
X711790Y440655D01*
X710850Y439361D01*
X709719Y438230D01*
X708425Y437290D01*
X707000Y436564D01*
X705479Y436069D01*
X704623Y435934D01*
X704623Y452077D01*
G37*
%LPD*%
%LPC*%
G36*
X692939Y455123D02*
X692939Y455123D01*
X692939Y462020D01*
X693189Y463599D01*
X693684Y465120D01*
X694410Y466545D01*
X695350Y467839D01*
X696481Y468970D01*
X697775Y469910D01*
X699200Y470636D01*
X700721Y471131D01*
X701577Y471266D01*
X701577Y455123D01*
X692939Y455123D01*
G37*
%LPD*%
%LPC*%
G36*
X649921Y880569D02*
X649921Y880569D01*
X648400Y881064D01*
X646975Y881790D01*
X645681Y882730D01*
X644550Y883861D01*
X643610Y885155D01*
X642884Y886580D01*
X642389Y888101D01*
X642139Y889680D01*
X642139Y896577D01*
X650777Y896577D01*
X650777Y880434D01*
X649921Y880569D01*
G37*
%LPD*%
%LPC*%
G36*
X700721Y436069D02*
X700721Y436069D01*
X699200Y436564D01*
X697775Y437290D01*
X696481Y438230D01*
X695350Y439361D01*
X694410Y440655D01*
X693684Y442080D01*
X693189Y443601D01*
X692939Y445180D01*
X692939Y452077D01*
X701577Y452077D01*
X701577Y435934D01*
X700721Y436069D01*
G37*
%LPD*%
%LPC*%
G36*
X768123Y823423D02*
X768123Y823423D01*
X768123Y831981D01*
X774474Y831981D01*
X775121Y831808D01*
X775700Y831473D01*
X776173Y831000D01*
X776508Y830421D01*
X776681Y829774D01*
X776681Y823423D01*
X768123Y823423D01*
G37*
%LPD*%
%LPC*%
G36*
X768123Y811819D02*
X768123Y811819D01*
X768123Y820377D01*
X776681Y820377D01*
X776681Y814026D01*
X776508Y813379D01*
X776173Y812800D01*
X775700Y812327D01*
X775121Y811992D01*
X774474Y811819D01*
X768123Y811819D01*
G37*
%LPD*%
%LPC*%
G36*
X650623Y315423D02*
X650623Y315423D01*
X650623Y323941D01*
X655934Y323941D01*
X656581Y323768D01*
X657160Y323433D01*
X657633Y322960D01*
X657968Y322381D01*
X658141Y321734D01*
X658141Y315423D01*
X650623Y315423D01*
G37*
%LPD*%
%LPC*%
G36*
X650623Y303859D02*
X650623Y303859D01*
X650623Y312377D01*
X658141Y312377D01*
X658141Y306066D01*
X657968Y305419D01*
X657633Y304840D01*
X657160Y304367D01*
X656581Y304032D01*
X655934Y303859D01*
X650623Y303859D01*
G37*
%LPD*%
%LPC*%
G36*
X653823Y988523D02*
X653823Y988523D01*
X653823Y995956D01*
X654949Y995732D01*
X656601Y995047D01*
X658089Y994053D01*
X659353Y992789D01*
X660347Y991301D01*
X661032Y989649D01*
X661256Y988523D01*
X653823Y988523D01*
G37*
%LPD*%
%LPC*%
G36*
X806223Y1039323D02*
X806223Y1039323D01*
X806223Y1046756D01*
X807349Y1046532D01*
X809001Y1045847D01*
X810489Y1044853D01*
X811753Y1043589D01*
X812747Y1042101D01*
X813432Y1040449D01*
X813656Y1039323D01*
X806223Y1039323D01*
G37*
%LPD*%
%LPC*%
G36*
X795744Y1039323D02*
X795744Y1039323D01*
X795968Y1040449D01*
X796653Y1042101D01*
X797647Y1043589D01*
X798911Y1044853D01*
X800399Y1045847D01*
X802051Y1046532D01*
X803177Y1046756D01*
X803177Y1039323D01*
X795744Y1039323D01*
G37*
%LPD*%
%LPC*%
G36*
X806223Y1036277D02*
X806223Y1036277D01*
X813656Y1036277D01*
X813432Y1035151D01*
X812747Y1033499D01*
X811753Y1032011D01*
X810489Y1030747D01*
X809001Y1029753D01*
X807349Y1029068D01*
X806223Y1028844D01*
X806223Y1036277D01*
G37*
%LPD*%
%LPC*%
G36*
X653823Y985477D02*
X653823Y985477D01*
X661256Y985477D01*
X661032Y984351D01*
X660347Y982699D01*
X659353Y981211D01*
X658089Y979947D01*
X656601Y978953D01*
X654949Y978268D01*
X653823Y978044D01*
X653823Y985477D01*
G37*
%LPD*%
%LPC*%
G36*
X643344Y988523D02*
X643344Y988523D01*
X643568Y989649D01*
X644253Y991301D01*
X645247Y992789D01*
X646511Y994053D01*
X647999Y995047D01*
X649651Y995732D01*
X650777Y995956D01*
X650777Y988523D01*
X643344Y988523D01*
G37*
%LPD*%
%LPC*%
G36*
X649651Y978268D02*
X649651Y978268D01*
X647999Y978953D01*
X646511Y979947D01*
X645247Y981211D01*
X644253Y982699D01*
X643568Y984351D01*
X643344Y985477D01*
X650777Y985477D01*
X650777Y978044D01*
X649651Y978268D01*
G37*
%LPD*%
%LPC*%
G36*
X802051Y1029068D02*
X802051Y1029068D01*
X800399Y1029753D01*
X798911Y1030747D01*
X797647Y1032011D01*
X796653Y1033499D01*
X795968Y1035151D01*
X795744Y1036277D01*
X803177Y1036277D01*
X803177Y1028844D01*
X802051Y1029068D01*
G37*
%LPD*%
%LPC*%
G36*
X501423Y1725123D02*
X501423Y1725123D01*
X501423Y1732362D01*
X502493Y1732149D01*
X504111Y1731479D01*
X505568Y1730506D01*
X506806Y1729268D01*
X507779Y1727811D01*
X508449Y1726193D01*
X508662Y1725123D01*
X501423Y1725123D01*
G37*
%LPD*%
%LPC*%
G36*
X476023Y1750523D02*
X476023Y1750523D01*
X476023Y1757762D01*
X477093Y1757549D01*
X478711Y1756879D01*
X480168Y1755906D01*
X481406Y1754668D01*
X482379Y1753211D01*
X483049Y1751593D01*
X483262Y1750523D01*
X476023Y1750523D01*
G37*
%LPD*%
%LPC*%
G36*
X984023Y1725123D02*
X984023Y1725123D01*
X984023Y1732362D01*
X985093Y1732149D01*
X986711Y1731479D01*
X988168Y1730506D01*
X989406Y1729268D01*
X990379Y1727811D01*
X991049Y1726193D01*
X991262Y1725123D01*
X984023Y1725123D01*
G37*
%LPD*%
%LPC*%
G36*
X1167523Y1649823D02*
X1167523Y1649823D01*
X1167523Y1657062D01*
X1168593Y1656849D01*
X1170211Y1656179D01*
X1171668Y1655206D01*
X1172906Y1653968D01*
X1173879Y1652511D01*
X1174549Y1650893D01*
X1174762Y1649823D01*
X1167523Y1649823D01*
G37*
%LPD*%
%LPC*%
G36*
X265123Y1655323D02*
X265123Y1655323D01*
X265123Y1662562D01*
X266193Y1662349D01*
X267811Y1661679D01*
X269268Y1660706D01*
X270506Y1659468D01*
X271479Y1658011D01*
X272149Y1656393D01*
X272362Y1655323D01*
X265123Y1655323D01*
G37*
%LPD*%
%LPC*%
G36*
X742723Y1750523D02*
X742723Y1750523D01*
X742723Y1757762D01*
X743793Y1757549D01*
X745411Y1756879D01*
X746868Y1755906D01*
X748106Y1754668D01*
X749079Y1753211D01*
X749749Y1751593D01*
X749962Y1750523D01*
X742723Y1750523D01*
G37*
%LPD*%
%LPC*%
G36*
X958623Y1750523D02*
X958623Y1750523D01*
X958623Y1757762D01*
X959693Y1757549D01*
X961311Y1756879D01*
X962768Y1755906D01*
X964006Y1754668D01*
X964979Y1753211D01*
X965649Y1751593D01*
X965862Y1750523D01*
X958623Y1750523D01*
G37*
%LPD*%
%LPC*%
G36*
X1192923Y1624423D02*
X1192923Y1624423D01*
X1192923Y1631662D01*
X1193993Y1631449D01*
X1195611Y1630779D01*
X1197068Y1629806D01*
X1198306Y1628568D01*
X1199279Y1627111D01*
X1199949Y1625493D01*
X1200162Y1624423D01*
X1192923Y1624423D01*
G37*
%LPD*%
%LPC*%
G36*
X290523Y1629923D02*
X290523Y1629923D01*
X290523Y1637162D01*
X291593Y1636949D01*
X293211Y1636279D01*
X294668Y1635306D01*
X295906Y1634068D01*
X296879Y1632611D01*
X297549Y1630993D01*
X297762Y1629923D01*
X290523Y1629923D01*
G37*
%LPD*%
%LPC*%
G36*
X717323Y1775923D02*
X717323Y1775923D01*
X717323Y1783162D01*
X718393Y1782949D01*
X720011Y1782279D01*
X721468Y1781306D01*
X722706Y1780068D01*
X723679Y1778611D01*
X724349Y1776993D01*
X724562Y1775923D01*
X717323Y1775923D01*
G37*
%LPD*%
%LPC*%
G36*
X501423Y1722077D02*
X501423Y1722077D01*
X508662Y1722077D01*
X508449Y1721007D01*
X507779Y1719389D01*
X506806Y1717932D01*
X505568Y1716694D01*
X504111Y1715721D01*
X502493Y1715051D01*
X501423Y1714838D01*
X501423Y1722077D01*
G37*
%LPD*%
%LPC*%
G36*
X280238Y1629923D02*
X280238Y1629923D01*
X280451Y1630993D01*
X281121Y1632611D01*
X282094Y1634068D01*
X283332Y1635306D01*
X284789Y1636279D01*
X286407Y1636949D01*
X287477Y1637162D01*
X287477Y1629923D01*
X280238Y1629923D01*
G37*
%LPD*%
%LPC*%
G36*
X1157238Y1649823D02*
X1157238Y1649823D01*
X1157451Y1650893D01*
X1158121Y1652511D01*
X1159094Y1653968D01*
X1160332Y1655206D01*
X1161789Y1656179D01*
X1163407Y1656849D01*
X1164477Y1657062D01*
X1164477Y1649823D01*
X1157238Y1649823D01*
G37*
%LPD*%
%LPC*%
G36*
X254838Y1655323D02*
X254838Y1655323D01*
X255051Y1656393D01*
X255721Y1658011D01*
X256694Y1659468D01*
X257932Y1660706D01*
X259389Y1661679D01*
X261007Y1662349D01*
X262077Y1662562D01*
X262077Y1655323D01*
X254838Y1655323D01*
G37*
%LPD*%
%LPC*%
G36*
X984023Y1722077D02*
X984023Y1722077D01*
X991262Y1722077D01*
X991049Y1721007D01*
X990379Y1719389D01*
X989406Y1717932D01*
X988168Y1716694D01*
X986711Y1715721D01*
X985093Y1715051D01*
X984023Y1714838D01*
X984023Y1722077D01*
G37*
%LPD*%
%LPC*%
G36*
X476023Y1747477D02*
X476023Y1747477D01*
X483262Y1747477D01*
X483049Y1746407D01*
X482379Y1744789D01*
X481406Y1743332D01*
X480168Y1742094D01*
X478711Y1741121D01*
X477093Y1740451D01*
X476023Y1740238D01*
X476023Y1747477D01*
G37*
%LPD*%
%LPC*%
G36*
X973738Y1725123D02*
X973738Y1725123D01*
X973951Y1726193D01*
X974621Y1727811D01*
X975594Y1729268D01*
X976832Y1730506D01*
X978289Y1731479D01*
X979907Y1732149D01*
X980977Y1732362D01*
X980977Y1725123D01*
X973738Y1725123D01*
G37*
%LPD*%
%LPC*%
G36*
X465738Y1750523D02*
X465738Y1750523D01*
X465951Y1751593D01*
X466621Y1753211D01*
X467594Y1754668D01*
X468832Y1755906D01*
X470289Y1756879D01*
X471907Y1757549D01*
X472977Y1757762D01*
X472977Y1750523D01*
X465738Y1750523D01*
G37*
%LPD*%
%LPC*%
G36*
X491138Y1725123D02*
X491138Y1725123D01*
X491351Y1726193D01*
X492021Y1727811D01*
X492994Y1729268D01*
X494232Y1730506D01*
X495689Y1731479D01*
X497307Y1732149D01*
X498377Y1732362D01*
X498377Y1725123D01*
X491138Y1725123D01*
G37*
%LPD*%
%LPC*%
G36*
X742723Y1747477D02*
X742723Y1747477D01*
X749962Y1747477D01*
X749749Y1746407D01*
X749079Y1744789D01*
X748106Y1743332D01*
X746868Y1742094D01*
X745411Y1741121D01*
X743793Y1740451D01*
X742723Y1740238D01*
X742723Y1747477D01*
G37*
%LPD*%
%LPC*%
G36*
X958623Y1747477D02*
X958623Y1747477D01*
X965862Y1747477D01*
X965649Y1746407D01*
X964979Y1744789D01*
X964006Y1743332D01*
X962768Y1742094D01*
X961311Y1741121D01*
X959693Y1740451D01*
X958623Y1740238D01*
X958623Y1747477D01*
G37*
%LPD*%
%LPC*%
G36*
X732438Y1750523D02*
X732438Y1750523D01*
X732651Y1751593D01*
X733321Y1753211D01*
X734294Y1754668D01*
X735532Y1755906D01*
X736989Y1756879D01*
X738607Y1757549D01*
X739677Y1757762D01*
X739677Y1750523D01*
X732438Y1750523D01*
G37*
%LPD*%
%LPC*%
G36*
X948338Y1750523D02*
X948338Y1750523D01*
X948551Y1751593D01*
X949221Y1753211D01*
X950194Y1754668D01*
X951432Y1755906D01*
X952889Y1756879D01*
X954507Y1757549D01*
X955577Y1757762D01*
X955577Y1750523D01*
X948338Y1750523D01*
G37*
%LPD*%
%LPC*%
G36*
X717323Y1772877D02*
X717323Y1772877D01*
X724562Y1772877D01*
X724349Y1771807D01*
X723679Y1770189D01*
X722706Y1768732D01*
X721468Y1767494D01*
X720011Y1766521D01*
X718393Y1765851D01*
X717323Y1765638D01*
X717323Y1772877D01*
G37*
%LPD*%
%LPC*%
G36*
X707038Y1775923D02*
X707038Y1775923D01*
X707251Y1776993D01*
X707921Y1778611D01*
X708894Y1780068D01*
X710132Y1781306D01*
X711589Y1782279D01*
X713207Y1782949D01*
X714277Y1783162D01*
X714277Y1775923D01*
X707038Y1775923D01*
G37*
%LPD*%
%LPC*%
G36*
X290523Y1626877D02*
X290523Y1626877D01*
X297762Y1626877D01*
X297549Y1625807D01*
X296879Y1624189D01*
X295906Y1622732D01*
X294668Y1621494D01*
X293211Y1620521D01*
X291593Y1619851D01*
X290523Y1619638D01*
X290523Y1626877D01*
G37*
%LPD*%
%LPC*%
G36*
X1182638Y1624423D02*
X1182638Y1624423D01*
X1182851Y1625493D01*
X1183521Y1627111D01*
X1184494Y1628568D01*
X1185732Y1629806D01*
X1187189Y1630779D01*
X1188807Y1631449D01*
X1189877Y1631662D01*
X1189877Y1624423D01*
X1182638Y1624423D01*
G37*
%LPD*%
%LPC*%
G36*
X1192923Y1621377D02*
X1192923Y1621377D01*
X1200162Y1621377D01*
X1199949Y1620307D01*
X1199279Y1618689D01*
X1198306Y1617232D01*
X1197068Y1615994D01*
X1195611Y1615021D01*
X1193993Y1614351D01*
X1192923Y1614138D01*
X1192923Y1621377D01*
G37*
%LPD*%
%LPC*%
G36*
X1167523Y1646777D02*
X1167523Y1646777D01*
X1174762Y1646777D01*
X1174549Y1645707D01*
X1173879Y1644089D01*
X1172906Y1642632D01*
X1171668Y1641394D01*
X1170211Y1640421D01*
X1168593Y1639751D01*
X1167523Y1639538D01*
X1167523Y1646777D01*
G37*
%LPD*%
%LPC*%
G36*
X265123Y1652277D02*
X265123Y1652277D01*
X272362Y1652277D01*
X272149Y1651207D01*
X271479Y1649589D01*
X270506Y1648132D01*
X269268Y1646894D01*
X267811Y1645921D01*
X266193Y1645251D01*
X265123Y1645038D01*
X265123Y1652277D01*
G37*
%LPD*%
%LPC*%
G36*
X286407Y1619851D02*
X286407Y1619851D01*
X284789Y1620521D01*
X283332Y1621494D01*
X282094Y1622732D01*
X281121Y1624189D01*
X280451Y1625807D01*
X280238Y1626877D01*
X287477Y1626877D01*
X287477Y1619638D01*
X286407Y1619851D01*
G37*
%LPD*%
%LPC*%
G36*
X954507Y1740451D02*
X954507Y1740451D01*
X952889Y1741121D01*
X951432Y1742094D01*
X950194Y1743332D01*
X949221Y1744789D01*
X948551Y1746407D01*
X948338Y1747477D01*
X955577Y1747477D01*
X955577Y1740238D01*
X954507Y1740451D01*
G37*
%LPD*%
%LPC*%
G36*
X979907Y1715051D02*
X979907Y1715051D01*
X978289Y1715721D01*
X976832Y1716694D01*
X975594Y1717932D01*
X974621Y1719389D01*
X973951Y1721007D01*
X973738Y1722077D01*
X980977Y1722077D01*
X980977Y1714838D01*
X979907Y1715051D01*
G37*
%LPD*%
%LPC*%
G36*
X471907Y1740451D02*
X471907Y1740451D01*
X470289Y1741121D01*
X468832Y1742094D01*
X467594Y1743332D01*
X466621Y1744789D01*
X465951Y1746407D01*
X465738Y1747477D01*
X472977Y1747477D01*
X472977Y1740238D01*
X471907Y1740451D01*
G37*
%LPD*%
%LPC*%
G36*
X713207Y1765851D02*
X713207Y1765851D01*
X711589Y1766521D01*
X710132Y1767494D01*
X708894Y1768732D01*
X707921Y1770189D01*
X707251Y1771807D01*
X707038Y1772877D01*
X714277Y1772877D01*
X714277Y1765638D01*
X713207Y1765851D01*
G37*
%LPD*%
%LPC*%
G36*
X738607Y1740451D02*
X738607Y1740451D01*
X736989Y1741121D01*
X735532Y1742094D01*
X734294Y1743332D01*
X733321Y1744789D01*
X732651Y1746407D01*
X732438Y1747477D01*
X739677Y1747477D01*
X739677Y1740238D01*
X738607Y1740451D01*
G37*
%LPD*%
%LPC*%
G36*
X497307Y1715051D02*
X497307Y1715051D01*
X495689Y1715721D01*
X494232Y1716694D01*
X492994Y1717932D01*
X492021Y1719389D01*
X491351Y1721007D01*
X491138Y1722077D01*
X498377Y1722077D01*
X498377Y1714838D01*
X497307Y1715051D01*
G37*
%LPD*%
%LPC*%
G36*
X1163407Y1639751D02*
X1163407Y1639751D01*
X1161789Y1640421D01*
X1160332Y1641394D01*
X1159094Y1642632D01*
X1158121Y1644089D01*
X1157451Y1645707D01*
X1157238Y1646777D01*
X1164477Y1646777D01*
X1164477Y1639538D01*
X1163407Y1639751D01*
G37*
%LPD*%
%LPC*%
G36*
X1188807Y1614351D02*
X1188807Y1614351D01*
X1187189Y1615021D01*
X1185732Y1615994D01*
X1184494Y1617232D01*
X1183521Y1618689D01*
X1182851Y1620307D01*
X1182638Y1621377D01*
X1189877Y1621377D01*
X1189877Y1614138D01*
X1188807Y1614351D01*
G37*
%LPD*%
%LPC*%
G36*
X261007Y1645251D02*
X261007Y1645251D01*
X259389Y1645921D01*
X257932Y1646894D01*
X256694Y1648132D01*
X255721Y1649589D01*
X255051Y1651207D01*
X254838Y1652277D01*
X262077Y1652277D01*
X262077Y1645038D01*
X261007Y1645251D01*
G37*
%LPD*%
%LPC*%
G36*
X263599Y1653799D02*
X263599Y1653799D01*
X263599Y1653801D01*
X263601Y1653801D01*
X263601Y1653799D01*
X263599Y1653799D01*
G37*
%LPD*%
%LPC*%
G36*
X1191399Y1622899D02*
X1191399Y1622899D01*
X1191399Y1622901D01*
X1191401Y1622901D01*
X1191401Y1622899D01*
X1191399Y1622899D01*
G37*
%LPD*%
%LPC*%
G36*
X741199Y1748999D02*
X741199Y1748999D01*
X741199Y1749001D01*
X741201Y1749001D01*
X741201Y1748999D01*
X741199Y1748999D01*
G37*
%LPD*%
%LPC*%
G36*
X499899Y1723599D02*
X499899Y1723599D01*
X499899Y1723601D01*
X499901Y1723601D01*
X499901Y1723599D01*
X499899Y1723599D01*
G37*
%LPD*%
%LPC*%
G36*
X982499Y1723599D02*
X982499Y1723599D01*
X982499Y1723601D01*
X982501Y1723601D01*
X982501Y1723599D01*
X982499Y1723599D01*
G37*
%LPD*%
%LPC*%
G36*
X927889Y238969D02*
X927889Y238969D01*
X927889Y238971D01*
X927891Y238971D01*
X927891Y238969D01*
X927889Y238969D01*
G37*
%LPD*%
%LPC*%
G36*
X927889Y84029D02*
X927889Y84029D01*
X927889Y84031D01*
X927891Y84031D01*
X927891Y84029D01*
X927889Y84029D01*
G37*
%LPD*%
%LPC*%
G36*
X775489Y84029D02*
X775489Y84029D01*
X775489Y84031D01*
X775491Y84031D01*
X775491Y84029D01*
X775489Y84029D01*
G37*
%LPD*%
%LPC*%
G36*
X623089Y84029D02*
X623089Y84029D01*
X623089Y84031D01*
X623091Y84031D01*
X623091Y84029D01*
X623089Y84029D01*
G37*
%LPD*%
%LPC*%
G36*
X623089Y238969D02*
X623089Y238969D01*
X623089Y238971D01*
X623091Y238971D01*
X623091Y238969D01*
X623089Y238969D01*
G37*
%LPD*%
%LPC*%
G36*
X804699Y1037799D02*
X804699Y1037799D01*
X804699Y1037801D01*
X804701Y1037801D01*
X804701Y1037799D01*
X804699Y1037799D01*
G37*
%LPD*%
%LPC*%
G36*
X288999Y1628399D02*
X288999Y1628399D01*
X288999Y1628401D01*
X289001Y1628401D01*
X289001Y1628399D01*
X288999Y1628399D01*
G37*
%LPD*%
%LPC*%
G36*
X703099Y453599D02*
X703099Y453599D01*
X703099Y453601D01*
X703101Y453601D01*
X703101Y453599D01*
X703099Y453599D01*
G37*
%LPD*%
%LPC*%
G36*
X715799Y1774399D02*
X715799Y1774399D01*
X715799Y1774401D01*
X715801Y1774401D01*
X715801Y1774399D01*
X715799Y1774399D01*
G37*
%LPD*%
%LPC*%
G36*
X748299Y313899D02*
X748299Y313899D01*
X748299Y313901D01*
X748301Y313901D01*
X748301Y313899D01*
X748299Y313899D01*
G37*
%LPD*%
%LPC*%
G36*
X1165999Y1648299D02*
X1165999Y1648299D01*
X1165999Y1648301D01*
X1166001Y1648301D01*
X1166001Y1648299D01*
X1165999Y1648299D01*
G37*
%LPD*%
%LPC*%
G36*
X474499Y1748999D02*
X474499Y1748999D01*
X474499Y1749001D01*
X474501Y1749001D01*
X474501Y1748999D01*
X474499Y1748999D01*
G37*
%LPD*%
%LPC*%
G36*
X957099Y1748999D02*
X957099Y1748999D01*
X957099Y1749001D01*
X957101Y1749001D01*
X957101Y1748999D01*
X957099Y1748999D01*
G37*
%LPD*%
%LPC*%
G36*
X652299Y986999D02*
X652299Y986999D01*
X652299Y987001D01*
X652301Y987001D01*
X652301Y986999D01*
X652299Y986999D01*
G37*
%LPD*%
D10*
X652300Y1317200D03*
D11*
X652300Y1291800D03*
X652300Y1266400D03*
X652300Y1241000D03*
X652300Y1215600D03*
X652300Y1190200D03*
X652300Y1164800D03*
X652300Y1139400D03*
X652300Y1114000D03*
X652300Y1088600D03*
X652300Y1063200D03*
X652300Y1037800D03*
X652300Y1012400D03*
X652300Y987000D03*
X652300Y961600D03*
X804700Y961600D03*
X804700Y987000D03*
X804700Y1012400D03*
X804700Y1037800D03*
X804700Y1063200D03*
X804700Y1088600D03*
X804700Y1114000D03*
X804700Y1139400D03*
X804700Y1164800D03*
X804700Y1190200D03*
X804700Y1215600D03*
X804700Y1241000D03*
X804700Y1266400D03*
X804700Y1291800D03*
X804700Y1317200D03*
D12*
X652300Y905720D02*
X652300Y890480D01*
X677700Y890480D02*
X677700Y905720D01*
X779300Y461220D02*
X779300Y445980D01*
X753900Y445980D02*
X753900Y461220D01*
X728500Y461220D02*
X728500Y445980D01*
X703100Y445980D02*
X703100Y461220D01*
D13*
X649100Y313900D03*
X630100Y313900D03*
X630100Y339300D03*
X649100Y339300D03*
D14*
X753900Y793300D03*
X753900Y774300D03*
X703100Y793300D03*
X703100Y774300D03*
D15*
X499900Y1723600D03*
X474500Y1723600D03*
X474500Y1749000D03*
X499900Y1749000D03*
X289000Y1628400D03*
X263600Y1628400D03*
X263600Y1653800D03*
X289000Y1653800D03*
D16*
X775490Y84030D03*
X681510Y84030D03*
X681510Y238970D03*
X775490Y238970D03*
X927890Y84030D03*
X833910Y84030D03*
X833910Y238970D03*
X927890Y238970D03*
X623090Y84030D03*
X529110Y84030D03*
X529110Y238970D03*
X623090Y238970D03*
D17*
X766600Y821900D03*
D18*
X741200Y821900D03*
X715800Y821900D03*
X715800Y847300D03*
X741200Y847300D03*
X766600Y847300D03*
X690400Y847300D03*
D17*
X690400Y821900D03*
D15*
X1191400Y1622900D03*
X1166000Y1622900D03*
X1166000Y1648300D03*
X1191400Y1648300D03*
X982500Y1723600D03*
X957100Y1723600D03*
X957100Y1749000D03*
X982500Y1749000D03*
X741200Y1749000D03*
X715800Y1749000D03*
X715800Y1774400D03*
X741200Y1774400D03*
D19*
X748300Y313900D03*
D20*
X708700Y313900D03*
D12*
X372900Y29420D02*
X372900Y14180D01*
X347500Y14180D02*
X347500Y29420D01*
X1096800Y29420D02*
X1096800Y14180D01*
X1071400Y14180D02*
X1071400Y29420D01*
D21*
X715800Y1177500D03*
D22*
X728500Y1190200D01*
X804700Y1190200D01*
D21*
X360200Y161500D03*
X1084100Y161500D03*
D23*
X708700Y282900D02*
X708700Y313900D01*
X708700Y282900D02*
X728500Y263100D01*
X728500Y131020D01*
X681510Y84030D01*
D24*
X576100Y131020D02*
X529110Y84030D01*
X576100Y131020D02*
X728500Y131020D01*
D25*
X786920Y131020D02*
X833910Y84030D01*
X786920Y131020D02*
X728500Y131020D01*
D22*
X708700Y313900D02*
X703100Y313900D01*
X677700Y339300D01*
X649100Y339300D01*
D24*
X652300Y961600D02*
X639600Y961600D01*
X626900Y948900D01*
X708700Y333700D02*
X708700Y313900D01*
X626900Y415500D02*
X626900Y948900D01*
X626900Y415500D02*
X708700Y333700D01*
D21*
X1046000Y186900D03*
D26*
X1020600Y212300D01*
X1020600Y326600D02*
X842800Y504400D01*
X842800Y1152100D01*
X830100Y1164800D01*
X804700Y1164800D01*
X1020600Y326600D02*
X1020600Y212300D01*
D21*
X1046000Y199600D03*
D26*
X1033300Y212300D01*
X855500Y1215600D02*
X842800Y1228300D01*
X792000Y1228300D01*
X779300Y1241000D01*
X779300Y1253700D01*
X792000Y1266400D01*
X804700Y1266400D01*
X1033300Y326600D02*
X1033300Y212300D01*
X1033300Y326600D02*
X855500Y504400D01*
X855500Y1215600D01*
D21*
X1046000Y212300D03*
D26*
X1046000Y326600D01*
X868200Y504400D02*
X868200Y1228300D01*
X855500Y1241000D01*
X804700Y1241000D01*
X868200Y504400D02*
X1046000Y326600D01*
D21*
X436400Y123400D03*
D12*
X436400Y34500D01*
X468800Y2100D01*
X950100Y2100D01*
X969800Y21800D01*
X969800Y110700D01*
D21*
X969800Y110700D03*
D22*
X630100Y313900D02*
X630100Y339300D01*
X614200Y1025100D02*
X652300Y1063200D01*
X614200Y355200D02*
X630100Y339300D01*
X614200Y355200D02*
X614200Y1025100D01*
D21*
X995200Y1660100D03*
D22*
X931700Y1596600D01*
X665000Y1596600D02*
X639600Y1571200D01*
X639600Y1393400D01*
X677700Y1253700D02*
X665000Y1241000D01*
X652300Y1241000D01*
X665000Y1596600D02*
X931700Y1596600D01*
X677700Y1355300D02*
X639600Y1393400D01*
X677700Y1355300D02*
X677700Y1253700D01*
D21*
X982500Y1660100D03*
D22*
X931700Y1609300D01*
X665000Y1609300D02*
X626900Y1571200D01*
X626900Y1228300D01*
X639600Y1215600D01*
X652300Y1215600D01*
X665000Y1609300D02*
X931700Y1609300D01*
D21*
X690400Y1672800D03*
D22*
X614200Y1596600D01*
X614200Y1202900D02*
X626900Y1190200D01*
X652300Y1190200D01*
X614200Y1202900D02*
X614200Y1596600D01*
D21*
X474500Y1660100D03*
D22*
X518300Y1616300D01*
X556400Y1616300D01*
X601500Y1571200D01*
X601500Y1177500D02*
X614200Y1164800D01*
X652300Y1164800D01*
X601500Y1177500D02*
X601500Y1571200D01*
D21*
X538000Y1596600D03*
D22*
X563400Y1596600D01*
X588800Y1571200D02*
X588800Y1101300D01*
X601500Y1088600D01*
X652300Y1088600D01*
X588800Y1571200D02*
X563400Y1596600D01*
X753900Y834600D02*
X753900Y793300D01*
X753900Y834600D02*
X741200Y847300D01*
X703100Y834600D02*
X703100Y793300D01*
X703100Y834600D02*
X715800Y847300D01*
D21*
X652300Y793300D03*
D22*
X652300Y834600D01*
X677700Y860000D01*
X677700Y898100D01*
D21*
X360200Y174200D03*
D22*
X601500Y415500D01*
D21*
X601500Y415500D03*
X1084100Y174200D03*
D22*
X1046000Y174200D01*
X906300Y428200D02*
X855500Y428200D01*
X1007900Y212300D02*
X1046000Y174200D01*
X1007900Y212300D02*
X1007900Y326600D01*
X906300Y428200D01*
D21*
X855500Y428200D03*
D22*
X703100Y774300D02*
X674500Y774300D01*
X703100Y774300D02*
X753900Y774300D01*
D21*
X674500Y774300D03*
D24*
X665000Y821900D02*
X690400Y847300D01*
X665000Y821900D02*
X665000Y783800D01*
X674500Y774300D01*
M02*
