G04 EAGLE Gerber RS-274X export*
G75*
%MOMM*%
%FSLAX34Y34*%
%LPD*%
%IN*%
%IPPOS*%
%AMOC8*
5,1,8,0,0,1.08239X$1,22.5*%
G01*
%ADD10C,0.254000*%


D10*
X30000Y-29000D02*
X1427000Y-29000D01*
X1427000Y237700D01*
X1160300Y237700D01*
X893600Y504400D01*
X893600Y1571200D01*
X1300000Y1571200D01*
X1298985Y1594444D01*
X1295948Y1617512D01*
X1290912Y1640227D01*
X1283916Y1662417D01*
X1275012Y1683912D01*
X1264269Y1704550D01*
X1251768Y1724173D01*
X1237604Y1742631D01*
X1221885Y1759785D01*
X1204731Y1775504D01*
X1186273Y1789668D01*
X1166650Y1802169D01*
X1146012Y1812912D01*
X1124517Y1821816D01*
X1102327Y1828812D01*
X1079612Y1833848D01*
X1056544Y1836885D01*
X1033300Y1837900D01*
X423700Y1837900D01*
X400456Y1836885D01*
X377388Y1833848D01*
X354673Y1828812D01*
X332483Y1821816D01*
X310988Y1812912D01*
X290350Y1802169D01*
X270727Y1789668D01*
X252269Y1775504D01*
X235115Y1759785D01*
X219396Y1742631D01*
X205232Y1724173D01*
X192731Y1704550D01*
X181988Y1683912D01*
X173084Y1662417D01*
X166088Y1640227D01*
X161052Y1617512D01*
X158015Y1594444D01*
X157000Y1571200D01*
X563400Y1571200D01*
X563400Y504400D01*
X296700Y237700D01*
X30000Y237700D01*
X30000Y-29000D01*
X420700Y1672448D02*
X420629Y1671547D01*
X420488Y1670655D01*
X420277Y1669776D01*
X419998Y1668917D01*
X419652Y1668082D01*
X419241Y1667277D01*
X418769Y1666506D01*
X418238Y1665775D01*
X417651Y1665088D01*
X417012Y1664449D01*
X416325Y1663862D01*
X415594Y1663331D01*
X414823Y1662859D01*
X414018Y1662448D01*
X413183Y1662102D01*
X412324Y1661823D01*
X411445Y1661612D01*
X410553Y1661471D01*
X409652Y1661400D01*
X408748Y1661400D01*
X407847Y1661471D01*
X406955Y1661612D01*
X406076Y1661823D01*
X405217Y1662102D01*
X404382Y1662448D01*
X403577Y1662859D01*
X402806Y1663331D01*
X402075Y1663862D01*
X401388Y1664449D01*
X400749Y1665088D01*
X400162Y1665775D01*
X399631Y1666506D01*
X399159Y1667277D01*
X398748Y1668082D01*
X398402Y1668917D01*
X398123Y1669776D01*
X397912Y1670655D01*
X397771Y1671547D01*
X397700Y1672448D01*
X397700Y1673352D01*
X397771Y1674253D01*
X397912Y1675145D01*
X398123Y1676024D01*
X398402Y1676883D01*
X398748Y1677718D01*
X399159Y1678523D01*
X399631Y1679294D01*
X400162Y1680025D01*
X400749Y1680712D01*
X401388Y1681351D01*
X402075Y1681938D01*
X402806Y1682469D01*
X403577Y1682941D01*
X404382Y1683352D01*
X405217Y1683698D01*
X406076Y1683977D01*
X406955Y1684188D01*
X407847Y1684329D01*
X408748Y1684400D01*
X409652Y1684400D01*
X410553Y1684329D01*
X411445Y1684188D01*
X412324Y1683977D01*
X413183Y1683698D01*
X414018Y1683352D01*
X414823Y1682941D01*
X415594Y1682469D01*
X416325Y1681938D01*
X417012Y1681351D01*
X417651Y1680712D01*
X418238Y1680025D01*
X418769Y1679294D01*
X419241Y1678523D01*
X419652Y1677718D01*
X419998Y1676883D01*
X420277Y1676024D01*
X420488Y1675145D01*
X420629Y1674253D01*
X420700Y1673352D01*
X420700Y1672448D01*
X324900Y1767848D02*
X324829Y1766947D01*
X324688Y1766055D01*
X324477Y1765176D01*
X324198Y1764317D01*
X323852Y1763482D01*
X323441Y1762677D01*
X322969Y1761906D01*
X322438Y1761175D01*
X321851Y1760488D01*
X321212Y1759849D01*
X320525Y1759262D01*
X319794Y1758731D01*
X319023Y1758259D01*
X318218Y1757848D01*
X317383Y1757502D01*
X316524Y1757223D01*
X315645Y1757012D01*
X314753Y1756871D01*
X313852Y1756800D01*
X312948Y1756800D01*
X312047Y1756871D01*
X311155Y1757012D01*
X310276Y1757223D01*
X309417Y1757502D01*
X308582Y1757848D01*
X307777Y1758259D01*
X307006Y1758731D01*
X306275Y1759262D01*
X305588Y1759849D01*
X304949Y1760488D01*
X304362Y1761175D01*
X303831Y1761906D01*
X303359Y1762677D01*
X302948Y1763482D01*
X302602Y1764317D01*
X302323Y1765176D01*
X302112Y1766055D01*
X301971Y1766947D01*
X301900Y1767848D01*
X301900Y1768752D01*
X301971Y1769653D01*
X302112Y1770545D01*
X302323Y1771424D01*
X302602Y1772283D01*
X302948Y1773118D01*
X303359Y1773923D01*
X303831Y1774694D01*
X304362Y1775425D01*
X304949Y1776112D01*
X305588Y1776751D01*
X306275Y1777338D01*
X307006Y1777869D01*
X307777Y1778341D01*
X308582Y1778752D01*
X309417Y1779098D01*
X310276Y1779377D01*
X311155Y1779588D01*
X312047Y1779729D01*
X312948Y1779800D01*
X313852Y1779800D01*
X314753Y1779729D01*
X315645Y1779588D01*
X316524Y1779377D01*
X317383Y1779098D01*
X318218Y1778752D01*
X319023Y1778341D01*
X319794Y1777869D01*
X320525Y1777338D01*
X321212Y1776751D01*
X321851Y1776112D01*
X322438Y1775425D01*
X322969Y1774694D01*
X323441Y1773923D01*
X323852Y1773118D01*
X324198Y1772283D01*
X324477Y1771424D01*
X324688Y1770545D01*
X324829Y1769653D01*
X324900Y1768752D01*
X324900Y1767848D01*
X1159700Y1764948D02*
X1159629Y1764047D01*
X1159488Y1763155D01*
X1159277Y1762276D01*
X1158998Y1761417D01*
X1158652Y1760582D01*
X1158241Y1759777D01*
X1157769Y1759006D01*
X1157238Y1758275D01*
X1156651Y1757588D01*
X1156012Y1756949D01*
X1155325Y1756362D01*
X1154594Y1755831D01*
X1153823Y1755359D01*
X1153018Y1754948D01*
X1152183Y1754602D01*
X1151324Y1754323D01*
X1150445Y1754112D01*
X1149553Y1753971D01*
X1148652Y1753900D01*
X1147748Y1753900D01*
X1146847Y1753971D01*
X1145955Y1754112D01*
X1145076Y1754323D01*
X1144217Y1754602D01*
X1143382Y1754948D01*
X1142577Y1755359D01*
X1141806Y1755831D01*
X1141075Y1756362D01*
X1140388Y1756949D01*
X1139749Y1757588D01*
X1139162Y1758275D01*
X1138631Y1759006D01*
X1138159Y1759777D01*
X1137748Y1760582D01*
X1137402Y1761417D01*
X1137123Y1762276D01*
X1136912Y1763155D01*
X1136771Y1764047D01*
X1136700Y1764948D01*
X1136700Y1765852D01*
X1136771Y1766753D01*
X1136912Y1767645D01*
X1137123Y1768524D01*
X1137402Y1769383D01*
X1137748Y1770218D01*
X1138159Y1771023D01*
X1138631Y1771794D01*
X1139162Y1772525D01*
X1139749Y1773212D01*
X1140388Y1773851D01*
X1141075Y1774438D01*
X1141806Y1774969D01*
X1142577Y1775441D01*
X1143382Y1775852D01*
X1144217Y1776198D01*
X1145076Y1776477D01*
X1145955Y1776688D01*
X1146847Y1776829D01*
X1147748Y1776900D01*
X1148652Y1776900D01*
X1149553Y1776829D01*
X1150445Y1776688D01*
X1151324Y1776477D01*
X1152183Y1776198D01*
X1153018Y1775852D01*
X1153823Y1775441D01*
X1154594Y1774969D01*
X1155325Y1774438D01*
X1156012Y1773851D01*
X1156651Y1773212D01*
X1157238Y1772525D01*
X1157769Y1771794D01*
X1158241Y1771023D01*
X1158652Y1770218D01*
X1158998Y1769383D01*
X1159277Y1768524D01*
X1159488Y1767645D01*
X1159629Y1766753D01*
X1159700Y1765852D01*
X1159700Y1764948D01*
X1065200Y1669448D02*
X1065129Y1668547D01*
X1064988Y1667655D01*
X1064777Y1666776D01*
X1064498Y1665917D01*
X1064152Y1665082D01*
X1063741Y1664277D01*
X1063269Y1663506D01*
X1062738Y1662775D01*
X1062151Y1662088D01*
X1061512Y1661449D01*
X1060825Y1660862D01*
X1060094Y1660331D01*
X1059323Y1659859D01*
X1058518Y1659448D01*
X1057683Y1659102D01*
X1056824Y1658823D01*
X1055945Y1658612D01*
X1055053Y1658471D01*
X1054152Y1658400D01*
X1053248Y1658400D01*
X1052347Y1658471D01*
X1051455Y1658612D01*
X1050576Y1658823D01*
X1049717Y1659102D01*
X1048882Y1659448D01*
X1048077Y1659859D01*
X1047306Y1660331D01*
X1046575Y1660862D01*
X1045888Y1661449D01*
X1045249Y1662088D01*
X1044662Y1662775D01*
X1044131Y1663506D01*
X1043659Y1664277D01*
X1043248Y1665082D01*
X1042902Y1665917D01*
X1042623Y1666776D01*
X1042412Y1667655D01*
X1042271Y1668547D01*
X1042200Y1669448D01*
X1042200Y1670352D01*
X1042271Y1671253D01*
X1042412Y1672145D01*
X1042623Y1673024D01*
X1042902Y1673883D01*
X1043248Y1674718D01*
X1043659Y1675523D01*
X1044131Y1676294D01*
X1044662Y1677025D01*
X1045249Y1677712D01*
X1045888Y1678351D01*
X1046575Y1678938D01*
X1047306Y1679469D01*
X1048077Y1679941D01*
X1048882Y1680352D01*
X1049717Y1680698D01*
X1050576Y1680977D01*
X1051455Y1681188D01*
X1052347Y1681329D01*
X1053248Y1681400D01*
X1054152Y1681400D01*
X1055053Y1681329D01*
X1055945Y1681188D01*
X1056824Y1680977D01*
X1057683Y1680698D01*
X1058518Y1680352D01*
X1059323Y1679941D01*
X1060094Y1679469D01*
X1060825Y1678938D01*
X1061512Y1678351D01*
X1062151Y1677712D01*
X1062738Y1677025D01*
X1063269Y1676294D01*
X1063741Y1675523D01*
X1064152Y1674718D01*
X1064498Y1673883D01*
X1064777Y1673024D01*
X1064988Y1672145D01*
X1065129Y1671253D01*
X1065200Y1670352D01*
X1065200Y1669448D01*
X651912Y1333710D02*
X651139Y1333778D01*
X650374Y1333912D01*
X649624Y1334113D01*
X648895Y1334379D01*
X648191Y1334707D01*
X647519Y1335095D01*
X646883Y1335540D01*
X646288Y1336039D01*
X645739Y1336588D01*
X645240Y1337183D01*
X644795Y1337819D01*
X644407Y1338491D01*
X644079Y1339195D01*
X643813Y1339924D01*
X643612Y1340674D01*
X643478Y1341439D01*
X643410Y1342212D01*
X643410Y1342988D01*
X643478Y1343761D01*
X643612Y1344526D01*
X643813Y1345276D01*
X644079Y1346005D01*
X644407Y1346709D01*
X644795Y1347381D01*
X645240Y1348017D01*
X645739Y1348612D01*
X646288Y1349161D01*
X646883Y1349660D01*
X647519Y1350105D01*
X648191Y1350493D01*
X648895Y1350821D01*
X649624Y1351087D01*
X650374Y1351288D01*
X651139Y1351422D01*
X651912Y1351490D01*
X652688Y1351490D01*
X653461Y1351422D01*
X654226Y1351288D01*
X654976Y1351087D01*
X655705Y1350821D01*
X656409Y1350493D01*
X657081Y1350105D01*
X657717Y1349660D01*
X658312Y1349161D01*
X658861Y1348612D01*
X659360Y1348017D01*
X659805Y1347381D01*
X660193Y1346709D01*
X660521Y1346005D01*
X660787Y1345276D01*
X660988Y1344526D01*
X661122Y1343761D01*
X661190Y1342988D01*
X661190Y1342212D01*
X661122Y1341439D01*
X660988Y1340674D01*
X660787Y1339924D01*
X660521Y1339195D01*
X660193Y1338491D01*
X659805Y1337819D01*
X659360Y1337183D01*
X658861Y1336588D01*
X658312Y1336039D01*
X657717Y1335540D01*
X657081Y1335095D01*
X656409Y1334707D01*
X655705Y1334379D01*
X654976Y1334113D01*
X654226Y1333912D01*
X653461Y1333778D01*
X652688Y1333710D01*
X651912Y1333710D01*
X804312Y1333710D02*
X803539Y1333778D01*
X802774Y1333912D01*
X802024Y1334113D01*
X801295Y1334379D01*
X800591Y1334707D01*
X799919Y1335095D01*
X799283Y1335540D01*
X798688Y1336039D01*
X798139Y1336588D01*
X797640Y1337183D01*
X797195Y1337819D01*
X796807Y1338491D01*
X796479Y1339195D01*
X796213Y1339924D01*
X796012Y1340674D01*
X795878Y1341439D01*
X795810Y1342212D01*
X795810Y1342988D01*
X795878Y1343761D01*
X796012Y1344526D01*
X796213Y1345276D01*
X796479Y1346005D01*
X796807Y1346709D01*
X797195Y1347381D01*
X797640Y1348017D01*
X798139Y1348612D01*
X798688Y1349161D01*
X799283Y1349660D01*
X799919Y1350105D01*
X800591Y1350493D01*
X801295Y1350821D01*
X802024Y1351087D01*
X802774Y1351288D01*
X803539Y1351422D01*
X804312Y1351490D01*
X805088Y1351490D01*
X805861Y1351422D01*
X806626Y1351288D01*
X807376Y1351087D01*
X808105Y1350821D01*
X808809Y1350493D01*
X809481Y1350105D01*
X810117Y1349660D01*
X810712Y1349161D01*
X811261Y1348612D01*
X811760Y1348017D01*
X812205Y1347381D01*
X812593Y1346709D01*
X812921Y1346005D01*
X813187Y1345276D01*
X813388Y1344526D01*
X813522Y1343761D01*
X813590Y1342988D01*
X813590Y1342212D01*
X813522Y1341439D01*
X813388Y1340674D01*
X813187Y1339924D01*
X812921Y1339195D01*
X812593Y1338491D01*
X812205Y1337819D01*
X811760Y1337183D01*
X811261Y1336588D01*
X810712Y1336039D01*
X810117Y1335540D01*
X809481Y1335095D01*
X808809Y1334707D01*
X808105Y1334379D01*
X807376Y1334113D01*
X806626Y1333912D01*
X805861Y1333778D01*
X805088Y1333710D01*
X804312Y1333710D01*
X804312Y927310D02*
X803539Y927378D01*
X802774Y927512D01*
X802024Y927713D01*
X801295Y927979D01*
X800591Y928307D01*
X799919Y928695D01*
X799283Y929140D01*
X798688Y929639D01*
X798139Y930188D01*
X797640Y930783D01*
X797195Y931419D01*
X796807Y932091D01*
X796479Y932795D01*
X796213Y933524D01*
X796012Y934274D01*
X795878Y935039D01*
X795810Y935812D01*
X795810Y936588D01*
X795878Y937361D01*
X796012Y938126D01*
X796213Y938876D01*
X796479Y939605D01*
X796807Y940309D01*
X797195Y940981D01*
X797640Y941617D01*
X798139Y942212D01*
X798688Y942761D01*
X799283Y943260D01*
X799919Y943705D01*
X800591Y944093D01*
X801295Y944421D01*
X802024Y944687D01*
X802774Y944888D01*
X803539Y945022D01*
X804312Y945090D01*
X805088Y945090D01*
X805861Y945022D01*
X806626Y944888D01*
X807376Y944687D01*
X808105Y944421D01*
X808809Y944093D01*
X809481Y943705D01*
X810117Y943260D01*
X810712Y942761D01*
X811261Y942212D01*
X811760Y941617D01*
X812205Y940981D01*
X812593Y940309D01*
X812921Y939605D01*
X813187Y938876D01*
X813388Y938126D01*
X813522Y937361D01*
X813590Y936588D01*
X813590Y935812D01*
X813522Y935039D01*
X813388Y934274D01*
X813187Y933524D01*
X812921Y932795D01*
X812593Y932091D01*
X812205Y931419D01*
X811760Y930783D01*
X811261Y930188D01*
X810712Y929639D01*
X810117Y929140D01*
X809481Y928695D01*
X808809Y928307D01*
X808105Y927979D01*
X807376Y927713D01*
X806626Y927512D01*
X805861Y927378D01*
X805088Y927310D01*
X804312Y927310D01*
X651912Y927310D02*
X651139Y927378D01*
X650374Y927512D01*
X649624Y927713D01*
X648895Y927979D01*
X648191Y928307D01*
X647519Y928695D01*
X646883Y929140D01*
X646288Y929639D01*
X645739Y930188D01*
X645240Y930783D01*
X644795Y931419D01*
X644407Y932091D01*
X644079Y932795D01*
X643813Y933524D01*
X643612Y934274D01*
X643478Y935039D01*
X643410Y935812D01*
X643410Y936588D01*
X643478Y937361D01*
X643612Y938126D01*
X643813Y938876D01*
X644079Y939605D01*
X644407Y940309D01*
X644795Y940981D01*
X645240Y941617D01*
X645739Y942212D01*
X646288Y942761D01*
X646883Y943260D01*
X647519Y943705D01*
X648191Y944093D01*
X648895Y944421D01*
X649624Y944687D01*
X650374Y944888D01*
X651139Y945022D01*
X651912Y945090D01*
X652688Y945090D01*
X653461Y945022D01*
X654226Y944888D01*
X654976Y944687D01*
X655705Y944421D01*
X656409Y944093D01*
X657081Y943705D01*
X657717Y943260D01*
X658312Y942761D01*
X658861Y942212D01*
X659360Y941617D01*
X659805Y940981D01*
X660193Y940309D01*
X660521Y939605D01*
X660787Y938876D01*
X660988Y938126D01*
X661122Y937361D01*
X661190Y936588D01*
X661190Y935812D01*
X661122Y935039D01*
X660988Y934274D01*
X660787Y933524D01*
X660521Y932795D01*
X660193Y932091D01*
X659805Y931419D01*
X659360Y930783D01*
X658861Y930188D01*
X658312Y929639D01*
X657717Y929140D01*
X657081Y928695D01*
X656409Y928307D01*
X655705Y927979D01*
X654976Y927713D01*
X654226Y927512D01*
X653461Y927378D01*
X652688Y927310D01*
X651912Y927310D01*
M02*
