G04 EAGLE Gerber RS-274X export*
G75*
%MOMM*%
%FSLAX34Y34*%
%LPD*%
%INSoldermask Bottom*%
%IPPOS*%
%AMOC8*
5,1,8,0,0,1.08239X$1,22.5*%
G01*
%ADD10C,2.503200*%
%ADD11C,1.981200*%
%ADD12R,1.511200X1.511200*%
%ADD13C,1.511200*%
%ADD14C,1.727200*%
%ADD15R,1.503200X1.703200*%
%ADD16R,1.703200X1.503200*%
%ADD17C,1.473200*%
%ADD18R,2.203200X2.203200*%
%ADD19R,1.711200X1.711200*%
%ADD20C,1.711200*%
%ADD21R,3.203200X3.203200*%
%ADD22P,3.467112X8X202.500000*%
%ADD23C,0.959600*%


D10*
X409200Y1672900D03*
X313400Y1768300D03*
X1148200Y1765400D03*
X1053700Y1669900D03*
D11*
X652300Y1342600D03*
D12*
X652300Y1317200D03*
D13*
X652300Y1291800D03*
X652300Y1266400D03*
X652300Y1241000D03*
X652300Y1215600D03*
X652300Y1190200D03*
X652300Y1164800D03*
X652300Y1139400D03*
X652300Y1114000D03*
X652300Y1088600D03*
X652300Y1063200D03*
X652300Y1037800D03*
X652300Y1012400D03*
X652300Y987000D03*
X652300Y961600D03*
X804700Y961600D03*
X804700Y987000D03*
X804700Y1012400D03*
X804700Y1037800D03*
X804700Y1063200D03*
X804700Y1088600D03*
X804700Y1114000D03*
X804700Y1139400D03*
X804700Y1164800D03*
X804700Y1190200D03*
X804700Y1215600D03*
X804700Y1241000D03*
X804700Y1266400D03*
X804700Y1291800D03*
X804700Y1317200D03*
D11*
X804700Y1342600D03*
X804700Y936200D03*
X652300Y936200D03*
D14*
X652300Y905720D02*
X652300Y890480D01*
X677700Y890480D02*
X677700Y905720D01*
X779300Y461220D02*
X779300Y445980D01*
X753900Y445980D02*
X753900Y461220D01*
X728500Y461220D02*
X728500Y445980D01*
X703100Y445980D02*
X703100Y461220D01*
D15*
X649100Y313900D03*
X630100Y313900D03*
X630100Y339300D03*
X649100Y339300D03*
D16*
X753900Y793300D03*
X753900Y774300D03*
X703100Y793300D03*
X703100Y774300D03*
D17*
X499900Y1723600D03*
X474500Y1723600D03*
X474500Y1749000D03*
X499900Y1749000D03*
X289000Y1628400D03*
X263600Y1628400D03*
X263600Y1653800D03*
X289000Y1653800D03*
D18*
X775490Y84030D03*
X681510Y84030D03*
X681510Y238970D03*
X775490Y238970D03*
X927890Y84030D03*
X833910Y84030D03*
X833910Y238970D03*
X927890Y238970D03*
X623090Y84030D03*
X529110Y84030D03*
X529110Y238970D03*
X623090Y238970D03*
D19*
X766600Y821900D03*
D20*
X741200Y821900D03*
X715800Y821900D03*
X715800Y847300D03*
X741200Y847300D03*
X766600Y847300D03*
X690400Y847300D03*
D19*
X690400Y821900D03*
D17*
X1191400Y1622900D03*
X1166000Y1622900D03*
X1166000Y1648300D03*
X1191400Y1648300D03*
X982500Y1723600D03*
X957100Y1723600D03*
X957100Y1749000D03*
X982500Y1749000D03*
X741200Y1749000D03*
X715800Y1749000D03*
X715800Y1774400D03*
X741200Y1774400D03*
D21*
X748300Y313900D03*
D22*
X708700Y313900D03*
D14*
X372900Y29420D02*
X372900Y14180D01*
X347500Y14180D02*
X347500Y29420D01*
X1096800Y29420D02*
X1096800Y14180D01*
X1071400Y14180D02*
X1071400Y29420D01*
D23*
X715800Y1177500D03*
X360200Y161500D03*
X1084100Y161500D03*
X1046000Y186900D03*
X1046000Y199600D03*
X1046000Y212300D03*
X436400Y123400D03*
X969800Y110700D03*
X995200Y1660100D03*
X982500Y1660100D03*
X690400Y1672800D03*
X474500Y1660100D03*
X538000Y1596600D03*
X652300Y793300D03*
X360200Y174200D03*
X601500Y415500D03*
X1084100Y174200D03*
X855500Y428200D03*
X674500Y774300D03*
M02*
