G04 EAGLE Gerber RS-274X export*
G75*
%MOMM*%
%FSLAX34Y34*%
%LPD*%
%INSoldermask Top*%
%IPPOS*%
%AMOC8*
5,1,8,0,0,1.08239X$1,22.5*%
G01*
%ADD10C,2.503200*%
%ADD11C,1.981200*%
%ADD12R,1.511200X1.511200*%
%ADD13C,1.511200*%
%ADD14R,1.703200X1.503200*%
%ADD15R,1.803200X2.803200*%
%ADD16C,1.727200*%
%ADD17R,1.203200X1.603200*%
%ADD18R,1.503200X1.703200*%
%ADD19R,0.508000X0.812800*%
%ADD20C,1.473200*%
%ADD21R,2.203200X2.203200*%
%ADD22R,1.711200X1.711200*%
%ADD23C,1.711200*%
%ADD24R,3.203200X3.203200*%
%ADD25P,3.467112X8X202.500000*%
%ADD26C,0.959600*%


D10*
X409200Y1672900D03*
X313400Y1768300D03*
X1148200Y1765400D03*
X1053700Y1669900D03*
D11*
X652300Y1342600D03*
D12*
X652300Y1317200D03*
D13*
X652300Y1291800D03*
X652300Y1266400D03*
X652300Y1241000D03*
X652300Y1215600D03*
X652300Y1190200D03*
X652300Y1164800D03*
X652300Y1139400D03*
X652300Y1114000D03*
X652300Y1088600D03*
X652300Y1063200D03*
X652300Y1037800D03*
X652300Y1012400D03*
X652300Y987000D03*
X652300Y961600D03*
X804700Y961600D03*
X804700Y987000D03*
X804700Y1012400D03*
X804700Y1037800D03*
X804700Y1063200D03*
X804700Y1088600D03*
X804700Y1114000D03*
X804700Y1139400D03*
X804700Y1164800D03*
X804700Y1190200D03*
X804700Y1215600D03*
X804700Y1241000D03*
X804700Y1266400D03*
X804700Y1291800D03*
X804700Y1317200D03*
D11*
X804700Y1342600D03*
X804700Y936200D03*
X652300Y936200D03*
D14*
X563400Y342500D03*
X563400Y361500D03*
X868200Y342500D03*
X868200Y361500D03*
X588800Y342500D03*
X588800Y361500D03*
D15*
X715800Y372100D03*
X715800Y408100D03*
D14*
X753900Y380600D03*
X753900Y399600D03*
X893600Y342500D03*
X893600Y361500D03*
D16*
X652300Y890480D02*
X652300Y905720D01*
X677700Y905720D02*
X677700Y890480D01*
X779300Y461220D02*
X779300Y445980D01*
X753900Y445980D02*
X753900Y461220D01*
X728500Y461220D02*
X728500Y445980D01*
X703100Y445980D02*
X703100Y461220D01*
D17*
X728500Y896400D03*
X738000Y874400D03*
X719000Y874400D03*
D18*
X788800Y885400D03*
X769800Y885400D03*
X985700Y1609300D03*
X1004700Y1609300D03*
X1004700Y1634700D03*
X985700Y1634700D03*
D14*
X906300Y1650600D03*
X906300Y1669600D03*
X944400Y1669600D03*
X944400Y1650600D03*
X741200Y1650600D03*
X741200Y1669600D03*
X715800Y1669600D03*
X715800Y1650600D03*
X550700Y1650600D03*
X550700Y1669600D03*
X512600Y1669600D03*
X512600Y1650600D03*
D18*
X484000Y1634700D03*
X465000Y1634700D03*
X465000Y1609300D03*
X484000Y1609300D03*
D14*
X830100Y793300D03*
X830100Y774300D03*
X626900Y793300D03*
X626900Y774300D03*
D18*
X617400Y821900D03*
X636400Y821900D03*
D14*
X626900Y850500D03*
X626900Y869500D03*
X830100Y869500D03*
X830100Y850500D03*
D19*
X324525Y149700D03*
X331025Y149700D03*
X337525Y149700D03*
X344025Y149700D03*
X350525Y149700D03*
X357025Y149700D03*
X363525Y149700D03*
X370025Y149700D03*
X376525Y149700D03*
X383025Y149700D03*
X389525Y149700D03*
X396025Y149700D03*
X324525Y73500D03*
X331025Y73500D03*
X337525Y73500D03*
X344025Y73500D03*
X350525Y73500D03*
X357025Y73500D03*
X363525Y73500D03*
X370025Y73500D03*
X376525Y73500D03*
X383025Y73500D03*
X389525Y73500D03*
X396025Y73500D03*
D20*
X499900Y1723600D03*
X474500Y1723600D03*
X474500Y1749000D03*
X499900Y1749000D03*
X289000Y1628400D03*
X263600Y1628400D03*
X263600Y1653800D03*
X289000Y1653800D03*
D21*
X775490Y84030D03*
X681510Y84030D03*
X681510Y238970D03*
X775490Y238970D03*
D19*
X1048425Y149700D03*
X1054925Y149700D03*
X1061425Y149700D03*
X1067925Y149700D03*
X1074425Y149700D03*
X1080925Y149700D03*
X1087425Y149700D03*
X1093925Y149700D03*
X1100425Y149700D03*
X1106925Y149700D03*
X1113425Y149700D03*
X1119925Y149700D03*
X1048425Y73500D03*
X1054925Y73500D03*
X1061425Y73500D03*
X1067925Y73500D03*
X1074425Y73500D03*
X1080925Y73500D03*
X1087425Y73500D03*
X1093925Y73500D03*
X1100425Y73500D03*
X1106925Y73500D03*
X1113425Y73500D03*
X1119925Y73500D03*
D21*
X927890Y84030D03*
X833910Y84030D03*
X833910Y238970D03*
X927890Y238970D03*
X623090Y84030D03*
X529110Y84030D03*
X529110Y238970D03*
X623090Y238970D03*
D22*
X766600Y821900D03*
D23*
X741200Y821900D03*
X715800Y821900D03*
X715800Y847300D03*
X741200Y847300D03*
X766600Y847300D03*
X690400Y847300D03*
D22*
X690400Y821900D03*
D20*
X1191400Y1622900D03*
X1166000Y1622900D03*
X1166000Y1648300D03*
X1191400Y1648300D03*
X982500Y1723600D03*
X957100Y1723600D03*
X957100Y1749000D03*
X982500Y1749000D03*
X741200Y1749000D03*
X715800Y1749000D03*
X715800Y1774400D03*
X741200Y1774400D03*
D24*
X748300Y313900D03*
D25*
X708700Y313900D03*
D16*
X372900Y29420D02*
X372900Y14180D01*
X347500Y14180D02*
X347500Y29420D01*
X1096800Y29420D02*
X1096800Y14180D01*
X1071400Y14180D02*
X1071400Y29420D01*
D26*
X715800Y1177500D03*
X360200Y161500D03*
X1084100Y161500D03*
X1046000Y186900D03*
X1046000Y199600D03*
X1046000Y212300D03*
X436400Y123400D03*
X969800Y110700D03*
X995200Y1660100D03*
X982500Y1660100D03*
X690400Y1672800D03*
X474500Y1660100D03*
X538000Y1596600D03*
X652300Y793300D03*
X360200Y174200D03*
X601500Y415500D03*
X1084100Y174200D03*
X855500Y428200D03*
X674500Y774300D03*
M02*
