G04 EAGLE Gerber RS-274X export*
G75*
%MOMM*%
%FSLAX34Y34*%
%LPD*%
%INSolderpaste Top*%
%IPPOS*%
%AMOC8*
5,1,8,0,0,1.08239X$1,22.5*%
G01*
%ADD10R,1.500000X1.300000*%
%ADD11R,1.600000X2.600000*%
%ADD12R,1.000000X1.400000*%
%ADD13R,1.300000X1.500000*%
%ADD14R,0.304800X0.609600*%


D10*
X563400Y342500D03*
X563400Y361500D03*
X868200Y342500D03*
X868200Y361500D03*
X588800Y342500D03*
X588800Y361500D03*
D11*
X715800Y372100D03*
X715800Y408100D03*
D10*
X753900Y380600D03*
X753900Y399600D03*
X893600Y342500D03*
X893600Y361500D03*
D12*
X728500Y896400D03*
X738000Y874400D03*
X719000Y874400D03*
D13*
X788800Y885400D03*
X769800Y885400D03*
X985700Y1609300D03*
X1004700Y1609300D03*
X1004700Y1634700D03*
X985700Y1634700D03*
D10*
X906300Y1650600D03*
X906300Y1669600D03*
X944400Y1669600D03*
X944400Y1650600D03*
X741200Y1650600D03*
X741200Y1669600D03*
X715800Y1669600D03*
X715800Y1650600D03*
X550700Y1650600D03*
X550700Y1669600D03*
X512600Y1669600D03*
X512600Y1650600D03*
D13*
X484000Y1634700D03*
X465000Y1634700D03*
X465000Y1609300D03*
X484000Y1609300D03*
D10*
X830100Y793300D03*
X830100Y774300D03*
X626900Y793300D03*
X626900Y774300D03*
D13*
X617400Y821900D03*
X636400Y821900D03*
D10*
X626900Y850500D03*
X626900Y869500D03*
X830100Y869500D03*
X830100Y850500D03*
D14*
X324525Y149700D03*
X331025Y149700D03*
X337525Y149700D03*
X344025Y149700D03*
X350525Y149700D03*
X357025Y149700D03*
X363525Y149700D03*
X370025Y149700D03*
X376525Y149700D03*
X383025Y149700D03*
X389525Y149700D03*
X396025Y149700D03*
X324525Y73500D03*
X331025Y73500D03*
X337525Y73500D03*
X344025Y73500D03*
X350525Y73500D03*
X357025Y73500D03*
X363525Y73500D03*
X370025Y73500D03*
X376525Y73500D03*
X383025Y73500D03*
X389525Y73500D03*
X396025Y73500D03*
X1048425Y149700D03*
X1054925Y149700D03*
X1061425Y149700D03*
X1067925Y149700D03*
X1074425Y149700D03*
X1080925Y149700D03*
X1087425Y149700D03*
X1093925Y149700D03*
X1100425Y149700D03*
X1106925Y149700D03*
X1113425Y149700D03*
X1119925Y149700D03*
X1048425Y73500D03*
X1054925Y73500D03*
X1061425Y73500D03*
X1067925Y73500D03*
X1074425Y73500D03*
X1080925Y73500D03*
X1087425Y73500D03*
X1093925Y73500D03*
X1100425Y73500D03*
X1106925Y73500D03*
X1113425Y73500D03*
X1119925Y73500D03*
M02*
